STARTFONT 2.1
FONT -FontForge-Mando AF-Regular-R-Normal--135-1300-75-75-M-690-ISO10646-1
SIZE 130 75 75
FONTBOUNDINGBOX 67 146 1 -3
COMMENT "Generated by fontforge, http://fontforge.sourceforge.net"
COMMENT "CC0 - public domain"
STARTPROPERTIES 40
FOUNDRY "FontForge"
FAMILY_NAME "Mando AF"
WEIGHT_NAME "Regular"
SLANT "R"
SETWIDTH_NAME "Normal"
ADD_STYLE_NAME ""
PIXEL_SIZE 135
POINT_SIZE 1300
RESOLUTION_X 75
RESOLUTION_Y 75
SPACING "M"
AVERAGE_WIDTH 690
CHARSET_REGISTRY "ISO10646"
CHARSET_ENCODING "1"
FONTNAME_REGISTRY ""
CHARSET_COLLECTIONS "ISO10646-1"
FONT_NAME "MandoAF-Regular"
FACE_NAME "Mando AF Regular"
COPYRIGHT "CC0 - public domain"
FONT_VERSION "002"
FONT_ASCENT 108
FONT_DESCENT 27
UNDERLINE_POSITION -14
UNDERLINE_THICKNESS 7
X_HEIGHT 134
CAP_HEIGHT 134
RAW_ASCENT 800
RAW_DESCENT 200
NORM_SPACE 69
RELATIVE_WEIGHT 40
RELATIVE_SETWIDTH 50
SUPERSCRIPT_X 0
SUPERSCRIPT_Y 64
SUPERSCRIPT_SIZE 94
SUBSCRIPT_X 0
SUBSCRIPT_Y 18
SUBSCRIPT_SIZE 94
FIGURE_WIDTH 69
AVG_LOWERCASE_WIDTH 690
AVG_UPPERCASE_WIDTH 690
ENDPROPERTIES
CHARS 77
STARTCHAR space
ENCODING 32
SWIDTH 510 0
DWIDTH 69 0
BBX 1 1 0 0
BITMAP
00
ENDCHAR
STARTCHAR exclam
ENCODING 33
SWIDTH 510 0
DWIDTH 69 0
BBX 18 98 25 18
BITMAP
E00000
FC0000
FC0000
FC0000
FC0000
FC0000
FC0000
FC0000
FC0000
FC0000
FC0000
FC0000
FE0000
FE0000
FE0000
FE0000
FE0000
FE0000
FE0000
FE0000
FE0000
FE0000
FE0000
FE0000
FE00C0
FE03C0
FF07C0
FF1FC0
FFFF80
FFFF80
FFFF80
FFFF80
FFFF80
FFFF00
FFFF00
FFFF00
FFFF00
FFFF00
FFFF00
FFFE00
FFFE00
FFFE00
FFFE00
FFFE00
FFFC00
FFFC00
FFFC00
FFFC00
FFFC00
FFF800
FFF800
FFF800
FFF800
FFF800
FFF000
FFF000
FFF000
FFF000
FFF000
FFE000
FFE000
FFE000
FFE000
FFE000
FFE000
FFC000
FFC000
FFC000
FFC000
FFC000
FF8000
FF8000
FF8000
FF8000
FF8000
FF0000
FF0000
FF0000
FF0000
FF0000
FE0000
FE0000
FE0000
FE0000
FE0000
FE0000
FC0000
FC0000
FC0000
F80000
F80000
F00000
F00000
E00000
E00000
C00000
C00000
800000
ENDCHAR
STARTCHAR quotedbl
ENCODING 34
SWIDTH 510 0
DWIDTH 69 0
BBX 37 39 18 104
BITMAP
0003000008
0007000018
000E000038
001E0000F8
003E0001F0
007C0003F0
01FC0007F0
03FC000FF0
07FC001FE0
0FF8003FE0
1FF800FFE0
3FF801FFC0
7FF803FFC0
FFF003FFC0
FFF003FFC0
FFF003FF80
7FF003FF80
7FE003FF80
7FE001FF80
7FE001FF00
7FC001FF00
3FC001FF00
3FC001FF00
3FC001FE00
3F8000FE00
3F8000FE00
3F8000FC00
1F8000FC00
1F0000FC00
1F00007C00
1F00007800
1E00007800
0E00007800
0E00007800
0E00007000
0C00003000
0C00003000
0400002000
0400002000
ENDCHAR
STARTCHAR numbersign
ENCODING 35
SWIDTH 510 0
DWIDTH 69 0
BBX 65 133 2 1
BITMAP
000000180000000000
000000380000000000
000000F80000000000
000001F80000000000
000007F80001800000
00001FF80007800000
00003FF8000F800000
0000FFF8003F800000
0001FFF8007F800000
0003FFF800FF800000
0003FFF803FF800000
0003FFF807FF800000
0003FFF81FFF800000
0003FFF83FFF800000
0003FFF87FFF800000
0003FFF9FFFF800000
0003FFFBFFFF800000
0003FFFFFFFF800000
0003FFFFFFFF800000
0003FFFFFFFF800000
0003FFFFFFFF800000
0003FFFFFFFF800000
0003FFFFFFFF800000
0003FFFFFEFF800000
0003FFFFFCFF800000
0003FFFFF8FF800000
0003FFFFF0FF800000
0001FFFFE0FF800000
0001FFFFC0FF800000
0007FFFF80FF800000
003FFFFF80FF800000
00FFFFFF00FF800000
07FFFFFE00FF800000
1FFFFFFC00FF800000
FFFFFFF800FF800000
FFFFFFF000FF800000
FFFFFFF000FF800000
7FFFFFF000FF800000
3FFFFFF000FF800000
0FFFFFF000FF800000
01FFFFF000FF800000
001FFFF000FF800000
0007FFE000FF800000
0003FFE000FF800000
0003FFE000FF800000
0001FFE001FF800000
0001FFE001FF800000
0001FFE001FF800000
0001FFE001FF800000
0001FFE001FF800000
0001FFE001FF800000
0001FFE001FF800000
0001FFE001FFC00000
0001FFE001FFC00000
0001FFE001FFC00000
0001FFE001FFC00000
0001FFE001FFC00000
0001FFE001FFC00000
0001FFE001FFC00000
0001FFE001FFC00000
0001FFC001FFC00000
0001FFC001FFC00000
0001FFC001FFC00000
0001FFC001FFC00000
0001FFC001FFC00000
0001FFC001FFC00000
0001FFC001FFC00000
0001FFC001FFC00000
0001FFC003FFC00000
0001FFC003FFC00000
0001FFC003FFC00000
0001FFC003FFC00000
0001FFC003FFC00000
0001FFC003FFC00000
0001FFC003FFC00000
0001FFC003FFC00000
0001FFC003FFC00000
0001FFC003FFC00000
0001FFC003FFC00000
0001FFC003FFC00000
0001FFC003FFC00000
0001FFC003FFC00000
0001FF8003FFC00000
0001FF8003FFC00000
0001FF8003FFC00000
0001FF8003FFC00000
0001FF8003FFC00000
0001FF8007FFC00000
0001FF8007FFC00000
0001FF8007FFC00000
0001FF8007FFE00000
0001FF8007FFFC0000
0001FF8007FFFF8000
0001FF8007FFFFF000
0001FF8007FFFFFC00
0001FF8007FFFFFF00
0001FF8007FFFFFF00
0000FF8007FFFFFF80
0000FF800FFFFFFF80
0000FF801FFFFFFE00
0000FF803FFFFFF000
0000FF807FFFFF8000
0000FF80FFFFFE0000
0000FF81FFFFF00000
0000FF81FFFFC00000
0000FF83FFFFC00000
0000FF07FFFFC00000
0000FF0FFFFFC00000
0000FF1FFFFFC00000
0000FF3FFFFFC00000
0000FF7FFFFFC00000
0000FFFFFFFFC00000
0000FFFFFFFFE00000
0000FFFFFFFFE00000
0000FFFFFFFFE00000
0000FFFFFFFFE00000
0000FFFFEFFFE00000
0000FFFFCFFFE00000
0000FFFF0FFFE00000
0000FFFE0FFFE00000
0000FFF80FFFE00000
0000FFF00FFFE00000
0000FFE00FFFE00000
0000FF800FFFE00000
0000FF000FFFC00000
0000FE000FFF800000
0000F8000FFE000000
0000F0000FFC000000
0000C0000FF0000000
000000000FC0000000
000000000F80000000
000000000E00000000
000000000C00000000
ENDCHAR
STARTCHAR dollar
ENCODING 36
SWIDTH 510 0
DWIDTH 69 0
BBX 58 134 5 0
BITMAP
0000400C00000000
0000400E00000000
0000C00F00000000
0000C00FC0000000
0001C00FE0000000
0001C01FF0000000
0003C01FF0000000
0003C01FF0000000
0007C01FF0000000
0007C01FF0000000
000FC01FF0000000
000FC01FF0000000
000FC01FF0000000
001FC01FF0000000
001FC01FF0000000
001FC01FF0000000
001FC01FF0000000
001FC01FF0000000
003FC01FF0000000
003FC01FF0000000
003FC01FF0000000
003FC01FF0000000
003FC01FF0000000
003FC01FF0000000
007FC01FF0000000
007FC01FF0000000
007FC01FF0000000
007FC01FF0000000
007FC01FF0000000
00FFC01FF0000000
00FFC01FF8000000
00FFC01FF8000000
00FFC01FF8000000
00FFC03FF8000000
01FFC03FF8000000
01FFC03FF8000000
01FFC03FF8000000
01FFC03FF8000000
01FFC03FF8000000
03FFC03FF8000000
03FFC03FF8000000
03FFC03FF8000000
03FFC03FF8000000
03FFC03FF8000000
07FFC03FF8000000
07FFC03FF8000000
07FFC03FF8000000
07FFC03FF8000000
07FFC03FF8000000
07FFC03FF8000000
0FFFC03FF8000000
0FFFC03FF8000000
0FFFC03FFC000000
0FFFC01FFC000000
0FFFC01FFC000000
1FFFC01FFE000000
1FFFC00FFE000000
1FFFC00FFF000000
1FFFC007FF000000
1FFFC007FF800000
3FFFC007FF800000
3FFFC003FF800000
3FFFC003FFC00000
3FFFC001FFC00000
3FFFC001FFE00000
7FFFC000FFE00000
7FFFC000FFE00000
7FFFC000FFF00000
7FFFC0007FF00000
7FFFC0007FF80000
7F3FC0003FF80000
FC3FC0003FFC0000
F81FC0003FFC0000
E01FC0001FFC0000
801FC0001FFE0000
001FC0000FFE0000
001FC0000FFF0000
001FC00007FF0000
001FC00007FF0000
001FC00007FF8000
001FC00003FF8000
001FC00003FFC000
001FC00001FFC000
001FC00001FFE000
001FC00001FFE000
000FC00000FFE000
000FC00000FFF000
000FC000007FF000
000FC000007FF800
000FC000003FF800
000FC000003FF800
000FC000003FFC00
000FC000001FFC00
000FC000001FFE00
000FC000000FFE00
000FC000000FFF00
000FC000000FFF00
0003C000000FFF00
00004000000FFF00
00000000000FFF00
00000000000FFF00
00000000000FFF80
00000000000FFF80
00000000000FFF80
00000000000FFF80
00000000000FFF80
00000000000FFF80
00000000000FFF80
00000000000FFF80
00000000000FFF80
00000000001FFF80
00000000001FFF80
00000000001FFF80
00000000001FFF80
00600000001FFF80
00700000001FFFC0
007C0000001FFFC0
00FE0000001FFFC0
00FE0000001FFFC0
00FE0000001FFFC0
00FF0000001FFFC0
00FF000001FFFF80
00FF0000FFFFFF00
00FF007FFFFFFE00
00FFFFFFFFFFFC00
00FFFFFFFFFFF000
01FFFFFFFFFFE000
01FFFFFFFFFFC000
01FFFFFFFFFF8000
01FFFFFFFFFE0000
01FFFFFFFFFC0000
0003FFFFFFF80000
000000FFFFE00000
000000003FC00000
ENDCHAR
STARTCHAR ampersand
ENCODING 38
SWIDTH 510 0
DWIDTH 69 0
BBX 67 134 1 -1
BITMAP
0000001C0000000000
0000007F8000000000
000001FFE000000000
000003FFFC00000000
00000FFFFF00000000
00003FFFFFC0000000
00007FFFFFC0000000
0001FFFFFF80000000
0003FFFFFF00000000
0007FFFFF800000000
0007FFFE0000000000
0007FFF00000000000
0007FFF00000000000
0007FFF00000000000
0007FFF000001C0000
0007FFE000007F8000
0007FFE00000FFF000
0007FFE00003FFFC00
0007FFE0000FFFFF80
0007FFE0001FFFFFE0
0007FFE0007FFFFFC0
0007FFE000FFFFFF80
0007FFE003FFFFFF00
0007FFE007FFFFFC00
0007FFE007FFFF0000
0007FFE007FFF00000
0007FFE007FFF00000
0007FFE007FFF00000
0007FFE007FFF00000
0007FFE007FFF00000
0007FFE007FFF00000
0007FFE007FFF00000
0007FFE007FFE00000
0007FFE007FFE00000
0007FFE007FFE00000
0007FFE007FFE00000
0007FFC007FFE00000
0007FFC007FFE00000
0007FFC007FFE00000
0007FFC007FFE00000
0007FFC007FFE00000
0007FFC007FFE00000
0007FFC007FFE00000
0007FFC007FFE00000
0007FFC007FFE00000
0007FFC007FFE00000
0007FFC007FFE00000
0003FFC007FFE00000
0003FFC007FFE00000
0003FFC007FFE00000
0003FFC007FFE00000
0003FFC007FFE00000
0003FFC007FFE00000
0003FFC007FFE00000
0003FFC007FFE00000
0003FFC007FFE00000
0003FFC007FFE00000
0003FFC007FFC00000
0003FFC007FFC00000
0003FFC007FFC00000
0003FF8003FFC00000
0003FF8003FFC00000
0003FF8003FFC00000
0003FF8003FFC00000
0003FF8003FFC00000
0003FF8003FFC00000
0003FF8003FFC00000
0003FF8003FFC00000
0003FF8003FFC00000
0003FF8003FFC00000
0003FF8003FFC00000
0003FF8003FFC00000
0003FF8003FFC00000
0003FF8003FFC00000
0003FF8003FFC00000
0003FF8003FFC00000
8003FF8003FFC00000
6003FF8003FFC00000
7003FF8003FFC00000
7803FF8003FFC00000
7C03FF8003FFC00000
3F03FF8003FFC00000
3F83FF8003FF800000
3FC3FF0003FF800000
3FE3FF0003FF800000
1FFBFF0003FF800000
1FFFFF0003FF800000
1FFFFF0003FF800000
1FFFFF0003FF800000
1FFFFF0003FF800000
0FFFFF0003FF800000
0FFFFF0003FF800000
0FFFFF0003FF800000
0FFFFF0003FF800000
07FFFF0003FF800000
07FFFF0003FF800000
07FFFF0003FF800000
07FFFF0003FF800000
03FFFF0003FF800000
03FFFF0003FF800000
03FFFF0003FF800000
03FFFF0003FF800000
01FFFF0003FF800000
01FFFF0003FF800000
01FFFF0003FF000000
01FFFF0003FF000000
00FFFE0003FF000000
00FFFE0003FF000000
00FFFE0003FF000000
00FFFE0003FF000000
007FFE0003FF000000
007FFE0003FF000000
007FFE0003FF000000
007FFE0003FF000000
003FFE0003FF000000
003FFE0003FF000000
003FFE0003FF000000
003FFE0003FF000000
001FFE0003FF000000
001FFE0003FF000000
001FFE0001FE000000
001FFE0001FE000000
000FFE0001FE000000
000FFE0001FE000000
000FFE0001FE000000
000FFE0001FE000000
0007FE0001FE000000
0007FE0001FE000000
0007FE0001FE000000
0007FC0001FC000000
0003F80001F8000000
0003F00001E0000000
0003C00001C0000000
000180000100000000
ENDCHAR
STARTCHAR quotesingle
ENCODING 39
SWIDTH 510 0
DWIDTH 69 0
BBX 15 39 27 104
BITMAP
0002
0006
001E
003C
007C
00FC
01FC
03F8
0FF8
1FF8
3FF0
7FF0
FFF0
FFF0
FFE0
FFE0
FFE0
FFE0
FFC0
7FC0
7FC0
7FC0
7F80
7F80
7F80
3F00
3F00
3F00
3F00
3E00
1E00
1E00
1E00
1C00
1C00
1C00
0800
0800
0800
ENDCHAR
STARTCHAR comma
ENCODING 44
SWIDTH 510 0
DWIDTH 69 0
BBX 22 35 23 0
BITMAP
000008
000018
000018
000038
000078
000078
0000F8
0000FC
0001FC
0001FC
0003FC
0007FC
0007FC
000FFC
000FFC
001FFC
001FFC
003FFC
007FFC
007FFC
00FFF8
00FFF0
01FFE0
03FF80
03FF00
07FE00
07F800
0FF000
0FC000
1F8000
3E0000
3C0000
700000
600000
800000
ENDCHAR
STARTCHAR hyphen
ENCODING 45
SWIDTH 510 0
DWIDTH 69 0
BBX 55 27 7 59
BITMAP
00000000007C00
0000000007FE00
000000003FFF80
00000001FFFFC0
0000000FFFFFF0
0000007FFFFFF8
000001FFFFFFFC
000007FFFFFFFC
00003FFFFFFFFE
00007FFFFFFFFE
0001FFFFFFFFF8
0007FFFFFFFF80
001FFFFFFFFC00
003FFFFFFFC000
00FFFFFFFE0000
01FFFFFFF00000
03FFFFFF000000
07FFFFF8000000
07FFFFC0000000
0FFFFE00000000
0FFFF000000000
1FFF0000000000
3FF80000000000
3FE00000000000
7F000000000000
78000000000000
C0000000000000
ENDCHAR
STARTCHAR period
ENCODING 46
SWIDTH 510 0
DWIDTH 69 0
BBX 22 35 23 0
BITMAP
200000
200000
300000
700000
780000
7C0000
7C0000
7E0000
7E0000
7F0000
7F8000
7F8000
7FC000
7FC000
7FE000
7FE000
FFF000
FFF800
FFF800
FFFC00
7FFC00
3FFE00
1FFE00
07FF00
03FF80
00FF80
007FC0
001FC0
000FE0
0007E0
0001F0
0000F8
000038
00001C
000004
ENDCHAR
STARTCHAR zero
ENCODING 48
SWIDTH 510 0
DWIDTH 69 0
BBX 52 135 10 -1
BITMAP
00000000060000
000000001F8000
000800003FF000
00180000FFFC00
00780003FFFF80
00F80007FFFFE0
03F8001FFFFFF0
07F8007FFFFFE0
07F800FFFFFFC0
07F801FFFFFF80
07F801FFFFF800
07F801FFF80000
07F801FFF80000
07F801FFF80000
07F801FFF80000
07F801FFF80000
07F801FFF80000
07F801FFF80000
07F801FFF80000
0FF801FFF80000
0FF801FFF80000
0FF801FFF80000
0FF801FFF80000
0FF801FFF80000
0FF801FFF80000
0FF801FFF80000
0FF801FFF00000
0FF801FFF00000
0FF801FFF00000
0FFC01FFF00000
0FFC01FFF00000
0FFC01FFF00000
0FFC01FFF00000
0FFC01FFF00000
0FFC01FFF00000
1FFC01FFF00000
1FFC01FFF00000
1FFC01FFF00000
1FFC01FFF00000
1FFC01FFF00000
1FFC01FFF00000
1FFC01FFF00000
1FFC01FFE00000
1FFC01FFE00000
1FFC01FFE00000
1FFC01FFE00000
1FFC01FFE00000
1FFC01FFE00000
1FFC01FFE00000
1FFC01FFE00000
3FFC01FFE00000
3FFC01FFE00000
3FFC01FFE00000
3FFC01FFE00000
3FFC01FFE00000
3FFC01FFE00000
3FFC01FFE00000
3FFC01FFE00000
3FFC01FFE00000
3FFC01FFC00000
3FFC01FFC00000
3FFC01FFC00000
3FFC01FFC00000
3FFC01FFC00000
7FFC01FFC00000
7FFC01FFC00000
7FFC01FFC00000
7FFC01FFC00000
7FFC01FFC00000
7FFC01FFC00000
7FFC01FFC00000
7FFC01FFC00000
7FFC01FFC00000
7FFC01FFC00000
7FFC01FFC00000
7FFC01FFC00000
7FFC01FF800000
7FFC01FF800000
7FFC01FF800000
FFFC01FF800000
FFFC01FF800000
FFFC01FF800000
FFFC01FF800000
FFFC01FF800000
FFFC01FF800000
FFFC01FF800000
FFFC01FF800000
FFF001FF800000
FFE001FF800000
FF8001FF800000
FF0001FF800000
FC0001FF800000
F80001FF800000
E00001FF000000
800001FF000000
000001FF000000
000001FF000000
000001FF000000
000001FF000000
000001FF000000
000001FF000000
000001FF000000
000001FF000000
000001FF000000
000001FF000000
000001FF000000
000001FF000000
000001FF000000
000001FF000000
000001FE000000
000001FE000000
000001FE000000
000001FE000000
000001FE000000
000001FE000000
000001FE000000
000001FE000000
000001FE000000
000001FE000000
000001FE000000
000001FE000000
000001FE000000
000001FE000000
000001FE000000
000001FE000000
000001FE000000
000001FC000000
000001FC000000
000001FC000000
000001FC000000
000001F8000000
000001F0000000
000001C0000000
00000180000000
00000100000000
ENDCHAR
STARTCHAR one
ENCODING 49
SWIDTH 510 0
DWIDTH 69 0
BBX 67 134 1 0
BITMAP
000000080200000000
000000180380000000
0000007803C0000000
000000F803E0000000
000003F803F8000000
000003F803F8000000
000003F803F8000000
000003F803FC000000
000003F803FC000000
000003F803FC000000
000007F803FC000000
000007F803FC000000
000007F803FC000000
000007F803FC000000
000007F803FC000000
000007F803FC000000
000007F803FC000000
000007F803FC000000
000007F803FC000000
000007F803FC000000
000007F803FC000000
000007F803FC000000
000007F803FE000000
000007F803FE000000
000007F803FE000000
000007F803FE000000
00000FF803FE000000
00000FF803FE000000
00000FF803FE000000
00000FF803FE000000
00000FF803FE000000
00000FF803FE000000
00000FF803FE000000
00000FF803FE000000
00000FF803FE000000
00000FF803FE000000
00000FF803FE000000
00000FF803FE000000
00000FF803FE000000
00000FF803FF000000
00000FF803FF000000
00000FF803FF000000
00001FF803FF000000
00001FF803FF000000
00001FF803FF000000
00001FF803FF000000
00001FF803FF000000
00001FF803FF000000
00001FF803FF000000
00001FF803FF000000
00001FF803FF000000
00001FF803FF000000
00001FF803FF000000
00001FF803FF000000
00001FF803FF000000
00001FF803FF800000
00001FF803FF800000
00001FF803FF800000
00001FF803FF800000
00003FF803FF800000
00003FF803FF800000
00003FF803FF800000
00003FF803FF800000
00003FF803FF800000
00003FF803FF800000
00003FF803FF800000
00003FF803FF800000
00003FF803FF800000
00003FF803FF800000
00003FF803FF800000
00003FF803FF800000
00003FF803FF800000
00003FF803FFC00000
00003FF803FFC00000
00003FF803FFC00000
00007FF803FFC00000
00007FF803FFC00000
00007FF803FFC00000
00007FF803FFC00000
00007FF803FFC00000
00007FF803FFC00000
00007FF803FFC00000
00007FF803FFC00000
00007FF803FFC00000
00007FF803FFC00000
00007FF803FFC00000
00007FF803FFC00000
00007FF803FFC00000
00007FF803FFE00000
00007FF803FFE00000
00007FF803FFE00000
00007FF803FFE00000
0000FFF803FFE00000
0000FFF803FFE00000
0000FFF803FFE00000
0000FFF803FFE00000
0000FFF803FFE00000
0000FFF803FFE00000
0000FFF803FFE00000
0000FFF803FFE00000
0000FFF803FFE00000
0000FFF803FFE00000
0000FFF803FFE00000
0000FFF803FFE00000
0000FFF803FFE00000
0000FFF803FFF00000
0000FFF803FFF00000
0000FFF803FFF00000
0000FFF803FFF00000
0001FFF803FFF00000
0001FFF803FFF00000
0001FFF803FFF00000
0001FFF803FFF00000
0001FFF803FFF00000
0001FFF803FFF00000
0001FFF803FFF00000
0001FFF803FFF00000
0001FFF803FFF00000
0001FFF803FFF00000
0001FFF803FFF00000
0001FFF803FFF00000
0001FFF803FFF80000
0001FFF803FFF80000
000FFFF803FFFE0000
07FFFFF803FFFFFC00
1FFFFFF803FFFFFF80
7FFFFFF000FFFFFFC0
FFFFFFC0007FFFFFE0
FFFFFF00001FFFFFE0
7FFFFE000007FFFFC0
0FFFF8000003FFFE00
03FFE0000000FFF800
007FC00000003FC000
000F000000001F0000
ENDCHAR
STARTCHAR two
ENCODING 50
SWIDTH 510 0
DWIDTH 69 0
BBX 37 134 16 0
BITMAP
1000000000
1C00000000
1E00000000
1F00000038
1FC00000F8
3FE00001F8
3FE00007F8
3FE0000FF0
3FE0003FF0
3FE0007FF0
3FE001FFF0
3FE003FFF0
3FE003FFF0
3FE003FFF0
3FE003FFF0
3FE003FFF0
3FE003FFF0
3FE003FFF0
3FE003FFF0
3FE003FFF0
3FE003FFF0
3FE003FFF0
3FE003FFF0
3FE003FFF0
3FE003FFF0
3FE003FFF0
3FE003FFF0
3FE003FFF0
3FE003FFF0
3FE003FFE0
3FE003FFE0
3FE003FFE0
3FE003FFE0
3FE003FFE0
3FE003FFE0
3FE003FFE0
3FE003FFE0
3FE003FFE0
3FE003FFE0
3FF003FFE0
3FF003FFE0
3FF003FFE0
3FF003FFE0
3FF003FFE0
3FF003FFE0
3FF003FFE0
7FF003FFE0
7FF003FFE0
7FF003FFE0
7FF003FFE0
7FF003FFE0
7FF003FFC0
7FF003FFC0
7FF003FFC0
7FF003FFC0
7FF003FFC0
7FF003FFC0
7FF003FFC0
7FF003FFC0
7FF003FFC0
7FF003FFC0
7FF003FFC0
7FF003FFC0
7FF003FFC0
7FF003FFC0
7FF003FFC0
7FF003FFC0
7FF803FF80
7FF803FF80
7FF803FF80
7FF803FF80
7FF801FF80
7FF801FF80
7FF801FF80
7FF801FF80
7FF801FF80
7FF801FF80
7FF801FF80
7FF801FF80
7FF801FF80
7FF801FF80
7FF801FF80
7FF801FF80
7FF801FF80
7FF801FF00
7FF801FF00
7FF801FF00
7FF801FF00
7FF801FF00
7FF801FF00
7FF801FF00
7FF801FF00
7FF801FF00
7FF801FF00
FFF801FF00
FFF801FF00
FFFC01FF00
FFFC01FF00
FFFC01FF00
FFFC01FF00
FFFC01FE00
FFFC01FE00
FFFC01FE00
FFFC01FE00
FFFC01FE00
FFFC01FE00
FFFC01FE00
FFFC01FE00
FFFC01FC00
FFFC01F000
FFFC01E000
FFFC00C000
FFFC000000
FFFC000000
FFFC000000
FFFC000000
FFFC000000
FFFC000000
FFFC000000
FFFC000000
FFFC000000
FFFC000000
FFFE000000
FFFFC00000
FFFFFF0000
7FFFFFC000
3FFFFFF000
0FFFFFF800
03FFFFF800
01FFFFE000
007FFF0000
003FFC0000
000FE00000
0003000000
ENDCHAR
STARTCHAR three
ENCODING 51
SWIDTH 510 0
DWIDTH 69 0
BBX 67 134 1 0
BITMAP
000E000000001E0000
007F800000003F8000
01FFC0000000FFF000
0FFFF0000003FFFC00
3FFFFC000007FFFF80
FFFFFF00001FFFFFE0
FFFFFF80007FFFFFE0
7FFFFFE000FFFFFFC0
3FFFFFF803FFFFFF80
1FFFFFF803FFFFFE00
003FFFF803FFFF8000
0003FFF803FFF80000
0003FFF803FFF00000
0003FFF803FFF00000
0001FFF803FFF00000
0001FFF803FFF00000
0001FFF803FFF00000
0001FFF803FFF00000
0001FFF803FFF00000
0001FFF803FFF00000
0001FFF803FFF00000
0001FFF803FFF00000
0001FFF803FFF00000
0001FFF803FFF00000
0001FFF803FFE00000
0001FFF803FFE00000
0001FFF803FFE00000
0001FFF803FFE00000
0001FFF803FFE00000
0001FFF803FFE00000
0000FFF803FFE00000
0000FFF803FFE00000
0000FFF803FFE00000
0000FFF803FFE00000
0000FFF803FFE00000
0000FFF803FFE00000
0000FFF803FFE00000
0000FFF803FFE00000
0000FFF803FFE00000
0000FFF803FFE00000
0000FFF803FFC00000
0000FFF803FFC00000
0000FFF803FFC00000
0000FFF803FFC00000
0000FFF803FFC00000
0000FFF803FFC00000
0000FFF803FFC00000
00007FF803FFC00000
00007FF803FFC00000
00007FF803FFC00000
00007FF803FFC00000
00007FF803FFC00000
00007FF803FFC00000
00007FF803FFC00000
00007FF803FFC00000
00007FF803FFC00000
00007FF803FFC00000
00007FF803FFC00000
00007FF803FF800000
00007FF803FF800000
00007FF803FF800000
00007FF803FF800000
00007FF803FF800000
00007FF803FF800000
00003FF803FF800000
00003FF803FF800000
00003FF803FF800000
00003FF803FF800000
00003FF803FF800000
00003FF803FF800000
00003FF803FF800000
00003FF803FF800000
00003FF803FF800000
00003FF803FF800000
00003FF803FF000000
00003FF803FF000000
00003FF803FF000000
00003FF803FF000000
00003FF803FF000000
00003FF803FF000000
00001FF803FF000000
00001FF803FF000000
00001FF803FF000000
00001FF803FF000000
00001FF803FF000000
00001FF803FF000000
00001FF803FF000000
00001FF803FF000000
00001FF803FF000000
00001FF803FF000000
00001FF803FF000000
00001FF803FE000000
00001FF803FE000000
00001FF803FE000000
00001FF803FE000000
00001FF803FE000000
00001FF803FE000000
00000FF803FE000000
00000FF803FE000000
00000FF803FE000000
00000FF803FE000000
00000FF803FE000000
00000FF803FE000000
00000FF803FE000000
00000FF803FE000000
00000FF803FE000000
00000FF803FE000000
00000FF803FC000000
00000FF803FC000000
00000FF803FC000000
00000FF803FC000000
00000FF803FC000000
00000FF803FC000000
00000FF803FC000000
000007F803FC000000
000007F803FC000000
000007F803FC000000
000007F803FC000000
000007F803FC000000
000007F803FC000000
000007F803FC000000
000007F803FC000000
000007F803FC000000
000007F803F8000000
000007F803F8000000
000007F803F8000000
000007F803F8000000
000007F803F8000000
000003F803F8000000
000003F803F8000000
000001F803F0000000
0000007803C0000000
000000380380000000
000000180200000000
ENDCHAR
STARTCHAR four
ENCODING 52
SWIDTH 510 0
DWIDTH 69 0
BBX 37 134 16 0
BITMAP
0007800000
000FE00000
003FFC0000
007FFF8000
01FFFFE000
07FFFFF800
0FFFFFF800
3FFFFFF000
7FFFFFC000
FFFFFE0000
FFFF800000
FFFE000000
FFFC000000
FFFC000000
FFFC000000
FFFC000000
FFFC000000
FFFC000000
FFFC000000
FFFC000000
FFFC000000
FFFC000000
FFFC00C000
FFFC01E000
FFFC01F800
FFFC01FC00
FFFC01FE00
FFFC01FE00
FFFC01FE00
FFFC01FE00
FFFC01FE00
FFFC01FE00
FFFC01FE00
FFFC01FE00
FFFC01FF00
FFFC01FF00
FFFC01FF00
FFFC01FF00
FFF801FF00
FFF801FF00
7FF801FF00
7FF801FF00
7FF801FF00
7FF801FF00
7FF801FF00
7FF801FF00
7FF801FF00
7FF801FF00
7FF801FF00
7FF801FF00
7FF801FF80
7FF801FF80
7FF801FF80
7FF801FF80
7FF801FF80
7FF801FF80
7FF801FF80
7FF801FF80
7FF801FF80
7FF801FF80
7FF801FF80
7FF801FF80
7FF801FF80
7FF801FF80
7FF803FF80
7FF803FF80
7FF803FFC0
7FF003FFC0
7FF003FFC0
7FF003FFC0
7FF003FFC0
7FF003FFC0
7FF003FFC0
7FF003FFC0
7FF003FFC0
7FF003FFC0
7FF003FFC0
7FF003FFC0
7FF003FFC0
7FF003FFC0
7FF003FFC0
7FF003FFC0
7FF003FFC0
7FF003FFE0
7FF003FFE0
7FF003FFE0
7FF003FFE0
7FF003FFE0
3FF003FFE0
3FF003FFE0
3FF003FFE0
3FF003FFE0
3FF003FFE0
3FF003FFE0
3FE003FFE0
3FE003FFE0
3FE003FFE0
3FE003FFE0
3FE003FFE0
3FE003FFE0
3FE003FFE0
3FE003FFE0
3FE003FFE0
3FE003FFE0
3FE003FFE0
3FE003FFF0
3FE003FFF0
3FE003FFF0
3FE003FFF0
3FE003FFF0
3FE003FFF0
3FE003FFF0
3FE003FFF0
3FE003FFF0
3FE003FFF0
3FE003FFF0
3FE003FFF0
3FE003FFF0
3FE003FFF0
3FE003FFF0
3FE003FFF0
3FE003FFF0
3FE003FFF0
3FE001FFF0
3FE0007FF0
3FE0003FF0
3FE0000FF8
3FE00007F8
3FE00001F8
1FC0000078
1F00000038
1E00000000
1C00000000
1000000000
ENDCHAR
STARTCHAR five
ENCODING 53
SWIDTH 510 0
DWIDTH 69 0
BBX 64 134 2 0
BITMAP
001F00000001F000
007FC0000003FE00
03FFE000000FFF80
1FFFF800003FFFF0
7FFFFC00007FFFFE
FFFFFF0001FFFFFF
7FFFFFC003FFFFFE
7FFFFFE00FFFFFFC
1FFFFFF81FFFFFF8
01FFFFF81FFFFF80
0007FFF81FFFC000
0003FFF81FFF8000
0003FFF81FFF8000
0003FFF81FFF8000
0003FFF81FFF8000
0003FFF81FFF8000
0001FFF81FFF8000
0001FFF81FFF8000
0001FFF81FFF8000
0001FFF81FFF8000
0001FFF81FFF8000
0001FFF81FFF8000
0001FFF81FFF8000
0001FFF81FFF8000
0001FFF81FFF0000
0001FFF81FFF0000
0001FFF81FFF0000
0001FFF81FFF0000
0001FFF81FFF0000
0001FFF81FFF0000
0001FFF81FFF0000
0001FFF81FFF0000
0001FFF81FFF0000
0001FFF81FFF0000
0001FFF81FFF0000
0000FFF81FFF0000
0000FFF81FFF0000
0000FFF81FFF0000
0000FFF81FFF0000
0000FFF81FFF0000
0000FFF81FFF0000
0000FFF81FFF0000
0000FFF81FFF0000
0000FFF81FFF0000
0000FFF81FFF0000
0000FFF81FFE0000
0000FFF81FFE0000
0000FFF81FFE0000
0000FFF81FFE0000
0000FFF81FFE0000
0000FFF81FFE0000
0000FFF01FFE0000
0000FFF01FFE0000
0000FFF01FFE0000
0000FFF01FFE0000
0000FFF01FFE0000
0000FFF01FFE0000
00007FF01FFE0000
00007FF01FFE0000
00007FF01FFE0000
00007FF01FFE0000
00007FF01FFE0000
00007FF01FFE0000
00007FF01FFE0000
00007FF01FFE0000
00007FF01FFE0000
00007FF01FFE0000
00007FF01FFC0000
00007FF01FFC0000
00007FF01FFC0000
00007FF01FFC0000
00007FF01FFC0000
00007FF01FFC0000
00007FF01FFC0000
00007FF01FFC0000
00007FF01FFC0000
00007FF01FFC0000
00007FF01FFC0000
00007FF01FFC0000
00007FF01FFC0000
00003FF01FFC0000
00003FF01FFC0000
00003FF01FFC0000
00003FF01FFC0000
00003FF01FFC0000
00003FF01FFC0000
00003FF01FFC0000
00003FF00FFC0000
00003FF00FFC0000
00003FF00FFC0000
00003FF00FF80000
00003FF00FF80000
00003FF00FF80000
00003FF00FF80000
00003FF00FF80000
00003FF00FF80000
00003FF00FF80000
00003FF00FF80000
00003FF00FF80000
00003FF00FF80000
00003FF00FF80000
00003FF00FF80000
00003FF00FF80000
00001FF00FF80000
00001FF00FF80000
00001FF00FF80000
00001FF00FF80000
00001FF00FF80000
00001FF00FF80000
00001FF00FF80000
00001FF00FF80000
00001FE00FF80000
00001FE00FF80000
00001FE00FF80000
00001FE00FF80000
00001FE00FF00000
00001FE00FF00000
00001FE00FF00000
00001FE00FF00000
00001FE00FF00000
00001FE00FF00000
00001FE00FF00000
00001FE00FF00000
001FFFE00FFFF000
0FFFFFE00FFFFFC0
3FFFFFE007FFFFF8
7FFFFF8003FFFFFC
7FFFFF0000FFFFFE
FFFFFC00007FFFFF
7FFFF800001FFFFC
0FFFF000000FFFE0
01FFC0000007FF00
003F80000001FC00
000E00000000E000
ENDCHAR
STARTCHAR six
ENCODING 54
SWIDTH 510 0
DWIDTH 69 0
BBX 30 134 19 0
BITMAP
0007C000
000FF800
003FFF00
007FFFC0
01FFFFF8
07FFFFFC
0FFFFFF8
3FFFFFF0
7FFFFFE0
FFFFFE00
FFFF8000
FFFE0000
FFFE0000
FFFE0000
7FFE0000
7FFE0000
7FFE0000
7FFE0000
7FFE0000
7FFE0000
7FFE0000
7FFE0000
7FFE0000
7FFE0000
7FFE0000
7FFE0000
7FFE0000
7FFE0000
7FFC0000
7FFC0000
7FFC0000
7FFC0000
7FFC0000
7FFC0000
7FFC0000
7FFC0000
7FFC0000
7FFC0000
7FFC0000
7FFC0000
7FFC0000
7FFC0000
7FFC0000
7FFC0000
7FFC0000
7FFC0000
7FFC0000
7FFC0000
7FFC0000
7FF80000
7FF80000
7FF80000
7FF80000
7FF80000
7FF80000
7FF80000
7FF80000
7FF80000
7FF80000
7FF80000
7FF80000
7FF80000
7FF80000
7FF80000
7FF80000
7FF80000
7FF80000
7FF80000
7FF80000
7FF80000
3FF80000
3FF80000
3FF00000
3FF00000
3FF00000
3FF00000
3FF00000
3FF00000
3FF00000
3FF00000
3FF00000
3FF00000
3FF00000
3FF00000
3FF00000
3FF00000
3FF00000
3FF00000
3FF00000
3FF00000
3FF00000
3FF00000
3FF00000
3FF00000
3FF00000
3FE00000
3FE00000
3FE00000
3FE00000
3FE00000
3FE00000
3FE00000
3FE00000
3FE00000
3FE00000
3FE00000
3FE00000
3FE00000
3FE00000
3FE00000
3FE00000
3FE00000
3FE00000
3FE00000
3FE00000
3FE00000
3FE00000
3FE00000
3FE00000
3FE00000
3FE00000
3FE00000
3FC00000
3FFFC000
3FFFFF80
1FFFFFE0
07FFFFF0
03FFFFF8
01FFFFFC
007FFFF0
003FFF80
000FFE00
0007F000
00018000
ENDCHAR
STARTCHAR seven
ENCODING 55
SWIDTH 510 0
DWIDTH 69 0
BBX 67 134 1 0
BITMAP
0000000000001E0000
0000000000007FC000
000000000000FFF000
000000000003FFFE00
000000000007FFFF80
00000000001FFFFFE0
00000000007FFFFFE0
0000000801FFFFFFC0
0000001803FFFFFF80
0000003803FFFFFE00
000000F803FFFF0000
000001F803FFF00000
000003F803FFF00000
000003F803FFF00000
000007F803FFF00000
000007F803FFF00000
000007F803FFF00000
000007F803FFF00000
000007F803FFF00000
000007F803FFF00000
000007F803FFF00000
000007F803FFF00000
000007F803FFF00000
000007F803FFE00000
000007F803FFE00000
000007F803FFE00000
000007F803FFE00000
000007F803FFE00000
00000FF803FFE00000
00000FF803FFE00000
00000FF803FFE00000
00000FF803FFE00000
00000FF803FFE00000
00000FF803FFE00000
00000FF803FFE00000
00000FF803FFE00000
00000FF803FFE00000
00000FF803FFE00000
00000FF803FFE00000
00000FF803FFC00000
00000FF803FFC00000
00000FF803FFC00000
00000FF803FFC00000
00001FF803FFC00000
00001FF803FFC00000
00001FF803FFC00000
00001FF803FFC00000
00001FF803FFC00000
00001FF803FFC00000
00001FF803FFC00000
00001FF803FFC00000
00001FF803FFC00000
00001FF803FFC00000
00001FF803FFC00000
00001FF803FFC00000
00001FF803FF800000
00001FF803FF800000
00001FF803FF800000
00001FF803FF800000
00003FF803FF800000
00003FF803FF800000
00003FF803FF800000
00003FF803FF800000
00003FF803FF800000
00003FF803FF800000
00003FF803FF800000
00003FF803FF800000
00003FF803FF800000
00003FF803FF800000
00003FF803FF800000
00003FF803FF000000
00003FF803FF000000
00003FF803FF000000
00003FF803FF000000
00003FF803FF000000
00007FF803FF000000
00007FF803FF000000
00007FF803FF000000
00007FF803FF000000
00007FF803FF000000
00007FF803FF000000
00007FF803FF000000
00007FF803FF000000
00007FF803FF000000
00007FF803FF000000
00007FF803FF000000
00007FF803FE000000
00007FF803FE000000
00007FF803FE000000
00007FF803FE000000
00007FF803FE000000
0000FFF803FE000000
0000FFF803FE000000
0000FFF803FE000000
0000FFF803FE000000
0000FFF803FE000000
0000FFF803FE000000
0000FFF803FE000000
0000FFF803FE000000
0000FFF803FE000000
0000FFF803FE000000
0000FFF803FC000000
0000FFF803FC000000
0000FFF803FC000000
0000FFF803FC000000
0000FFF803FC000000
0000FFF803FC000000
0001FFF803FC000000
0001FFF803FC000000
0001FFF803FC000000
0001FFF803FC000000
0001FFF803FC000000
0001FFF803FC000000
0001FFF803FC000000
0001FFF803FC000000
0001FFF803FC000000
0001FFF803F8000000
0001FFF803F8000000
0001FFF803F8000000
0001FFF803F8000000
0001FFF803F8000000
0001FFF803F8000000
0001FFF803F8000000
000FFFF803F8000000
1FFFFFF803E0000000
3FFFFFF803C0000000
7FFFFFE00380000000
FFFFFFC00200000000
FFFFFF000000000000
7FFFFC000000000000
0FFFF8000000000000
03FFE0000000000000
007F80000000000000
000F00000000000000
ENDCHAR
STARTCHAR eight
ENCODING 56
SWIDTH 510 0
DWIDTH 69 0
BBX 30 135 19 -3
BITMAP
08000000
0C000000
1E000000
1F800000
1FC00000
1FE00000
1FE00000
1FE00000
1FE00000
1FE00000
1FE00000
1FE00000
1FE00000
1FE00000
1FE00000
1FE00000
1FE00000
1FE00000
1FE00000
1FE00000
1FE00000
1FE00000
1FE00000
1FE00000
1FF00000
1FF00000
1FF00000
1FF00000
1FF00000
1FF00000
1FF00000
1FF00000
1FF00000
3FF00000
3FF00000
3FF00000
3FF00000
3FF00000
3FF00000
3FF00000
3FF00000
3FF00000
3FF00000
3FF00000
3FF00000
3FF00000
3FF00000
3FF00000
3FF00000
3FF80000
3FF80000
3FF80000
3FF80000
3FF80000
3FF80000
3FF80000
3FF80000
3FF80000
3FF80000
3FF80000
3FF80000
3FF80000
3FF80000
3FF80000
3FF80000
3FF80000
3FF80000
3FF80000
3FF80000
3FF80000
3FF80000
3FF80000
3FF80000
3FF80000
3FF80000
3FFC0000
3FFC0000
3FFC0000
3FFC0000
3FFC0000
3FFC0000
3FFC0000
7FFC0000
7FFC0000
7FFC0000
7FFC0000
7FFC0000
7FFC0000
7FFC0000
7FFC0000
7FFC0000
7FFC0000
7FFC0000
7FFC0000
7FFC0000
7FFC0000
7FFC0000
7FFC0000
7FFC0000
7FFC0000
7FFC0000
7FFC0000
7FFC0000
7FFE0000
7FFE0000
7FFE0000
7FFE0000
7FFE0000
7FFE0000
7FFE0000
7FFE0000
7FFE0000
7FFE0000
7FFE0000
7FFE0000
7FFE0000
7FFE0000
7FFE0000
7FFE0000
7FFE0000
7FFE0000
7FFE0000
7FFE0000
7FFE0000
FFFFF800
FFFFFFC0
3FFFFFF0
0FFFFFF8
07FFFFFC
01FFFFFC
00FFFFE0
003FFF80
000FFC00
0007E000
00018000
ENDCHAR
STARTCHAR nine
ENCODING 57
SWIDTH 510 0
DWIDTH 69 0
BBX 51 134 9 0
BITMAP
100000000E0000
1C0000003FC000
1E000000FFF800
1F000003FFFE00
3FC00007FFFFC0
3FC0001FFFFFE0
3FC0003FFFFFC0
3FC000FFFFFF80
3FC003FFFFFF00
3FC003FFFFFC00
3FC003FFFE0000
3FC003FFF80000
3FC003FFF80000
3FC003FFF00000
3FC003FFF00000
3FC003FFF00000
3FC003FFF00000
3FC003FFF00000
3FC003FFF00000
3FC003FFF00000
3FE003FFF00000
3FE003FFF00000
3FE003FFF00000
3FE003FFF00000
3FE003FFF00000
3FE003FFF00000
3FE003FFF00000
3FE003FFF00000
3FE003FFF00000
3FE003FFF00000
3FE003FFF00000
3FE003FFF00000
3FE003FFF00000
3FE003FFF00000
3FE003FFF00000
3FE003FFF00000
3FE003FFF00000
3FE003FFF00000
3FE003FFF00000
3FE001FFF00000
3FE001FFF00000
3FE001FFF00000
7FE001FFF00000
7FE001FFE00000
7FF001FFE00000
7FF001FFE00000
7FF001FFE00000
7FF001FFE00000
7FF001FFE00000
7FF001FFE00000
7FF001FFE00000
7FF001FFE00000
7FF001FFE00000
7FF001FFE00000
7FF001FFE00000
7FF001FFE00000
7FF001FFE00000
7FF001FFE00000
7FF001FFE00000
7FF001FFE00000
7FF001FFE00000
7FF001FFE00000
7FF001FFE00000
7FF001FFE00000
7FF001FFE00000
7FF001FFE00000
7FF001FFE00000
7FF001FFE00000
7FF001FFE00000
7FF001FFE00000
7FF801FFE00000
7FF801FFC00000
7FF801FFC00000
7FF801FFC00000
7FF801FFC00000
7FF801FFC00000
7FF801FFC00000
7FF801FFC00000
7FF801FFC00000
7FF801FFC00000
7FF801FFC00000
7FF801FFC00000
7FF801FFC00000
7FF801FFC00000
7FF801FFC00000
7FF801FFC00000
7FF800FFC00000
7FF800FFC00000
7FF800FFC00000
7FF800FFC00000
7FF800FFC00000
FFF800FF800000
FFF800FF800000
FFF800FF800000
FFF800FF800000
FFF800FF800000
FFF800FF800000
FFF800FF800000
FFFC00FF800000
FFFC00FF800000
FFFC00FF800000
FFFC00FF800000
FFFC00FF000000
FFFC00FF000000
FFFC00FF000000
FFFC00FF000000
FFFC00FF000000
FFFC00FF000000
FFFC00FF000000
FFFC00FE000000
FFFC00FC000000
FFFC00F0000000
FFFC00E0000000
FFFC0040000000
FFFC0000000000
FFFC0000000000
FFFC0000000000
FFFC0000000000
FFFC0000000000
FFFC0000000000
FFFC0000000000
FFFC0000000000
FFFC0000000000
FFFFC000000000
FFFFFF00000000
7FFFFFE0000000
3FFFFFF0000000
0FFFFFF8000000
03FFFFF8000000
01FFFFE0000000
007FFF80000000
003FFC00000000
000FE000000000
00038000000000
ENDCHAR
STARTCHAR colon
ENCODING 58
SWIDTH 510 0
DWIDTH 69 0
BBX 23 70 23 38
BITMAP
000004
00000C
00000C
00001C
00003C
00003C
00007C
00007C
0000FC
0000FC
0001FE
0003FE
0003FE
0007FE
0007FE
000FFE
000FFE
001FFE
003FFE
003FFE
007FFE
007FF8
00FFF0
01FFE0
01FF80
03FF00
03FC00
07F800
07F000
0FC000
1F8000
1E0000
3C0000
300000
600000
000000
000010
000038
000038
000078
000078
0000F8
0001F8
0001F8
0003F8
0003F8
0007F8
0007F8
000FF8
001FF8
001FFC
003FFC
003FFC
007FFC
00FFFC
00FFF8
01FFF0
01FFE0
03FFC0
03FF00
07FE00
0FF800
0FF000
1FC000
1F8000
3E0000
3C0000
780000
E00000
C00000
ENDCHAR
STARTCHAR semicolon
ENCODING 59
SWIDTH 510 0
DWIDTH 69 0
BBX 25 105 22 3
BITMAP
00000200
00000200
00000700
00000700
00000F00
00000F00
00001F00
00003F00
00003F00
00007F00
00007F00
0000FF00
0001FF00
0001FF00
0003FF80
0003FF80
0007FF80
0007FF80
000FFF80
001FFF80
001FFF00
003FFE00
003FFC00
007FF000
007FE000
00FFC000
01FF0000
01FE0000
03F80000
03F00000
07C00000
07800000
0E000000
1C000000
10000000
00000400
00000400
00000C00
00001C00
00001C00
00003C00
00003E00
00007E00
0000FE00
0000FE00
0001FE00
0001FE00
0003FE00
0003FE00
0007FE00
000FFE00
000FFE00
001FFE00
001FFE00
003FFE00
003FFE00
007FFC00
00FFF800
00FFE000
01FFC000
01FF0000
03FE0000
03F80000
07F00000
0FE00000
0F800000
1F000000
1C000000
38000000
20000000
00000800
00001800
00001800
00003800
00003800
00007800
0000F800
0000F800
0001F800
0001F800
0003FC00
0007FC00
0007FC00
000FFC00
000FFC00
001FFC00
001FFC00
003FFC00
007FFC00
007FFC00
00FFFC00
00FFF800
01FFE000
01FFC000
03FF8000
07FE0000
07FC0000
0FF00000
0FE00000
1F800000
1F000000
3C000000
78000000
60000000
C0000000
ENDCHAR
STARTCHAR question
ENCODING 63
SWIDTH 510 0
DWIDTH 69 0
BBX 51 135 9 0
BITMAP
00000000E00000
00000FFFF00000
001FFFFFF80000
3FFFFFFFFC0000
FFFFFFFFFF0000
FFFFFFFFFF8000
FFFFFFFFFFC000
FFFFFFFFFFF000
FFFFFFFFFFF800
7FFFFFFFFFFC00
7FC1FFFFFFFE00
7F8001FFFFFF80
7F800007FFFFC0
7F8000001FFFC0
7F0000000FFFE0
7F0000000FFFE0
7F0000000FFFE0
7E0000000FFFE0
3C0000000FFFC0
300000000FFFC0
000000000FFFC0
000000000FFFC0
000000000FFFC0
000000000FFFC0
000000000FFFC0
000000000FFFC0
0000000007FFC0
0000000007FFC0
0000000007FFC0
0000000007FFC0
0000000007FFC0
0000000007FFC0
0000000007FF80
0000000007FF80
0000000007FF80
0000000007FF80
0000000007FF80
0000000007FF80
0000000007FF80
0000000007FF00
000000000FFF00
000000000FFE00
000000001FFE00
000000001FFE00
000000001FFC00
000000003FFC00
000000003FF800
000000007FF800
000000007FF000
000000007FF000
00000000FFF000
00000000FFE000
00000001FFE000
00000001FFC000
00000003FFC000
00000003FFC000
00000003FF8000
00000007FF8000
00000007FF0000
0000000FFF0000
0000000FFE0000
0000000FFE0000
0000001FFE0000
0000001FFC0000
0000003FFC0000
0000003FF80000
0000007FF80000
0000007FF80000
0000007FF00000
000000FFF00000
000000FFE00000
000001FFE00000
000001FFC00000
000001FFC00000
000003FFC00000
000003FF800000
000007FF800000
000007FF000000
00000FFF000000
00000FFF000000
00000FFE000000
00001FFE000000
00001FFC000000
00001FFC000000
00001FFC000000
00001FFC000000
00001FFC000000
00001FFC000000
00001FFC000000
00001FFC000000
00001FFC000000
00001FFC000000
00001FFC000000
00001FFC000000
00001FFC000000
00001FFC000000
00001FFC000000
00001FFC000000
00001FFC000000
00001FFC000000
00001FFC000000
00001FFC000000
00001FF8000000
00001FF8000000
00001FF8000000
00000FF8000000
00000FF8000000
00000FF8000000
00000FF8000000
00000FF8000000
00000FF8000000
00000FF8000000
00000FF8000000
00000FF8000000
00000FF8000000
00000FF8000000
00000FF8000000
00000FF8000000
00000FF8000000
00000FF8000000
00000FF8000000
00000FF8000000
00000FF8000000
00000FF8000000
00000FF8000000
00000FF8000000
00000FF8000000
00000FF8000000
00000FF0000000
00000FF0000000
00000FE0000000
00000FC0000000
00000780000000
00000600000000
00000400000000
ENDCHAR
STARTCHAR at
ENCODING 64
SWIDTH 510 0
DWIDTH 69 0
BBX 53 134 8 1
BITMAP
00000000800000
00004001800000
0000C003800000
0000C007800000
0001C00F800000
0001C01F800000
0003C03F800000
0003C07F800000
0007C07F800000
0007C07F800000
000FC07F800000
000FC07F800000
000FC07F800000
001FC07F800000
001FC07F800000
001FC07F800000
001FC07F800000
001FC07F800000
003FC07F800000
003FC07F800000
003FC07F800000
003FC07F800000
003FC07F800000
003FC07F800000
007FC07F800000
007FC07F800000
007FC07F800000
007FC07F800000
007FC07F800000
00FFC07F800000
00FFC07F800000
00FFC07F800000
00FFC07F800000
00FFC07F800000
01FFC0FF800000
01FFC0FF800000
01FFC0FF800000
01FFC0FF800000
01FFC0FF800000
03FFC0FF800000
03FFC0FF800000
03FFC0FF800000
03FFC0FF800000
03FFC0FF800000
03FFC0FF800000
07FFC0FF800000
07FFC0FF800000
07FFC0FF800000
07FFC0FF800000
07FFC0FF800000
0FFFC0FF800000
0FFFC0FF800000
0FFFC0FF800000
0FFFC0FF800000
0FFFC0FF800000
1FFFC0FF800000
1FFFC0FF800000
1FFFC0FF800000
1FFFC0FF800000
1FFFC0FF800000
3FFFC0FF800000
3FFFC0FF800000
3FFFC0FF800000
3FFFC0FF800000
3FFFC1FF800000
3FFFC1FF800000
7FFFC1FF800000
7FFFC3FF800000
7FFFC3FF800000
7FFFC3FF800000
7FFFC7FF800000
FF3FC7FF800000
FC3FC7FF000000
F03FCFFF000000
E03FCFFF000000
801FCFFE000000
001FDFFE000000
001FDFFE000000
001FDFFC000000
001FFFFC000000
001FFFFC000000
001FFFFC000000
001FFFF8000000
001FFFF8000000
001FFFF8000000
001FFFF0000000
001FFFF0000000
001FFFF0000000
001FFFE0000000
000FFFE0000000
000FFFE0000000
000FFFE0000000
000FFFC0000000
000FFFC0000000
000FFFC0000000
000FFF80000000
000FFF80000000
000FFF80000000
000FFF80000000
000FFF00000000
001FFF00000000
001FFF00000000
001FFE00000000
003FFE00000000
003FFE00000000
003FFC00000000
007FFC00000000
007FFC00000000
007FFC00000000
00FFF800000000
00FFF800000000
00FFF800000000
01FFF000000000
01FFF000000000
01FFF000000030
03FFE0000000F0
03FFE0000001F0
03FFE0000003F0
07FFE0000007F0
07FFE0000007F0
03FFF0000007F0
01FFFF000007F0
00FFFFFC000FF8
007FFFFFF80FF8
003FFFFFFFFFF8
001FFFFFFFFFF8
000FFFFFFFFFF8
0007FFFFFFFFF8
0003FFFFFFFFF8
0001FFFFFFFFF8
0000FFFFFFFFF8
00007FFFFFF000
00003FFFE00000
00001FC0000000
ENDCHAR
STARTCHAR A
ENCODING 65
SWIDTH 510 0
DWIDTH 69 0
BBX 41 135 14 -1
BITMAP
000040000000
000040000000
0000C0000000
0001C00C0000
0001C00E0000
0003C00F8000
0003C00FC000
0007C00FE000
0007C00FF000
000FC00FF000
000FC00FF000
000FC00FF000
000FC00FF000
001FC00FF000
001FC00FF000
001FC00FF000
001FC00FF000
001FC00FF000
003FC00FF000
003FC00FF000
003FC00FF800
003FC00FF800
003FC00FF800
007FC00FF800
007FC00FF800
007FC00FF800
007FC00FF800
007FC00FF800
00FFC00FF800
00FFC00FF800
00FFC00FF800
00FFC00FF800
00FFC00FF800
01FFC00FF800
01FFC00FF800
01FFC00FF800
01FFC00FF800
01FFC00FF800
01FFC00FF800
03FFC00FF800
03FFC00FF800
03FFC00FF800
03FFC00FF800
03FFC00FF800
07FFC00FFC00
07FFC00FFC00
07FFC00FFC00
07FFC00FFC00
07FFC00FFC00
0FFFC00FFC00
0FFFC00FFC00
0FFFC00FFC00
0FFFC00FFC00
0FFFC00FFC00
1FFFC00FFC00
1FFFC00FFC00
1FFFC00FFC00
1FFFC00FFC00
1FFFC00FFC00
1FFFC00FFC00
3FFFC00FFC00
3FFFC00FFC00
3FFFC01FFC00
3FFFC01FFC00
3FFFC01FFC00
7FFFC01FFC00
7FFFC01FFE00
7FFFC01FFE00
7FFFC01FFE00
7FFFC01FFE00
FF3FC01FFE00
FC3FC01FFE00
F03FC01FFE00
E01FC01FFE00
801FC01FFE00
001FC01FFE00
001FC01FFE00
001FC01FFE00
001FC01FFE00
001FC01FFE00
001FC01FFE00
001FC01FFE00
001FC01FFE00
001FC01FFE00
001FC01FFE00
001FC01FFE00
000FC01FFE00
000FC01FFE00
000FC01FFE00
000FC01FFE00
000FC01FFF00
000FC01FFF00
000FC01FFF00
000FC01FFF00
000FC01FFF00
000FC01FFF00
000FC01FFF00
0003C01FFF00
0000401FFF00
0000001FFF00
0000001FFF00
0000001FFF00
0000001FFF00
0000001FFF00
0000001FFF00
0000001FFF00
0000001FFF00
0000001FFF00
0000001FFF00
0000001FFF00
0000001FFF00
0000001FFF00
0000001FFF00
0000001FFF00
0000001FFF00
0000001FFF00
0000001FFF80
0000001FFF80
0000001FFF80
0000001FFF80
0000001FFF80
0000001FFF80
0000001FFF80
0000001FFF80
0000001FFF80
0000001FFF80
0000000FFF80
00000007FF80
00000001FF80
00000000FF80
000000003F80
000000000F80
000000000780
000000000180
000000000080
ENDCHAR
STARTCHAR B
ENCODING 66
SWIDTH 510 0
DWIDTH 69 0
BBX 43 135 13 0
BITMAP
000000100000
0000007E0000
000000FFC000
000003FFF000
000007FFFE00
00001FFFFF80
00007FFFFFC0
0000FFFFFF80
0003FFFFFF00
0007FFFFFE00
0007FFFFC000
0007FFF00000
0007FFE00000
0007FFE00000
0007FFE00000
0007FFE00000
0007FFE00000
0007FFE00000
0007FFE00000
0007FFE00000
0007FFE00000
0007FFE00000
0007FFE00000
0007FFE00000
0007FFE00000
0007FFE00000
0007FFE00000
0007FFE00000
0007FFE00000
0007FFE00000
0007FFC00000
0007FFC00000
0007FFC00000
0007FFC00000
0007FFC00000
0007FFC00000
0007FFC00000
0007FFC00000
0007FFC00000
0007FFC00000
0007FFF00000
0007FFFC0000
0007FFFF8000
0007FFFFE000
0007FFFFFC00
0007FFFFFF00
0007FFFFFFE0
0007FFFFFFE0
0007FFFFFFC0
0007FFFFFF80
0007FFFFFF00
0007FFFFFC00
0007FFC00000
0007FFC00000
0007FFC00000
0007FF800000
0007FF800000
0007FF800000
0007FF800000
0007FF800000
0007FF800000
0007FF800000
0007FF800000
0007FF800000
0007FF800000
0007FF800000
0007FF800000
0003FF800000
0003FF800000
0003FF800000
0003FF800000
0003FF800000
0003FF800000
0003FF800000
0003FF800000
0003FF800000
0003FF800000
C003FF000000
E003FF000000
7003FF000000
7C03FF000000
7E03FF000000
7F03FF000000
3F83FF000000
3FE3FF000000
3FF3FF000000
3FFBFF000000
1FFFFF000000
1FFFFF000000
1FFFFF000000
1FFFFF000000
0FFFFF000000
0FFFFF000000
0FFFFF000000
0FFFFF000000
07FFFF000000
07FFFF000000
07FFFF000000
07FFFF000000
03FFFF000000
03FFFE000000
03FFFE000000
03FFFE000000
01FFFE000000
01FFFE000000
01FFFE000000
01FFFE000000
00FFFE000000
00FFFE000000
00FFFE000000
00FFFE000000
007FFE000000
007FFE000000
007FFE000000
007FFE000000
003FFE000000
003FFE000000
003FFE000000
003FFE000000
001FFE000000
001FFE000000
001FFE000000
001FFE000000
000FFE000000
000FFE000000
000FFC000000
000FFC000000
0007FC000000
0007FC000000
0007FC000000
0007F8000000
0003F0000000
0003E0000000
000380000000
000300000000
ENDCHAR
STARTCHAR C
ENCODING 67
SWIDTH 510 0
DWIDTH 69 0
BBX 43 135 13 0
BITMAP
000100000000
0007C0000000
000FF8000000
003FFF000000
00FFFFC00000
01FFFFF80000
07FFFFF80000
0FFFFFF80000
3FFFFFF00000
FFFFFFE00000
FFFFFC000000
FFFF00000000
7FFE00000000
7FFE00000000
7FFE00000000
7FFE00000000
7FFE00000000
7FFE00000000
7FFE00000000
7FFE00000000
7FFE00000000
7FFE00000000
7FFE00000000
7FFE00000000
7FFC00000000
7FFC00000000
7FFC00000000
7FFC00000000
7FFC00000000
7FFC00000000
7FFC00000000
7FFC00000000
7FFC00000000
7FFC00000000
7FFC00000000
7FFC00000000
7FFC00000000
7FFC00000000
7FFC00000000
7FFC00000000
7FFC00000000
7FFC00000000
7FFC00000000
7FFC00000000
7FFC00000000
7FFC00000000
7FFC00000000
7FF800000000
7FF800000000
7FF800000000
7FF800000000
7FF800000000
7FF800000000
7FF800000000
7FF800000000
7FF800000000
7FF800000000
7FF800000000
7FF800000000
7FF800000000
7FF800000000
7FF800000000
7FF800000000
7FF800000000
7FF800000000
7FF800000000
7FF800000000
7FF800000000
7FF800000000
7FF800000000
7FF800000000
7FF000000000
7FF000000000
7FF000000000
7FF000000000
7FF000000000
7FF000000000
7FF000000000
7FF000000000
7FF000000000
7FF000000000
7FF000000000
7FF000000000
7FF000000000
7FF000000000
3FF000000000
3FF000000000
3FF000000000
3FF000000000
3FF000000000
3FF000000000
3FF000000000
3FF000000000
3FF000000000
3FF000000000
3FF000000000
3FF000000000
3FE000000000
3FE000000000
3FE000000000
3FE000000000
3FE000000000
3FE000000000
3FE000000000
3FE000000000
3FE000000000
3FE000000000
3FE000000000
3FE000000000
3FE000000000
3FE000000000
3FE000000000
3FE000000000
3FE000000000
3FE000000000
3FE000000180
3FE000000380
3FE000000F80
3FE000001FC0
3FE000001FC0
3FE000001FC0
3FE000003FC0
3FFE00003FC0
3FFFFC003FC0
3FFFFFF83FC0
1FFFFFFFFFC0
1FFFFFFFFFC0
0FFFFFFFFFC0
07FFFFFFFFE0
07FFFFFFFFE0
03FFFFFFFFE0
01FFFFFFFE00
00FFFFFE0000
007FFC000000
007800000000
ENDCHAR
STARTCHAR D
ENCODING 68
SWIDTH 510 0
DWIDTH 69 0
BBX 50 135 9 -2
BITMAP
000000001C0000
000000007F0000
00000000FFE000
00000003FFFC00
04000007FFFF00
0600001FFFFFC0
0780007FFFFFC0
07C000FFFFFF80
07E003FFFFFF00
0FF003FFFFF800
0FF003FFFE0000
0FF003FFF00000
0FF003FFF00000
0FF003FFF00000
0FF003FFF00000
0FF003FFF00000
0FF003FFF00000
0FF003FFF00000
0FF003FFF00000
0FF003FFF00000
0FF003FFE00000
0FF003FFE00000
0FF003FFE00000
0FF003FFE00000
0FF003FFE00000
0FF003FFE00000
0FF003FFE00000
0FF003FFE00000
0FF003FFE00000
0FF003FFE00000
0FF803FFE00000
0FF803FFE00000
0FF803FFE00000
0FF803FFE00000
1FF803FFE00000
1FF803FFE00000
1FF803FFE00000
1FF803FFE00000
1FF803FFE00000
1FF803FFE00000
1FF803FFE00000
1FF803FFE00000
1FF803FFE00000
1FF803FFC00000
1FF803FFC00000
1FF803FFC00000
1FF803FFC00000
1FF803FFC00000
1FF803FFC00000
1FF803FFC00000
1FF803FFC00000
1FF803FFC00000
1FF803FFC00000
1FF803FFC00000
1FF803FFC00000
1FF803FFC00000
1FF803FFC00000
1FF803FFC00000
1FF803FFC00000
3FF803FFC00000
3FF803FFC00000
3FF803FFC00000
3FF803FFC00000
3FF803FFC00000
3FF803FFC00000
3FF803FFC00000
3FF803FFC00000
3FF803FF800000
3FF803FF800000
3FF803FF800000
3FF803FF800000
3FF803FF800000
3FF803FF800000
3FF803FF800000
3FF803FF800000
3FF803FF800000
3FF803FF800000
3FFC03FF800000
3FFC03FF800000
3FFC01FF800000
3FFC01FF800000
3FFC01FF800000
3FFC01FF800000
3FFC01FF800000
3FFC01FF800000
3FFC01FF800000
7FFC01FF800000
7FFC01FF800000
7FFC01FF800000
7FFC01FF000000
7FFC01FF000000
7FFC01FF000000
7FFC01FF000000
7FFC01FF000000
7FFC01FF000000
7FFC01FF000000
7FFC01FF000000
7FFC01FF000000
7FFC01FF000000
7FFC01FF000000
7FFC01FF000000
7FFC01FF000000
7FFC01FF000000
7FFC01FF000000
7FFC01FF000000
7FFC01FF000000
7FFC01FF000000
7FFC01FF000000
7FFC01FF000000
7FFC01FF000000
7FFC01FF000000
7FFC01FF000000
7FFC01FF000000
7FFC01FE000C00
7FFC01FE003E00
FFFE01FE007E00
FFFE01FE00FE00
FFFE01FE01FE00
FFFE01FE01FE00
FFFE01FE01FE00
FFFFC1FE01FE00
FFFFFFFE03FE00
FFFFFFFF03FE00
FFFFFFFFFFFE00
FFFFFFFFFFFE00
7FFFFFFFFFFE00
7FFFFFFFFFFE00
3FFFFFFFFFFE00
0FFFFFFFFFFE00
07FFFFFFFFFC00
03FFFFFFFE0000
01FFFFFF000000
00FFFF80000000
007FE000000000
00300000000000
ENDCHAR
STARTCHAR E
ENCODING 69
SWIDTH 510 0
DWIDTH 69 0
BBX 45 135 12 -1
BITMAP
000000038000
0000000FF000
0000003FFE00
0000007FFF80
000001FFFFF0
000007FFFFF8
00000FFFFFF8
00003FFFFFF0
00007FFFFFE0
0000FFFFFF00
0003FFFFC000
000FFFFE0000
003FFFFC0000
01FFFFFC0000
0FFFFFFC0000
3FFFFFFC0000
FFFFFFFC0000
FFFFFFFC0000
FFFFFFFC0000
7FFFFFFC0000
1FFFFFFC0000
07FFFFFC0000
0000FFFC0000
0000FFFC0000
0000FFFC0000
0000FFFC0000
0000FFFC0000
0000FFFC0000
0000FFFC0000
0000FFFC0000
0000FFFC0000
0000FFFC0000
0000FFFC0000
0000FFFC0000
0000FFFC0000
0000FFF80000
0000FFF80000
0000FFF80000
0000FFF80000
0000FFF80000
0000FFF80000
0000FFF80000
0000FFF80000
0000FFF80000
0000FFF80000
0000FFF80000
0000FFF80000
0000FFF80000
0000FFF80000
0000FFF80000
0000FFF80000
0000FFF80000
0000FFF80000
0000FFF80000
0000FFF80000
0000FFF80000
00007FF80000
00007FF80000
00007FF80000
00007FF00000
00007FF00000
00007FF00000
00007FF00000
00007FF00000
00007FF00000
00007FF00000
00007FF00000
00007FF00000
00007FF00000
00007FF00000
00007FF00000
00007FF00000
00007FF00000
00007FF00000
00007FF00000
00007FF00000
00007FF00000
00007FF00000
00007FF00000
00007FF00000
00007FF00000
00007FF00000
00007FE00000
00007FE00000
00007FE00000
00007FE00000
00007FE00000
00007FE00000
00007FE00000
00007FE00000
00007FE00000
00007FE00000
00007FE00000
00007FE00000
00007FE00000
00007FE00000
00007FE00000
00007FE00000
00007FE00000
00007FE00000
00007FE00000
00007FE00000
00007FE00000
00007FE00000
00007FE00000
00007FE00000
00007FC00000
00007FC00000
00007FC00000
00007FC00000
00007FC00000
00007FC00000
00007FC00000
00007FC00000
00007FC00000
00007FC00000
00007FC00000
00007FC00000
00007FC00000
00007FC00000
00007FC00000
00007FC00000
00003FC00000
00003FC00000
00003FC00000
00003FC00000
00003FC00000
00003FC00000
00003FC00000
00003F800000
00003F000000
00003E000000
00003C000000
000030000000
000020000000
ENDCHAR
STARTCHAR F
ENCODING 70
SWIDTH 510 0
DWIDTH 69 0
BBX 59 134 5 1
BITMAP
0000078000000000
00000FFF00000000
00001FFFFE000000
00003FFFFFF80000
00007FFFFFFFE000
0000FFFFFFFFFF80
0003FFFFFFFFFFE0
0007FFFFFFFFFFE0
000FFFFFFFFFFFE0
001FFFFFFFFFFFE0
001FFFFFFFFFFFE0
001FFFFFFFFFFFE0
001FFFFFFFF83FE0
001FFFFFFC003FE0
001FFFFF00003FE0
001FFFC000003FE0
001FFFC000001FE0
001FFFC000001FE0
001FFFC000001FE0
001FFFC000000FE0
001FFFC0000007E0
001FFFC0000001E0
001FFFC000000060
001FFF8000000000
001FFF8000000000
001FFF8000000000
001FFF8000000000
001FFF8000000000
001FFF8000000000
001FFF8000000000
001FFF8000000000
001FFF8000000000
C01FFF8000000000
E01FFF8000000000
F81FFF8000000000
FC0FFF8000000000
7E0FFF8000000000
7F0FFF8000000000
7FCFFF8000000000
7FEFFF8000000000
7FFFFF8000000000
3FFFFF8000000000
3FFFFF8000000000
3FFFFF8000000000
3FFFFF8000000000
1FFFFF8000000000
1FFFFF8000000000
1FFFFF8000000000
1FFFFF8000000000
0FFFFF8000000000
0FFFFF8000000000
0FFFFF8000000000
0FFFFF8000000000
07FFFF8000000000
07FFFF8000000000
07FFFF0000000000
07FFFF0000000000
03FFFF0000000000
03FFFF0000000000
03FFFF0000000000
03FFFF0000000000
01FFFF0000000000
01FFFF0000000000
01FFFF0000000000
01FFFF0000000000
00FFFF0000000000
00FFFF0000000000
00FFFF0000000000
00FFFF0000000000
007FFF0000000000
007FFF0000000000
007FFF0000000000
007FFF0000000000
003FFF0000000000
003FFF0000000000
003FFF0000000000
003FFF0000000000
001FFF0000000000
001FFF0000000000
001FFF0000000000
001FFF0000000000
000FFF0000000000
000FFF0000000000
000FFF0000000000
000FFF0000000000
0007FF0000000000
0007FF0000000000
0007FF0000000000
0007FE0000000000
0007FE0000000000
0007FE0000000000
0007FE0000000000
0007FE0000000000
0007FE0000000000
0007FE0000000000
0007FE0000000000
0007FE0000000000
0007FE0000000000
0007FE0000000000
0003FE0000000000
0003FE0000000000
0003FE0000000000
0003FE0000000000
0003FE0000000000
0003FE0000000000
0003FE0000000000
0003FE0000000000
0003FE0000000000
0003FE0000000000
0003FE0000000000
0003FE0000000000
0003FE0000000000
0003FE0000000000
0003FE0000000000
0003FE0000000000
0003FE0000000000
0003FE0000000000
0003FE0000000000
0003FE0000000000
0003FE0000000000
0003FE0000000000
0003FE0000000000
0003FE0000000000
0003FC0000000000
0003FC0000000000
0003FC0000000000
0003FC0000000000
0003FC0000000000
0003FC0000000000
0003FC0000000000
0003F80000000000
0003E00000000000
0001C00000000000
0001800000000000
ENDCHAR
STARTCHAR G
ENCODING 71
SWIDTH 510 0
DWIDTH 69 0
BBX 51 134 9 1
BITMAP
00000080000000
000000C0000000
000000E0000000
000001F0000000
000001F8000000
000001FC000000
000001FE000000
000001FE000000
000001FE000000
000001FE000000
000001FE000000
000001FE000000
000001FE000000
000001FE000000
000001FE000000
000001FE000000
000001FE000000
000001FE000000
000001FF000000
000001FF000000
000001FF000000
000001FF000000
000001FF000000
000001FF000000
000001FF000000
000001FF000000
000001FF000000
000001FF000000
000001FF000000
000001FF000000
000001FF000000
000001FF000000
000001FF000000
000001FF000000
000001FF000000
000001FF000000
000001FF000000
000001FF000000
000001FF000000
000001FF000000
000001FF000000
000001FF000000
000001FF000000
000001FF000000
000001FF000000
000001FF000000
000001FF000000
000001FF000000
000001FF000000
000001FF000000
000001FF000000
000001FF000000
000001FF800000
000001FF800000
000001FF800000
000001FF800000
000001FF800000
000001FF800000
000001FF800000
000001FF800000
000001FF800000
000001FF800000
000001FF800000
000001FF800000
000001FF800000
000001FF800000
000001FFC00000
000001FFC00000
800001FFC00000
C00001FFE00000
E00000FFE00000
780000FFE00000
7C0000FFF00000
7E0000FFF00000
7F00007FF00000
3FC0007FF80000
3FE0007FF80000
3FF0003FF80000
1FFC003FFC0000
1FFE003FFC0000
1FFF001FFC0000
0FFF001FFE0000
0FFF001FFE0000
0FFF001FFE0000
07FF000FFF0000
07FF000FFF0000
07FE000FFF0000
03FE0007FF8000
03FE0007FF8000
03FE0007FF8000
01FE0007FFC000
01FE0003FFC000
01FE0003FFC000
01FC0003FFE000
00FC0001FFE000
00FC0001FFE000
00FC0001FFF000
007C0000FFF000
007C0000FFF000
007C0000FFF800
003C0000FFF800
003800007FF800
003800007FFC00
001800007FFC00
001800003FFC00
000800003FFE00
001000003FFE00
000000003FFE00
000000001FFF00
000000001FFF00
000000001FFF00
000000000FFF80
000000000FFF80
000000000FFF80
040000000FFFC0
0700000007FFC0
0780000007FFC0
0FC0000007FFE0
0FE0000007FFE0
0FE0000003FFE0
0FE0000007FFC0
0FF000003FFF80
0FF0001FFFFF00
0FF007FFFFFE00
0FFBFFFFFFFC00
0FFFFFFFFFF800
1FFFFFFFFFF000
1FFFFFFFFFE000
1FFFFFFFFFC000
1FFFFFFFFF8000
1FFFFFFFFF0000
003FFFFFFE0000
00001FFFFE0000
00000007FC0000
ENDCHAR
STARTCHAR H
ENCODING 72
SWIDTH 510 0
DWIDTH 69 0
BBX 49 135 10 -1
BITMAP
00038000000000
000FF000000000
003FFE00000000
007FFF80000000
01FFFFF0000000
03FFFFFC000000
0FFFFFF8000000
3FFFFFF0000000
7FFFFFE0000000
FFFFFF80000000
FFFFC000000000
FFFE0000000000
FFFE0000000000
FFFE0000000000
FFFE0000000000
FFFE0000000000
FFFE0000000000
FFFE0000000000
FFFE0000000000
FFFE0000000000
FFFC0000000000
FFFC0000000000
FFFC0000000000
FFFC0000000000
FFFC0000000000
FFFC0000000000
FFFC0000000000
FFFC0000000000
7FFC0000000000
7FFC0000000000
7FFC0000000000
7FFC0000000000
7FFC0000000000
7FFC0000000000
7FFC0000000000
7FFC0000000000
7FFC0000000000
7FFC0000000000
7FFC6000000000
7FFC3800010000
7FFC3C00018000
7FFC3E0001C000
7FFC1F8001E000
7FF81FC001F000
7FF81FE001F800
7FF80FF001F800
7FF80FFC01F800
7FF80FFE01F800
7FF807FF01F800
7FF807FF81F800
7FF807FFC1F800
7FF807FFC1F800
7FF803FFC1F800
7FF803FF81FC00
7FF803FF81FC00
7FF801FF81FC00
7FF801FF81FC00
7FF801FF81FC00
7FF800FF81FC00
7FF800FF81FC00
7FF800FF81FC00
7FF8007F01FC00
7FF8007F01FC00
7FF8007F01FC00
7FF8003F01FC00
7FF8003F01FC00
7FF8003F01FC00
7FF0001F03FC00
7FF0001E03FC00
7FF0001E03FC00
7FF0000E03FC00
7FF0000E03FC00
7FF0000E03FC00
7FF0000603FC00
7FF0000603FC00
7FF0000403FC00
7FF0000003FC00
7FF0000003FE00
7FF0000003FE00
7FF0000003FE00
7FF0000003FE00
7FF0000003FE00
7FF0000003FE00
7FF0000003FE00
7FF0000003FE00
7FF0000003FE00
7FF0000003FE00
7FF0000003FE00
7FF0000003FE00
7FF0000003FE00
7FF0000003FE00
7FE0000003FE00
7FE0000003FE00
7FE0000003FE00
7FE0000003FE00
7FE0000003FE00
7FE0000003FE00
7FE0000003FE00
7FE0000003FE00
7FE0000003FE00
3FE0000003FE00
3FE0000003FE00
3FE0000003FF00
3FE0000003FF00
3FE0000003FF00
3FE0000003FF00
3FE0000003FF00
3FE0000003FF00
3FE0000003FF00
3FE0000003FF00
3FE0000003FF00
3FE0000003FF00
3FE0000003FF00
3FE0000003FF00
3FE0000003FF00
3FC0000003FF00
3FC0000003FF00
3FC0000003FF00
3FC0000003FF00
3FC0000003FF00
3FC0000003FF00
3FC0000003FF00
3FC0000003FF00
3FC0000003FF00
3FC0000003FF00
3FC0000001FF00
3FC0000000FF00
3FC00000007F00
3FC00000003F80
3FC00000000F80
3F800000000780
3F000000000380
3C000000000080
38000000000000
20000000000000
ENDCHAR
STARTCHAR I
ENCODING 73
SWIDTH 510 0
DWIDTH 69 0
BBX 48 134 10 0
BITMAP
000000001800
000000007800
00000000F800
00000003F800
00000007F800
0000001FF800
0000007FF800
000000FFF800
000003FFF800
000003FFF800
000003FFF800
000003FFF800
000003FFF800
000003FFF000
000003FFF000
000003FFF000
000003FFF000
000003FFF000
000003FFF000
000003FFF000
000003FFF000
000003FFF000
000003FFF000
000003FFF000
000003FFF000
000003FFF000
000003FFF000
000003FFF000
000003FFF000
000003FFF000
000003FFF000
000003FFF000
000003FFF000
000003FFF000
000003FFF000
000003FFF000
000003FFF000
000003FFE000
000003FFE000
000003FFE000
000003FFE000
000003FFE000
000003FFE000
000003FFE000
000003FFE000
000003FFE000
000003FFE000
000003FFE000
000001FFE000
000001FFE000
000001FFE000
000001FFE000
000001FFE000
000001FFE000
000001FFE000
000001FFE000
000001FFE000
000001FFE000
000001FFE000
000001FFE000
000001FFE000
000001FFC000
000001FFC000
000001FFC000
000001FFC000
000001FFC000
000001FFC000
000001FFC000
000001FFC000
000001FFC000
000001FFC000
000001FFC000
000001FFC000
000001FFC000
000001FFC000
000001FFC000
000001FFC000
000001FFC000
000001FFC000
000001FFC000
000001FFC000
000001FFC000
000001FFC000
000001FF8000
000001FF8000
000001FF8000
000001FF8000
000001FF8000
000001FF8000
000001FF8000
000001FF8000
000001FF8000
000001FF8000
000001FFC000
000001FFFC00
000001FFFF80
000001FFFFF0
000001FFFFFC
000003FFFFFE
000007FFFFFF
00000FFFFFFF
00001FFFFFFF
00003FFFFFFC
00007FFFFFE0
00007FFFFF80
0000FFFFFC00
0001FFFFE000
0003FFFF8000
0007FFFF8000
000FFFFF8000
001FFFFF8000
003FFFFF8000
003FFFFF0000
007FFFFF0000
00FFFFFF0000
01FFFFFF0000
03FFFDFF0000
07FFF9FF0000
0FFFF1FF0000
1FFFC1FF0000
1FFF81FF0000
1FFE01FF0000
1FFC01FF0000
3FF801FF0000
3FE000FF0000
3FC000FF0000
7F8000FF0000
7E0000FF0000
7C0000FF0000
700000FE0000
E00000FC0000
800000F00000
000000E00000
000000C00000
ENDCHAR
STARTCHAR J
ENCODING 74
SWIDTH 510 0
DWIDTH 69 0
BBX 30 135 26 0
BITMAP
00038000
000FF000
001FFE00
007FFF80
00FFFFF0
03FFFFFC
0FFFFFF8
1FFFFFF0
7FFFFFE0
FFFFFF80
FFFFE000
FFFE0000
FFFE0000
FFFE0000
FFFE0000
FFFE0000
FFFE0000
FFFE0000
FFFE0000
FFFE0000
FFFE0000
FFFE0000
FFFC0000
FFFC0000
FFFC0000
FFFC0000
FFFC0000
FFFC0000
FFFC0000
FFFC0000
FFFC0000
7FFC0000
7FFC0000
7FFC0000
7FFC0000
7FFC0000
7FFC0000
7FFC0000
7FFC0000
7FFC0000
7FFC0000
7FFC0000
7FFC0000
7FFC0000
7FFC0000
7FFC0000
7FF80000
7FF80000
7FF80000
7FF80000
7FF80000
7FF80000
7FF80000
7FF80000
7FF80000
7FF80000
7FF80000
7FF80000
7FF80000
7FF80000
7FF80000
7FF80000
7FF80000
7FF80000
7FF80000
7FF80000
7FF80000
7FF80000
7FF80000
7FF00000
7FF00000
7FF00000
7FF00000
7FF00000
7FF00000
7FF00000
7FF00000
7FF00000
7FF00000
7FF00000
7FF00000
7FF00000
7FF00000
7FF00000
7FF00000
7FF00000
7FF00000
7FF00000
7FF00000
7FF00000
7FF00000
7FF00000
3FE00000
3FE00000
3FE00000
3FE00000
3FE00000
3FE00000
3FE00000
3FE00000
3FE00000
3FE00000
3FE00000
3FE00000
3FE00000
3FE00000
3FE00000
3FE00000
3FE00000
3FE00000
3FE00000
3FE00000
3FE00000
3FE00000
3FE00000
3FE00000
3FE00000
3FC00000
3FC00000
3FC00000
3FC00000
3FC00000
3FC00000
3FC00000
3FC00000
3FC00000
3FC00000
3FC00000
3FC00000
3FC00000
3F800000
3F000000
3C000000
38000000
20000000
ENDCHAR
STARTCHAR K
ENCODING 75
SWIDTH 510 0
DWIDTH 69 0
BBX 48 135 11 0
BITMAP
00000000E000
00000003FC00
0000000FFF00
0000001FFFE0
0000007FFFF8
000001FFFFFF
000003FFFFFE
00000FFFFFFC
00003FFFFFF8
00003FFFFFE0
00003FFFF000
00003FFF8000
00003FFF8000
00003FFF8000
00003FFF0000
00003FFF0000
00003FFF0000
00003FFF0000
00003FFF0000
00003FFF0000
00003FFF0000
00003FFF0000
00003FFF0000
00003FFF0000
00003FFF0000
00003FFF0000
00003FFF0000
00003FFF0000
80003FFF0000
C0003FFF0000
F0003FFF0000
78003FFF0000
7C003FFF0000
7F003FFF0000
7F803FFF0000
3FE03FFF0000
3FF03FFF0000
3FF83FFF0000
1FFE3FFE0000
1FFF3FFE0000
1FFFBFFE0000
0FFFFFFE0000
07FFFFFE0000
07FFFFFE0000
03FFFFFE0000
01FFFFFE0000
00FFFFFE0000
007FFFFE0000
003FFFFE0000
001FFFFE0000
000FFFFE0000
000FFFFE0000
0007FFFE0000
0003FFFE0000
0001FFFE0000
0000FFFE0000
00007FFE0000
00003FFE0000
00001FFE0000
00001FFE0000
00001FFE0000
00001FFE0000
00001FFE0000
00001FFC0000
00001FFC0000
00001FFC0000
00001FFC0000
00001FFC0000
00001FFC0000
00001FFC0000
00001FFC0000
00001FFC0000
00001FFC0000
0000FFFC0000
0007FFFC0000
003FFFFC0030
01FFFFFC0060
07FFFFFC00E0
3FFFFFFC03E0
FFFFFFFC07E0
FFFFFFFC0FC0
7FFFFFFC1FC0
7FFFFFFC7FC0
3FFFFFFCFF80
07FFFFFDFF80
0027FFFFFF80
00001FFFFF80
00001FFFFF00
00001FFFFF00
00001FFFFF00
00001FFFFE00
00001FFFFE00
00001FFFFE00
00001FFFFC00
00001FFFFC00
00007FFFFC00
0003FFFFFC00
001FFFFFF800
00FFFFFFF800
03FFFFFFF800
1FFFFFFFF000
FFFFFFFFF000
FFFFFFFFF000
FFFFFFFFF000
7FFFFFFFE000
3FFFFFFFE000
0FFFFFFFE000
0000FFFFC000
00001FFFC000
00001FFFC000
00001FFF8000
00001FFF8000
00001FFF8000
00001FFF8000
00001FFF0000
00001FFF0000
00001FFF0000
00001FFE0000
00001FFE0000
00001FFE0000
00001FFC0000
00000FFC0000
00000FFC0000
00000FFC0000
00000FF80000
00000FF80000
00000FF80000
00000FF00000
00000FF00000
00000FF00000
00000FC00000
00000F800000
00000F000000
00000E000000
000008000000
ENDCHAR
STARTCHAR L
ENCODING 76
SWIDTH 510 0
DWIDTH 69 0
BBX 55 134 9 0
BITMAP
0000000C000000
0000001C000000
0000003C000000
000000FC000000
000001FC000006
000001FC00000E
000001FC00003C
000003FC0000FC
000003FC0001FC
000003FC0007F8
000003FC001FF8
000003FC003FF8
000003FC00FFF0
000003FC03FFF0
000003FC07FFF0
000003FE1FFFE0
000003FE3FFFE0
000003FEFFFFC0
000003FFFFFF80
000003FFFFFF00
000003FFFFFE00
000003FFFFFC00
000007FFFFF000
000007FFFFE000
000007FFFFC000
000007FFFF8000
00001FFFFF0000
0001FFFFFE0000
000FFFFFFC0000
007FFFFFF80000
07FFFFFFF00000
07FFFFFFE00000
07FFFFFFC00000
03FFFFFF800000
01FFFFFF000000
00FFFFFE000000
001FFFFE000000
0007FFFE000000
0000FFFE000000
00003FFE000000
00000FFE000000
000007FE000000
000007FE000000
000007FE000000
000007FE000000
000007FE000000
00000FFE000000
00000FFE000000
00000FFE000000
00000FFE000000
00000FFE000000
00000FFE000000
00000FFE000000
00000FFE000000
00000FFE000000
00000FFE000000
00000FFE000000
00000FFE000000
00000FFE000000
00000FFE000000
00000FFE000000
00000FFE000000
00000FFE000000
00000FFE000000
00000FFE000000
00000FFE000000
00000FFE000000
00000FFE000000
00000FFE000000
00000FFE000000
00000FFE000000
00000FFE000000
00001FFE000000
00001FFE000000
00007FFE000000
0003FFFE000000
001FFFFE000000
00FFFFFE000000
07FFFFFE000000
1FFFFFFE000000
FFFFFFFE000000
FFFFFFFE000000
7FFFFFFE000000
3FFFFFFE000000
1FFFFFFE000000
0FFFFFFE000000
00001FFE000000
00001FFE000000
00001FFE000000
00001FFE000000
00001FFE000000
00001FFF000000
00001FFF000000
00003FFF000000
00007FFF000000
0001FFFF000000
000FFFFF000000
007FFFFF000000
03FFFFFF000000
0FFFFFFF000000
7FFFFFFF000000
FFFFFFFF000000
7FFFFFFF000000
7FFFFFFF000000
3FFFFFFF000000
0FFFFFFF000000
01FFFFFF000000
00003FFF000000
00003FFF000000
00003FFF000000
00003FFF000000
00003FFF000000
00003FFF000000
00003FFF000000
00003FFF000000
00003FFF000000
00003FFF000000
00003FFF000000
00003FFF000000
00007FFF000000
00007FFF000000
00007FFF000000
00007FFF000000
00007FFF000000
00007FFF000000
00007FFF000000
00007FFC000000
00007FF8000000
00007FE0000000
00007F80000000
00007F00000000
00007C00000000
00007000000000
00004000000000
ENDCHAR
STARTCHAR M
ENCODING 77
SWIDTH 510 0
DWIDTH 69 0
BBX 51 135 5 0
BITMAP
000000001E0000
000000003F8000
00000000FFF000
00000003FFFE00
00000007FFFF80
0000001FFFFFE0
0000003FFFFFC0
000000FFFFFF80
000003FFFFFF00
000003FFFFFC00
000003FFFF0000
000003FFF00000
000003FFF00000
000003FFF00000
000003FFF00000
000003FFF00000
000003FFF00000
000003FFF00000
000003FFF00000
000003FFF00000
000003FFF00000
000003FFF00000
000003FFF00000
000003FFF00000
000003FFF00000
000003FFF00000
000003FFF00000
000003FFF00000
000003FFF00000
000003FFE00000
000003FFE00000
000003FFE00000
000003FFE00000
000003FFE00000
000003FFE00000
000003FFE00000
000003FFE00000
000003FFE00000
C00003FFE00000
E00003FFE00000
700003FFE00000
7C0003FFE00000
7E0003FFE00000
3F0003FFE00000
3FC003FFE00000
3FE003FFE00000
3FF003FFE00000
1FF803FFE00000
1FFC03FFE00000
1FFF03FFE00000
0FFF03FFE00000
0FFF03FFE00000
0FFF03FFC00000
07FF03FFC00000
07FF03FFC00000
07FF03FFC00000
03FE03FFC00000
03FE03FFC00000
03FE03FFC00000
03FE03FFC00000
01FE03FFC00000
01FE03FFC00000
01FE03FFC00000
00FE03FFC00000
00FC03FFC00000
00FC03FFC00000
007C03FFC00000
007C01FFC00000
007C01FFC00000
003C01FFC00000
003C01FFC00000
003801FFC00000
001801FFC00000
001801FFC00000
001801FFC00000
000801FF800000
000001FF800000
000001FF800000
000001FF800000
000001FF800000
000001FF800000
000001FF800000
000001FF800000
000001FF800000
000001FF800000
000001FF800000
000001FF800000
000001FF800000
000001FF800000
000001FF800000
000001FF800000
000001FF800000
000001FF800000
000001FF800000
000001FF800000
000001FF800000
000001FF800000
000001FF800000
000001FF000000
000001FF000000
000001FF000000
000001FF000000
000001FF000000
000001FF000000
000001FF000000
000001FF000000
000001FF000000
000001FF000000
000001FF000000
000001FF000000
000001FF000000
000001FF000000
000001FF000000
000001FF000000
000001FF000000
000001FF000000
000001FF000000
000001FF000000
000001FF000000
000000FF000000
000000FF000000
000000FF000000
000000FF000000
000000FF000000
000000FFFF0000
000000FFFFFC00
000000FFFFFF80
0000003FFFFFC0
0000001FFFFFE0
0000000FFFFFE0
00000003FFFF80
00000001FFFE00
000000007FF000
000000003F8000
000000000C0000
ENDCHAR
STARTCHAR N
ENCODING 78
SWIDTH 510 0
DWIDTH 69 0
BBX 51 135 9 0
BITMAP
000000001C0000
000000003F8000
00000000FFF000
00000003FFFE00
00000007FFFF80
0000001FFFFFE0
0000007FFFFFE0
000000FFFFFFC0
000003FFFFFF80
000007FFFFFC00
000007FFFF0000
000007FFF00000
000007FFF00000
000007FFF00000
000007FFF00000
000003FFF00000
000003FFF00000
000003FFF00000
000003FFF00000
000003FFF00000
000003FFF00000
000003FFF00000
000003FFF00000
000003FFF00000
000003FFF00000
000003FFF00000
000003FFF00000
000003FFF00000
000003FFE00000
000003FFE00000
000003FFE00000
000003FFE00000
000003FFE00000
000003FFE00000
000003FFE00000
000003FFE00000
000003FFE00000
000003FFE00000
800003FFE00000
E00003FFE00000
F00003FFE00000
780003FFE00000
7E0003FFE00000
7F0003FFE00000
3F8003FFE00000
3FE003FFE00000
3FF003FFE00000
1FF803FFE00000
1FFC03FFE00000
1FFF03FFE00000
0FFF03FFE00000
0FFF03FFC00000
0FFF03FFC00000
0FFF03FFC00000
07FF03FFC00000
07FF03FFC00000
07FE03FFC00000
03FE03FFC00000
03FE03FFC00000
03FE03FFC00000
01FE03FFC00000
01FE03FFC00000
01FE03FFC00000
00FE03FFC00000
00FC03FFC00000
00FC03FFC00000
007C03FFC00000
007C03FFC00000
007C03FFC00000
003C03FFC00000
003C03FFC00000
003803FFC00000
001803FFC00000
001803FFC00000
001803FFC00000
000801FF800000
000001FF800000
000001FF800000
000001FF800000
000001FF800000
000001FF800000
000001FF800000
000001FF800000
000001FF800000
000001FF800000
000001FF800000
000001FF800000
000001FF800000
000001FF800000
000001FF800000
000001FF800000
000001FF800000
000001FF800000
000001FF800000
000001FF800000
000001FF800000
000001FF800000
000001FF800000
000001FF000000
000001FF000000
000001FF000000
000001FF000000
000001FF000000
000001FF000000
000001FF000000
000001FF000000
000001FF000000
000001FF000000
000001FF000000
000001FF000000
000001FF000000
000001FF000000
000001FF000000
000001FF000000
000001FF000000
000001FF000000
000001FF000000
000001FF000000
000001FF000000
000001FF000000
000001FF000000
000001FF000000
000001FF000000
000001FE000000
000001FE000000
000001FE000000
000001FE000000
000001FE000000
000001FE000000
000001FE000000
000001FC000000
000001F8000000
000001F0000000
000001C0000000
00000180000000
ENDCHAR
STARTCHAR O
ENCODING 79
SWIDTH 510 0
DWIDTH 69 0
BBX 58 134 5 0
BITMAP
00000000C0000000
00000000E0000000
0000E000F0000000
0007E000F8000000
0007E000FE000000
0007E000FF000000
0007E000FF000000
0007E000FF000000
0007E000FF000000
0007E000FF000000
0007E000FF000000
0007E000FF000000
0007E000FF000000
000FE000FF000000
000FE000FF000000
000FE000FF000000
000FE000FF000000
000FE000FF000000
000FE000FF000000
000FE000FF000000
000FE000FF000000
000FE000FF000000
000FE000FF000000
000FE000FF000000
000FE001FF000000
000FE001FF000000
C00FE001FF000000
701FE001FF800000
7C1FE001FF800000
7E1FE001FF800000
7F9FE001FF800000
7FFFE001FF800000
3FFFE001FF800000
3FFFE001FF800000
3FFFE001FF800000
3FFFE001FF800000
3FFFE001FF800000
1FFFE001FF800000
1FFFE001FF800000
1FFFE001FF800000
1FFFE001FF800000
1FFFE001FF800000
0FFFE001FF800000
0FFFE001FF800000
0FFFE001FF800000
0FFFE001FF800000
0FFFE001FF800000
07FFE001FF800000
07FFE001FF800000
07FFE001FF800000
07FFE001FF800000
07FFE001FF800000
07FFE001FF800000
03FFE001FF800000
03FFE001FF800000
03FFE001FF800000
03FFE001FF800000
03FFE001FF800000
01FFE001FFC00000
01FFE001FFC00000
01FFE001FFC00000
01FFE001FFC00000
01FFE001FFC00000
00FFE001FFC00000
00FFE003FFC00000
00FFE003FFC00000
00FFE003FFC00000
00FFE003FFC00000
007FE003FFC00000
007FE003FFC00000
007FE003FFC00000
007FE003FFC00000
007FE003FFC00000
003FE003FFC00000
003FE003FFC00000
003FF803FFC00000
003FFE03FFC00000
003FFFC3FFC00000
001FFFF3FFC00000
001FFFFFFFC00000
001FFFFFFFC00000
001FFFFFFFC00000
001FFFFFFFC00000
000FFFFFFFC00000
000FFFFFFFC00000
000FFFF3FFC00000
000FE003FFC00000
000FE003FFC00000
000FE003FFC00000
0007E003FFE00000
0007E003FFE00000
0007E003FFE00000
0003E003FFE00000
0003E003FFE00000
0001E003FFE00000
0001E003FFE00000
0000E003FFE00000
0000E003FFE00000
00006003FFE00000
00006003FFE00000
00002003FFE00000
00000003FFE00000
00000003FFE00000
00000003FFE00000
00000003FFE00000
00000003FFE00000
00000003FFE00000
00000007FFE00000
00000007FFE00000
00000007FFE00000
00000007FFE00000
00000007FFE00000
00000007FFE00000
00000007FFE00000
00000007FFE00000
00000007FFE00000
00000007FFE00000
00000007FFE00000
00000007FFF00000
00000007FFF00000
00000007FFF00000
00000007FFF00000
00000007FFF00000
00000007FFFF0000
00000007FFFFFC00
00000003FFFFFF00
00000000FFFFFF80
000000003FFFFFC0
000000001FFFFFC0
0000000007FFFF00
0000000003FFF800
0000000000FFE000
00000000007F0000
0000000000180000
ENDCHAR
STARTCHAR P
ENCODING 80
SWIDTH 510 0
DWIDTH 69 0
BBX 55 134 7 0
BITMAP
00000008000000
0000000E000000
0000000F000000
0000000F800000
0000000FC00000
0000000FF00000
0000400FF00000
0000400FF00000
0000C00FF00000
0000C00FF00000
0001C00FF00000
0001C00FF00000
0003C00FF00000
0003C00FF00000
0007C00FF00000
0007C00FF00000
000FC00FF00000
000FC00FF00000
000FC00FF00000
000FC00FF00000
001FC00FF00000
001FC00FF00000
001FC00FF00000
001FC00FF00000
001FC00FF00000
003FC00FF00000
003FC00FF80000
003FC01FF80000
003FC01FF80000
003FC01FF80000
007FC01FF80000
007FC01FF80000
007FC01FF80000
007FC01FF80000
007FC01FF80000
007FC01FF80000
00FFC01FF80000
00FFC01FF80000
00FFC01FF80000
00FFC01FF80000
00FFC01FF80000
01FFC01FF80000
01FFC01FF80000
01FFC01FF80000
01FFC01FF80000
01FFC01FF80000
03FFC01FF80000
03FFC01FF80000
03FFC01FF80000
03FFC01FF80000
03FFC01FF80000
07FFC01FF80000
07FFC01FFC0000
07FFC01FFC0000
07FFC01FFC0000
07FFC01FFC0000
0FFFC01FFC0000
0FFFC01FFC0000
0FFFC01FFC0000
0FFFC01FFC0000
0FFFC01FFC0000
0FFFC01FFC0000
1FFFC01FFC0000
1FFFC01FFC0000
1FFFC01FFC0000
1FFFC01FFC0000
1FFFC01FFC0000
3FFFC01FFC0000
3FFFC01FFC0000
3FFFC01FFC0000
3FFFC01FFC0000
3FFFC01FFC0000
7FFFC01FFC0000
7FFFC01FFC0000
7FFFC01FFC0000
7FFFC01FFC0000
7FFFC01FFC0000
7FBFC01FFE0000
FE3FC01FFE0000
F83FC01FFE0000
F03FC03FFE0000
C01FC03FFE0000
001FC03FFE0000
001FC03FFE0000
001FC03FFE0000
001FC03FFE0000
001FC03FFE0000
001FC03FFE0000
001FC03FFE0000
001FC03FFE0000
001FC03FFE0000
001FC03FFE0000
001FC03FFE0000
001FC03FFE0000
001FC03FFE0000
000FC03FFE0000
000FC03FFE0000
000FC03FFE0000
000FC03FFE0000
000FC03FFE0000
000FC03FFE0000
000FC03FFE0000
000FC03FFF0000
000FC03FFF0000
0007C03FFF0000
0003C03FFF0000
0000003FFF0000
0000003FFF0000
0000003FFF0000
0000003FFF0000
0000003FFF0000
0000003FFF0000
0000003FFF0000
0000003FFF0000
0000003FFF0000
0000003FFF0000
0000003FFF0000
0000003FFF0000
0000003FFF0000
0000003FFF0000
0000003FFF0000
0000003FFF0000
0000003FFF8000
0000003FFFE000
0000003FFFFFC0
0000003FFFFFF0
0000000FFFFFF8
00000003FFFFFC
00000001FFFFFE
000000007FFFF8
000000003FFFE0
000000000FFF00
0000000003F800
0000000001C000
ENDCHAR
STARTCHAR Q
ENCODING 81
SWIDTH 510 0
DWIDTH 69 0
BBX 48 135 10 -1
BITMAP
00000000E000
00000003FC00
00000007FF80
0000001FFFF0
0000007FFFFC
000000FFFFFF
000003FFFFFE
000007FFFFFC
00001FFFFFF8
00003FFFFFE0
00003FFFF000
00003FFF8000
00003FFF8000
00003FFF8000
00003FFF8000
00003FFF8000
00003FFF8000
00003FFF8000
00003FFF8000
00003FFF8000
00003FFF8000
00003FFF8000
00003FFF0000
00003FFF0000
00003FFF0000
00003FFF0000
00003FFF0000
00003FFF0000
80003FFF0000
E0003FFF0000
70003FFF0000
78003FFF0000
7E003FFF0000
7F003FFF0000
3FC03FFF0000
3FE03FFF0000
3FF03FFF0000
1FFC3FFF0000
1FFE3FFF0000
1FFF3FFF0000
1FFFFFFF0000
0FFFFFFF0000
07FFFFFF0000
03FFFFFF0000
01FFFFFF0000
00FFFFFF0000
007FFFFE0000
007FFFFE0000
003FFFFE0000
001FFFFE0000
000FFFFE0000
0007FFFE0000
0003FFFE0000
0001FFFE0000
0001FFFE0000
0000FFFE0000
00007FFE0000
00003FFE0000
00001FFE0000
00001FFE0000
00001FFE0000
00001FFE0000
00001FFE0000
00001FFE0000
00001FFE0000
00001FFE0000
00001FFE0000
00001FFE0000
00001FFE0000
00001FFE0000
00001FFE0000
00001FFC0000
00001FFC0000
00001FFC0000
00001FFC0000
00001FFC0010
00001FFC0070
00001FFC00F0
00001FFC01E0
00001FFC07E0
00001FFC0FE0
00001FFC1FC0
00001FFC3FC0
00001FFCFFC0
00001FFDFF80
00001FFFFF80
00001FFFFF80
00001FFFFF80
00001FFFFF00
00001FFFFF00
00001FFFFF00
00000FFFFE00
00000FFFFE00
00000FFFFE00
00000FFFFC00
00000FFFFC00
00000FFFFC00
00000FFFFC00
00000FFFF800
00000FFFF800
00000FFFF800
00000FFFF000
00000FFFF000
00000FFFF000
00000FFFE000
00000FFFE000
00000FFFE000
00000FFFE000
00000FFFC000
00000FFFC000
00000FFFC000
00000FFF8000
00000FFF8000
00000FFF8000
00000FFF0000
00000FFF0000
00000FFF0000
00000FFF0000
00000FFE0000
00000FFE0000
00000FFE0000
00000FFC0000
00000FFC0000
00000FFC0000
00000FF80000
00000FF80000
00000FF80000
00000FF80000
00000FF00000
00000FF00000
00000FE00000
00000FC00000
00000F000000
00000E000000
000008000000
ENDCHAR
STARTCHAR R
ENCODING 82
SWIDTH 510 0
DWIDTH 69 0
BBX 43 134 13 1
BITMAP
0000000C0000
0000003F0000
000000FFE000
000001FFFC00
000007FFFF00
00000FFFFFE0
00003FFFFFE0
0000FFFFFFC0
0001FFFFFF00
0003FFFFFE00
0003FFFF8000
0003FFF00000
0003FFF00000
0003FFF00000
0003FFF00000
0003FFF00000
0003FFF00000
0003FFF00000
0003FFF00000
0003FFF00000
0003FFF00000
0003FFF00000
0003FFF00000
0003FFF00000
0003FFF00000
0003FFF00000
0003FFF00000
0003FFE00000
0003FFE00000
0003FFE00000
0003FFE00000
0003FFE00000
0003FFE00000
0003FFE00000
0003FFE00000
0003FFE00000
0003FFE00000
0003FFE00000
0003FFE00000
0003FFE00000
0003FFF00000
0003FFFE0000
0003FFFF8000
0003FFFFF000
0003FFFFFE00
0003FFFFFF80
0003FFFFFFE0
0003FFFFFFE0
0003FFFFFFC0
0003FFFFFF80
0003FFFFFF00
0003FFFFE000
0003FFC00000
0003FFC00000
0003FFC00000
0003FFC00000
0003FFC00000
0003FFC00000
0003FFC00000
0003FFC00000
0003FFC00000
0003FFC00000
0003FFC00000
0003FFC00000
0003FFC00000
0003FFC00000
0003FFC00000
0003FFC00000
0003FFC00000
0003FFC00000
0003FFC00000
0003FFC00000
0003FFC00000
0003FFE00000
0003FFFC0000
8003FFFF8000
C003FFFFF000
F003FFFFFC00
F803FFFFFF80
7C03FFFFFFE0
7E03FFFFFFE0
7F03FFFFFFC0
3FC3FFFFFF80
3FE3FFFFFF00
3FF3FFFFF800
3FFBFF800000
1FFFFF800000
1FFFFF800000
1FFFFF800000
0FFFFF800000
0FFFFF800000
0FFFFF800000
0FFFFF800000
07FFFF000000
07FFFF800000
07FFFFE00000
03FFFFFC0000
03FFFFFF8000
03FFFFFFF000
01FFFFFFFC00
01FFFFFFFF80
01FFFFFFFFE0
01FFFFFFFFE0
00FFFFFFFFC0
00FFFFFFFF80
00FFFFFFFF00
007FFFFFF800
007FFF000000
007FFF000000
003FFF000000
003FFF000000
003FFF000000
003FFF000000
001FFF000000
001FFF000000
001FFF000000
000FFF000000
000FFF000000
000FFF000000
000FFF000000
0007FE000000
0007FE000000
0007FE000000
0003FE000000
0003FE000000
0003FE000000
0003FE000000
0001FE000000
0001FE000000
0001FE000000
0001F8000000
0001F0000000
0000E0000000
000080000000
ENDCHAR
STARTCHAR S
ENCODING 83
SWIDTH 510 0
DWIDTH 69 0
BBX 48 135 12 -1
BITMAP
000000080000
000000380000
000000F80000
000001F80000
000007F80001
00000FF80007
00003FF8000F
0000FFF8001E
0001FFF8007E
0003FFF800FE
0003FFF803FE
0003FFF807FC
0003FFF80FFC
0003FFF83FFC
0003FFF87FF8
0003FFF9FFF8
0003FFFBFFF8
0003FFFFFFF0
0003FFFFFFE0
0003FFFFFFC0
0003FFFFFF80
0003FFFFFF80
0003FFFFFF00
0001FFFFFE00
0001FFFFFC00
0001FFFFF800
0001FFFFF000
0001FFFFE000
0001FFFFC000
0007FFFFC000
003FFFFF8000
00FFFFFF0000
07FFFFFE0000
1FFFFFFC0000
FFFFFFF80000
FFFFFFF00000
FFFFFFF00000
7FFFFFF00000
3FFFFFF00000
07FFFFF00000
01FFFFF00000
001FFFF00000
0003FFF00000
0001FFF00000
0001FFF00000
0001FFF00000
0001FFF00000
0001FFE00000
0001FFE00000
0001FFE00000
0001FFE00000
0001FFE00000
0001FFE00000
0001FFE00000
0001FFE00000
0001FFE00000
0001FFE00000
0001FFE00000
0001FFE00000
0001FFE00000
0001FFE00000
0001FFE00000
0001FFE00000
0001FFE00000
0001FFE00000
0001FFE00000
0001FFE00000
0001FFE00000
0001FFC00000
0001FFC00000
0001FFC00000
0001FFC00000
0001FFC00000
0001FFC00000
0001FFC00000
0001FFC00000
0001FFC00000
0001FFC00000
0001FFC00000
0001FFC00000
0001FFC00000
0001FFC00000
0001FFC00000
0001FFC00000
0001FFC00000
0001FFC00000
0001FFC00000
0001FFC00000
0001FFC00000
0001FFC00000
0001FFC00000
0001FF800000
0001FF800000
0001FF800000
0000FF800000
0000FF800000
0000FF800000
0000FF800000
0000FF800000
0000FF800000
0000FF800000
0000FF800000
0000FF800000
0000FF800000
0000FF800000
0000FF800000
0000FF800000
0000FF800000
0000FF800000
0000FF800000
0000FF800000
0000FF800000
0000FF800000
0000FF800000
0000FF800000
0000FF000000
0000FF000000
0000FF000000
0000FF000000
0000FF000000
0000FF000000
0000FF000000
0000FF000000
0000FF000000
0000FF000000
0000FF000000
0000FF000000
0000FF000000
0000FF000000
0000FF000000
0000FC000000
0000F8000000
0000F0000000
0000C0000000
000080000000
ENDCHAR
STARTCHAR T
ENCODING 84
SWIDTH 510 0
DWIDTH 69 0
BBX 47 134 11 1
BITMAP
000000200000
000000600000
000000E00000
000001E00000
000003E00000
000007E00000
00000FF00000
00000FF00000
00000FF00000
00000FF00000
00000FF00000
00000FF00000
00000FF00000
00001FF00000
00001FF00000
00001FF00000
00001FF00000
00001FF00000
00001FF00000
00001FF00000
00001FF00000
00001FF00000
00001FF00000
00001FF00000
00001FF00000
00001FF00000
00001FF00000
00001FF00000
00001FF00000
00001FF00000
00001FF00000
00001FF00000
00001FF00000
00001FF00000
00001FF00000
00001FF00000
00001FF00000
00001FF00000
00001FF00000
00001FF00000
00001FF00000
00001FF00000
00001FF00000
00003FF00000
00003FF00000
00003FF00000
00003FF00000
00003FF00000
00003FF00000
00003FF00000
00003FF00000
00003FF00000
00003FF00000
00003FF00000
00003FF00000
00003FF00000
00003FF00000
00003FF00000
00003FF00000
00003FF00000
00003FF00000
00003FF00000
00003FF00000
00003FF00000
00003FF00000
00007FF00000
00007FF00000
00007FF00000
0000FFF00000
0000FFE00000
0000FFE00000
0001FFE00000
0001FFE00000
0001FFC00000
0003FFC00000
0003FFC00000
0003FF800000
0007FF800000
0007FF800000
0007FF000000
000FFF000000
000FFF000000
000FFF000000
001FFE000000
001FFE000000
001FFE000000
003FFC000000
003FFC000000
003FFC000000
007FFC000000
007FF8000000
007FF8000000
00FFF8000000
00FFF0000000
00FFF0000000
01FFF0000000
01FFE0000000
01FFE0000000
03FFE0000000
03FFE0000000
03FFC0000000
07FFC0000000
07FFC0000000
07FF80000000
0FFF80000000
0FFF80000000
0FFF00000000
1FFF00000000
1FFF00000000
1FFF00000000
3FFE00000000
3FFE00000000
3FFE00000000
7FFC00000000
7FFC0000000C
7FFC0000001C
FFF80000007C
FFF8000000FC
FFF8000000FC
FFF8000001FC
7FFC000001FE
3FFFC00001FE
1FFFFF0001FE
0FFFFFFE03FE
07FFFFFFFFFE
03FFFFFFFFFE
01FFFFFFFFFE
00FFFFFFFFFE
007FFFFFFFFE
003FFFFFFFFE
001FFFFFFFFE
000FFFFFFE00
0007FFFC0000
0003F8000000
ENDCHAR
STARTCHAR U
ENCODING 85
SWIDTH 510 0
DWIDTH 69 0
BBX 59 134 5 0
BITMAP
00000003C0000000
0000000FF8000000
0000001FFF000000
0000007FFFC00000
000000FFFFF80000
000003FFFFFC0000
00000FFFFFFC0000
00001FFFFFF80000
00007FFFFFE00000
0000FFFFFF000000
0003FFFF80000000
000FFFFE00000000
007FFFFE00000000
01FFFFFE00000000
0FFFFFFE00000000
3FFFFFFE00000000
FFFFFFFE00000000
FFFFFFFE00000000
7FFFFFFE00000000
3FFFFFFE00000000
1FFFFFFE00000000
01FFFFFE00000000
00007FFE00000000
00007FFE00000000
00007FFE00000000
00007FFE00000000
00007FFE00000000
00007FFE00000000
00007FFE00000000
00007FFE00000000
00007FFE00000000
00007FFE00000000
00007FFE00000000
00007FFC00000000
00007FFC00000000
00007FFC00000000
00007FFC00000000
00007FFC00000000
00007FFC00000000
00007FFC00000000
00007FFC00000000
00007FFC00000000
00007FFC00000000
00007FFC00000000
00007FFC00000000
00007FFC00000000
00007FFC00000000
00007FFC00000000
00007FFC00000000
00007FFC00000000
00007FFC00000000
00007FFC00000000
00007FFC00000000
00007FFC00000000
00007FFC00000000
00007FFC00000000
00003FFC00000000
00003FFC00000000
00003FFC00000000
00003FF800000000
00003FF800000000
00003FF800000000
00003FF800000000
00003FF800000000
00003FF800000000
00003FF800000000
00003FF800000000
00003FF800000000
00003FF800000000
00003FF800000000
00003FF800000000
00003FF800000000
00003FFF00000000
00003FFFE0000000
00003FFFFC000000
00003FFFFF000000
00003FFFFFE00000
00003FFFFFF80000
00003FFFFFFF0000
00003FFFFFFF8000
00003FFFFFFF0000
00003FFFFFFE0000
00003FFFFFFC0000
00003FFFFFF80000
00003FFFFF000000
00003FF000000000
00003FF000000000
00003FF000000000
00003FF000000000
00003FF000000000
00003FF000000000
00003FF000000000
00003FF000000000
00003FF000000000
00003FF000000000
00003FF000000000
00003FF000000000
00003FF000000000
00003FF000000000
00003FF000000000
00003FF000000000
00003FF000000000
00003FF000000000
00003FF000000000
00003FE000000000
00003FE000000000
00003FE000000000
00003FE000000000
00003FE000000000
00003FE000000000
00003FE000000000
00003FE000000000
00003FE000000000
00003FE000000000
00003FE0000000C0
00001FE0000001C0
00001FE0000007C0
00001FE000000FC0
00001FE000000FC0
00001FE000001FC0
00001FE000001FC0
00001FF000001FE0
00001FFFE0001FE0
00001FFFFF803FE0
00001FFFFFFF3FE0
00001FFFFFFFFFE0
00000FFFFFFFFFE0
000007FFFFFFFFE0
000007FFFFFFFFE0
000003FFFFFFFFE0
000001FFFFFFFFE0
000000FFFFFFF800
0000007FFFE00000
0000007FC0000000
ENDCHAR
STARTCHAR V
ENCODING 86
SWIDTH 510 0
DWIDTH 69 0
BBX 55 135 7 0
BITMAP
00000000040000
000000001C0000
000000007C0000
00000000FC0000
00000003FC0000
00000007FC0000
0000001FFC0000
0000007FFC0000
000000FFFC0000
000001FFFC0000
000001FFFC0000
000001FFFC0000
000001FFF80000
000001FFF80000
000001FFF80000
000001FFF80000
000001FFF80000
000001FFF80000
000001FFF80000
000001FFF80000
000001FFF80000
000001FFF80000
000001FFF80000
000001FFF80000
000001FFF80000
000001FFF80000
000001FFF80000
000001FFFFC000
000001FFFFFFC0
000001FFFFFFF0
000001FFFFFFF8
000001FFFFFFFC
000001FFFFFFFE
000001FFFFFFFE
000001FFFFFFF0
000001FFFFFFC0
000001FFFFFE00
000001FFFFF000
000001FFFF8000
000001FFFE0000
000001FFF80000
000001FFF00000
000001FFF00000
000001FFF00000
000001FFF00000
000001FFF00000
000001FFF00000
000001FFF00000
000000FFFFFF80
000000FFFFFFF0
000000FFFFFFF8
000000FFFFFFFC
000000FFFFFFFE
000000FFFFFFFE
000000FFFFFFF8
000000FFFFFFE0
000000FFFFFF00
000000FFFFF800
000000FFFFC000
000000FFFE0000
000000FFF00000
000000FFE00000
000000FFE00000
000000FFE00000
000000FFE00000
000000FFE00000
000000FFE00000
000000FFE00000
000000FFE00000
000000FFE00000
000000FFE00000
000000FFE00000
000000FFE00000
000000FFE00000
000000FFE00000
000000FFE00000
000000FFE00000
000000FFE00000
000000FFE00000
000000FFE00000
000000FFE00000
000000FFE00000
000000FFE00000
000000FFE00000
000000FFE00000
000000FFE00000
000000FFC00000
000000FFC00000
000000FFC00000
000000FFC00000
000000FFC00000
000000FFC00000
000000FFC00000
000000FFC00000
000000FFF00000
000000FFFC0000
000000FFFF8000
000000FFFFF000
000000FFFFFC00
000001FFFFFF00
000003FFFFFF80
000007FFFFFFC0
00000FFFFFFFC0
00001FFFFFFFC0
00003FFFFFFF00
00007FFFFFF000
0000FFFFFF8000
0001FFFFF80000
0003FFFFE00000
0007FFFFC00000
000FFFFFC00000
001FFFFF800000
003FFFFF800000
007FFFFF800000
00FFFFFF800000
01FFFFFF800000
03FFFFFF800000
07FFFCFF800000
0FFFF0FF800000
1FFFE0FF800000
1FFF80FF800000
1FFE007F800000
3FFC007F800000
3FF0007F800000
3FE0007F800000
7F80007F800000
7E00007F800000
7C00007F000000
F000007F000000
C000007F000000
8000007E000000
0000007C000000
00000070000000
00000060000000
00000040000000
ENDCHAR
STARTCHAR W
ENCODING 87
SWIDTH 510 0
DWIDTH 69 0
BBX 51 134 9 0
BITMAP
00000600000000
00000700000000
00000F80000000
00000FE0000000
00000FF0000000
00000FF0000000
00000FF8000000
00000FF8000000
00000FF8000000
00000FF8000000
00000FF8000000
00000FF8000000
00000FF8000000
00000FF8000000
00000FF8000000
00000FF8000000
00000FF8000000
00000FF8000000
00000FF8000000
00000FF8000000
00000FF8000000
00000FF8000000
00000FF8000000
00000FF8000000
00000FF8000000
00000FF8000000
00000FF8000000
00000FF8000000
00000FF8000000
00000FF8000000
00001FF8000000
00001FF8000000
00001FF8000000
00001FFC000000
00001FFC000000
00001FFC000000
00001FFC000000
00001FFC000000
00001FFC000000
00001FFC000000
00001FFC000000
00001FFC000000
00001FFC000000
00001FFC000000
00001FFC000000
00001FFC000000
00001FFC000000
00001FFC000000
00001FFC000000
00001FFC000000
00001FFC000000
00001FFC000000
00001FFE000000
00001FFE000000
00000FFE000000
00000FFF000000
000007FF000000
000007FF800000
000003FF800000
000003FF800000
000003FFC00000
000001FFC00000
000001FFE00000
000000FFE00000
000000FFF00000
000000FFF00000
0000007FF00000
0000007FF80000
0000003FF80000
0000003FFC0000
0000001FFC0000
0000001FFC0000
0000001FFE0000
0000000FFE0000
0000000FFF0000
00000007FF0000
00000007FF8000
00000007FF8000
00000003FF8000
00000003FFC000
00000001FFC000
00000001FFE000
00000000FFE000
00000000FFE000
00000000FFF000
000000007FF000
000000007FF800
000000003FF800
000000003FFC00
000000003FFC00
000000001FFC00
000000001FFE00
000000000FFE00
000000000FFF00
0000000007FF00
0000000007FF00
0000000007FF80
0000000007FF80
0000000007FF80
0000000007FF80
0000000007FF80
0000000007FF80
0000000007FF80
0000000007FFC0
0000000007FFC0
0000000007FFC0
0000000007FFC0
0000000007FFC0
0000000007FFC0
000000000FFFC0
000000000FFFC0
000000000FFFC0
000000000FFFC0
000000000FFFC0
200000000FFFC0
380000000FFFC0
7E0000000FFFE0
7F0000000FFFE0
7F0000000FFFE0
7F0000000FFFE0
7F8000001FFFE0
7F800000FFFFC0
7F80007FFFFF80
7F803FFFFFFF00
7FFFFFFFFFFE00
FFFFFFFFFFF800
FFFFFFFFFFF000
FFFFFFFFFFE000
FFFFFFFFFFC000
FFFFFFFFFF0000
FFFFFFFFFE0000
01FFFFFFFC0000
0000FFFFF00000
0000001FE00000
ENDCHAR
STARTCHAR X
ENCODING 88
SWIDTH 510 0
DWIDTH 69 0
BBX 56 135 6 0
BITMAP
00000000002000
0000000000F800
0000000001FF00
0000000007FFE0
000000001FFFF8
000000003FFFFF
00000000FFFFFF
00000001FFFFFF
00000007FFFFFE
0000000FFFFFF8
0000000FFFFF80
0000000FFFE000
0000000FFFE000
0000000FFFE000
0000000FFFE000
0000000FFFE000
0000000FFFC000
0000000FFFC000
0000000FFFC000
0000000FFFC000
0000000FFFC000
0000000FFFC000
0000000FFFC000
0000000FFFC000
0000000FFFC000
0000000FFFC000
0000000FFFC000
00000007FFC000
00000007FFC000
00000007FFC000
00000007FFC000
00000007FFC000
00000007FFC000
00000007FFC000
00000007FFC000
00000007FFC000
00000007FFC000
00000007FFC000
00000007FFC000
00000007FFC000
00000007FFC000
00000007FFC000
00000007FFC000
00000007FFC000
00000007FFC000
00000007FFC000
00000007FFC000
00000003FFC000
00000003FFC000
00000003FFC000
00000003FFC000
00000003FFC000
00000003FFC000
00000003FFC000
00000003FFC000
00000003FFC000
00000003FFC000
00000003FFC000
00000003FFC000
00000003FFC000
00000003FFC000
00000003FFC000
00000003FFC000
00000003FFC000
00000003FFC000
00000003FFC000
00000003FFC000
00000003FFC000
00000003FFC000
00000003FFC000
00000001FFC000
00000001FFC000
00000001FFC000
00000001FFC000
00000001FFC000
00000001FFC000
00000001FFC000
00000001FFC000
00000001FFC000
00000001FFC000
00000001FFC000
00000001FFC000
00000001FFC000
00000001FFC000
00000001FFC000
00000001FFC000
00000001FFC000
00000001FFC000
00000001FFC000
00000001FF8000
00000001FF8000
00000001FF8000
00000001FF8000
00000001FF8000
00000001FF8000
00000001FF8000
00000000FF8000
00000000FF8000
00000000FF8000
00000000FF8000
00000000FF8000
00000000FF8000
00000000FF8000
00000000FF8000
00000000FF8000
00000000FF8000
00000000FF8000
00000000FF8000
00000000FF8000
00000000FF8000
00000000FF8000
00000000FF8000
00000000FF8000
00000000FF8000
00000000FF8000
30000000FF8000
38000000FF8000
3E000000FF8000
7F000000FF8000
7F000000FF8000
7F000000FF8000
7F800000FF8000
7F80000FFF8000
7F8007FFFF8000
7F83FFFFFF8000
7FFFFFFFFF0000
7FFFFFFFFF0000
7FFFFFFFFE0000
7FFFFFFFFC0000
FFFFFFFFFC0000
FFFFFFFFF80000
1FFFFFFFF00000
000FFFFFE00000
000003FFC00000
00000001C00000
ENDCHAR
STARTCHAR Y
ENCODING 89
SWIDTH 510 0
DWIDTH 69 0
BBX 29 134 20 0
BITMAP
00030000
000FE000
003FFC00
007FFF00
01FFFFE0
03FFFFF8
0FFFFFF0
3FFFFFF0
7FFFFFE0
FFFFFF00
FFFFC000
FFF80000
FFF80000
FFF80000
FFF80000
FFF80000
FFF80000
FFF80000
FFF80000
FFF80000
FFF80000
FFF00000
FFF00000
FFF00000
FFF00000
FFF00000
FFF00000
FFF00000
FFF00000
FFF00000
FFF00000
FFF00000
FFF00000
FFF00000
FFF00000
FFF00000
FFF00000
FFF00000
FFF00000
FFF00000
FFF00000
FFF00000
FFF00000
FFE00000
FFE00000
FFE00000
FFE00000
FFE00000
7FE00000
7FE00000
7FE00000
7FE00000
7FE00000
7FE00000
7FE00000
7FE00000
7FE00000
7FE00000
7FE00000
7FE00000
7FE00000
7FE00000
7FE00000
7FE00000
7FE00000
7FE00000
7FE00000
7FE00000
7FE00000
7FE00000
7FE00000
7FE00000
7FF80000
7FFF0000
7FFFE000
7FFFF800
7FFFFF00
7FFFFFC0
7FFFFFF0
7FFFFFE0
7FFFFFE0
7FFFFFC0
7FFFFF00
7FFFF800
7FE00000
7FC00000
7FC00000
7FC00000
7FC00000
7FC00000
7FC00000
7FC00000
7FC00000
7FC00000
7FC00000
7FC00000
7FC00000
7FC00000
7FC00000
7FC00000
7FC00000
7FC00000
7FC00000
7FC00000
7FC00000
7FC00000
7F800000
7F800000
7F800000
7F800000
7F800000
7F800000
7F800000
7F800000
7F800000
7F800000
7F800000
3F800000
3F800000
3F800000
3F800000
3F800000
3F800000
3F800000
3F800000
3F800000
3F800000
3F800000
3F000000
3F000000
3F000000
1F000000
0F000000
03000000
ENDCHAR
STARTCHAR Z
ENCODING 90
SWIDTH 510 0
DWIDTH 69 0
BBX 49 135 10 0
BITMAP
00020000000000
001F8000000000
00FFC000000000
07FFF000000000
1FFFFC00000000
7FFFFE00000000
7FFFFF80000000
7FFFFFE0000000
1FFFFFF0000000
07FFFFF8000000
001FFFF8000000
0000FFF8000000
0000FFF8000000
00007FF8000000
00007FF8000000
00007FF8000000
00007FF8000000
00007FF8000000
00007FF8000000
00007FF8000000
00007FF8000000
00007FF8000000
00007FF8000000
00007FF8000000
00007FF8000000
00007FF8000000
00007FF8000000
00007FF8000000
00007FF8000000
00007FF8000000
00007FF8000000
00007FF8000000
00007FF8000000
00007FF8000000
00007FF8000000
00007FF8000000
00007FF8000000
00007FF8000000
00003FF8000000
00003FF8000000
00003FF8000000
00003FF8000000
00003FF8000000
00003FF8000000
00003FF8000000
00003FF8000000
00003FF8000000
00003FF8000000
00003FF8000000
00003FF8000000
00003FF8000000
00003FF8000000
00003FF0000000
00003FF0000000
00003FF0000000
00003FF0000000
00003FF0000000
00003FF0000000
00003FF0000000
00003FF0000000
00003FF0000000
00003FF0000000
00003FF0000000
00003FF0000000
00003FF0000000
00001FF0000000
00001FF0000000
00001FF0000000
00001FF0000000
00001FF0000000
00001FF0000000
00001FF0000000
00001FF0000000
00001FF0000000
00001FF0000000
00001FF0000000
00001FF0000000
00001FF0000000
00001FF0000000
00001FF0000000
00001FF0000000
00001FF0000000
00001FF0000000
00001FF0000000
00001FF0000000
00001FF0000000
00001FF0000000
00001FF0000000
00001FF0000000
00001FF0000000
00001FF0000000
00001FF0000000
00001FF0000000
00007FF0000080
0003FFF0000180
001FFFF0000700
00FFFFF0000F00
03FFFFF0001F00
1FFFFFF0003F00
FFFFFFF0007E00
FFFFFFF000FE00
7FFFFFF003FE00
3FFFFFF007FC00
1FFFFFF00FFC00
07FFFFF01FFC00
00001FF03FFC00
00001FF07FF800
00001FF07FF800
00001FF07FF800
00001FF03FF800
00000FE03FF000
00000FE03FF000
00000FE03FF000
00000FE03FF000
00000FE03FE000
00000FE01FE000
00000FE01FE000
00000FE01FC000
00000FE01FC000
00000FE01FC000
00000FE00FC000
00000FE00F8000
00000FE00F8000
00000FE00F8000
00000FE00F8000
00000FE00F0000
00000FE0070000
00000FE0070000
00000FE0060000
00000FE0060000
00000FE0060000
000007E0020000
00000780000000
00000600000000
00000400000000
ENDCHAR
STARTCHAR underscore
ENCODING 95
SWIDTH 510 0
DWIDTH 69 0
BBX 50 21 10 1
BITMAP
00000000000300
00000000000F00
00000000001F80
00000000003F80
00000000003F80
00000000003F80
00000000007F80
00000000007F80
00001FFFFFFF80
00FFFFFFFFFF80
01FFFFFFFFFF80
01FFFFFFFFFFC0
03FFFFFFFFFFC0
07FFFFFFFFFFC0
0FFFFFFFFFFFC0
1FFFFFFFFFFFC0
1FFFFFFFFFFFC0
3FFFFFFFFFFF00
7FFFFFFC000000
FFFF0000000000
F8000000000000
ENDCHAR
STARTCHAR a
ENCODING 97
SWIDTH 510 0
DWIDTH 69 0
BBX 41 135 14 -1
BITMAP
000040000000
000040000000
0000C0000000
0001C0040000
0001C0060000
0003C00F8000
0003C00FC000
0007C00FE000
0007C00FF000
000FC00FF000
000FC00FF000
000FC00FF000
000FC00FF000
001FC00FF000
001FC00FF000
001FC00FF000
001FC00FF000
001FC00FF000
003FC00FF800
003FC00FF800
003FC00FF800
003FC00FF800
003FC00FF800
003FC00FF800
007FC00FF800
007FC00FF800
007FC00FF800
007FC00FF800
007FC00FF800
00FFC00FF800
00FFC00FF800
00FFC00FF800
00FFC00FF800
00FFC00FF800
01FFC00FF800
01FFC00FF800
01FFC00FF800
01FFC00FF800
01FFC00FF800
03FFC00FF800
03FFC00FF800
03FFC00FF800
03FFC00FFC00
03FFC00FFC00
07FFC00FFC00
07FFC00FFC00
07FFC00FFC00
07FFC00FFC00
07FFC00FFC00
07FFC00FFC00
0FFFC00FFC00
0FFFC00FFC00
0FFFC00FFC00
0FFFC00FFC00
0FFFC00FFC00
1FFFC00FFC00
1FFFC00FFC00
1FFFC00FFC00
1FFFC00FFC00
1FFFC00FFC00
3FFFC00FFC00
3FFFC00FFC00
3FFFC00FFC00
3FFFC00FFC00
3FFFC00FFC00
7FFFC00FFE00
7FFFC00FFE00
7FFFC01FFE00
7FFFC01FFE00
7FFFC01FFE00
7F3FC01FFE00
FC3FC01FFE00
F01FC01FFE00
E01FC01FFE00
801FC01FFE00
001FC01FFE00
001FC01FFE00
001FC01FFE00
001FC01FFE00
001FC01FFE00
001FC01FFE00
001FC01FFE00
001FC01FFE00
001FC01FFE00
001FC01FFE00
000FC01FFE00
000FC01FFE00
000FC01FFE00
000FC01FFE00
000FC01FFF00
000FC01FFF00
000FC01FFF00
000FC01FFF00
000FC01FFF00
000FC01FFF00
000FC01FFF00
000FC01FFF00
0003C01FFF00
0000401FFF00
0000001FFF00
0000001FFF00
0000001FFF00
0000001FFF00
0000001FFF00
0000001FFF00
0000001FFF00
0000001FFF00
0000001FFF00
0000001FFF00
0000001FFF00
0000001FFF00
0000001FFF00
0000001FFF00
0000001FFF00
0000001FFF80
0000001FFF80
0000001FFF80
0000001FFF80
0000001FFF80
0000001FFF80
0000001FFF80
0000001FFF80
0000001FFF80
0000001FFF80
0000001FFF80
0000001FFF80
0000000FFF80
00000007FF80
00000001FF80
000000007F80
000000003F80
000000000F80
000000000780
000000000180
000000000080
ENDCHAR
STARTCHAR b
ENCODING 98
SWIDTH 510 0
DWIDTH 69 0
BBX 43 135 13 0
BITMAP
000000100000
0000007E0000
000000FFC000
000003FFF000
000007FFFE00
00001FFFFF80
00007FFFFFC0
0000FFFFFF80
0003FFFFFF00
0007FFFFFE00
0007FFFFC000
0007FFF00000
0007FFE00000
0007FFE00000
0007FFE00000
0007FFE00000
0007FFE00000
0007FFE00000
0007FFE00000
0007FFE00000
0007FFE00000
0007FFE00000
0007FFE00000
0007FFE00000
0007FFE00000
0007FFE00000
0007FFE00000
0007FFE00000
0007FFE00000
0007FFC00000
0007FFC00000
0007FFC00000
0007FFC00000
0007FFC00000
0007FFC00000
0007FFC00000
0007FFC00000
0007FFC00000
0007FFC00000
0007FFC00000
0007FFF00000
0007FFFC0000
0007FFFF8000
0007FFFFE000
0007FFFFFC00
0007FFFFFF00
0007FFFFFFE0
0007FFFFFFC0
0007FFFFFFC0
0007FFFFFF80
0007FFFFFF00
0007FFFFFC00
0007FFC00000
0007FFC00000
0007FFC00000
0007FF800000
0007FF800000
0007FF800000
0007FF800000
0007FF800000
0007FF800000
0007FF800000
0007FF800000
0007FF800000
0007FF800000
0007FF800000
0007FF800000
0007FF800000
0007FF800000
0003FF800000
0003FF800000
0003FF800000
0003FF800000
0003FF800000
0003FF800000
0003FF800000
0003FF000000
C003FF000000
E003FF000000
7003FF000000
7C03FF000000
7E03FF000000
7F03FF000000
3F83FF000000
3FE3FF000000
3FF3FF000000
3FFBFF000000
1FFFFF000000
1FFFFF000000
1FFFFF000000
1FFFFF000000
0FFFFF000000
0FFFFF000000
0FFFFF000000
0FFFFF000000
07FFFF000000
07FFFF000000
07FFFF000000
07FFFF000000
03FFFF000000
03FFFE000000
03FFFE000000
03FFFE000000
01FFFE000000
01FFFE000000
01FFFE000000
01FFFE000000
00FFFE000000
00FFFE000000
00FFFE000000
00FFFE000000
007FFE000000
007FFE000000
007FFE000000
007FFE000000
003FFE000000
003FFE000000
003FFE000000
003FFE000000
001FFE000000
001FFE000000
001FFE000000
001FFE000000
000FFE000000
000FFC000000
000FFC000000
000FFC000000
0007FC000000
0007FC000000
0007FC000000
0007F8000000
0003F0000000
0003E0000000
000380000000
000300000000
ENDCHAR
STARTCHAR c
ENCODING 99
SWIDTH 510 0
DWIDTH 69 0
BBX 42 134 13 0
BITMAP
0007C0000000
000FF8000000
003FFE000000
00FFFFC00000
01FFFFF00000
07FFFFF80000
1FFFFFF80000
3FFFFFF00000
FFFFFFC00000
FFFFFC000000
FFFF00000000
FFFE00000000
FFFE00000000
FFFE00000000
FFFE00000000
FFFE00000000
FFFE00000000
FFFE00000000
FFFE00000000
FFFE00000000
FFFC00000000
FFFC00000000
FFFC00000000
FFFC00000000
7FFC00000000
7FFC00000000
7FFC00000000
7FFC00000000
7FFC00000000
7FFC00000000
7FFC00000000
7FFC00000000
7FFC00000000
7FFC00000000
7FFC00000000
7FFC00000000
7FFC00000000
7FFC00000000
7FFC00000000
7FFC00000000
7FFC00000000
7FFC00000000
7FF800000000
7FF800000000
7FF800000000
7FF800000000
7FF800000000
7FF800000000
7FF800000000
7FF800000000
7FF800000000
7FF800000000
7FF800000000
7FF800000000
7FF800000000
7FF800000000
7FF800000000
7FF800000000
7FF800000000
7FF800000000
7FF800000000
7FF800000000
7FF800000000
7FF800000000
7FF800000000
7FF800000000
7FF000000000
7FF000000000
7FF000000000
7FF000000000
7FF000000000
7FF000000000
7FF000000000
7FF000000000
7FF000000000
7FF000000000
7FF000000000
7FF000000000
7FF000000000
7FF000000000
7FF000000000
7FF000000000
7FF000000000
7FF000000000
7FF000000000
7FF000000000
7FF000000000
7FF000000000
7FF000000000
7FF000000000
7FF000000000
7FF000000000
7FE000000000
7FE000000000
3FE000000000
3FE000000000
3FE000000000
3FE000000000
3FE000000000
3FE000000000
3FE000000000
3FE000000000
3FE000000000
3FE000000000
3FE000000000
3FE000000000
3FE000000000
3FE000000000
3FE000000000
3FE000000000
3FE000000000
3FE000000000
3FE000000000
3FE000000000
3FE000000180
3FE000000780
3FE000000F80
3FE000001F80
3FE000001FC0
3FE000001FC0
3FE000003FC0
3FFE00003FC0
3FFFFC003FC0
3FFFFFF07FC0
1FFFFFFFFFC0
1FFFFFFFFFC0
0FFFFFFFFFC0
07FFFFFFFFC0
07FFFFFFFFC0
03FFFFFFFFC0
01FFFFFFFF00
00FFFFFE0000
007FF8000000
007800000000
ENDCHAR
STARTCHAR d
ENCODING 100
SWIDTH 510 0
DWIDTH 69 0
BBX 50 135 9 -2
BITMAP
000000001C0000
000000003F0000
00000000FFE000
00000003FFFC00
04000007FFFF80
0700001FFFFFC0
0780003FFFFFC0
07C000FFFFFF80
07E003FFFFFF00
07F003FFFFFC00
07F003FFFF0000
0FF003FFF00000
0FF003FFF00000
0FF003FFF00000
0FF003FFF00000
0FF003FFF00000
0FF003FFF00000
0FF003FFF00000
0FF003FFF00000
0FF003FFF00000
0FF003FFF00000
0FF003FFF00000
0FF003FFE00000
0FF003FFE00000
0FF003FFE00000
0FF803FFE00000
0FF803FFE00000
0FF803FFE00000
0FF803FFE00000
0FF803FFE00000
0FF803FFE00000
0FF803FFE00000
0FF803FFE00000
0FF803FFE00000
0FF803FFE00000
0FF803FFE00000
1FF803FFE00000
1FF803FFE00000
1FF803FFE00000
1FF803FFE00000
1FF803FFE00000
1FF803FFE00000
1FF803FFE00000
1FF803FFE00000
1FF803FFE00000
1FF803FFC00000
1FF803FFC00000
1FF803FFC00000
1FF803FFC00000
1FF803FFC00000
1FF803FFC00000
1FF803FFC00000
1FF803FFC00000
1FF803FFC00000
1FF803FFC00000
1FF803FFC00000
1FF803FFC00000
1FF803FFC00000
1FF803FFC00000
1FF803FFC00000
1FF803FFC00000
1FF803FFC00000
3FF803FFC00000
3FF803FFC00000
3FF803FFC00000
3FF803FFC00000
3FF803FFC00000
3FF803FFC00000
3FF803FF800000
3FF803FF800000
3FF803FF800000
3FF803FF800000
3FFC03FF800000
3FFC03FF800000
3FFC01FF800000
3FFC01FF800000
3FFC01FF800000
3FFC01FF800000
3FFC01FF800000
3FFC01FF800000
3FFC01FF800000
3FFC01FF800000
3FFC01FF800000
3FFC01FF800000
3FFC01FF800000
3FFC01FF800000
3FFC01FF800000
3FFC01FF800000
7FFC01FF800000
7FFC01FF800000
7FFC01FF800000
7FFC01FF000000
7FFC01FF000000
7FFC01FF000000
7FFC01FF000000
7FFC01FF000000
7FFC01FF000000
7FFC01FF000000
7FFC01FF000000
7FFC01FF000000
7FFC01FF000000
7FFC01FF000000
7FFC01FF000000
7FFC01FF000000
7FFC01FF000000
7FFC01FF000000
7FFC01FF000000
7FFC01FF000000
7FFC01FF000000
7FFC01FF000000
7FFC01FF000000
7FFC01FF000000
7FFC01FF000000
7FFE01FF000C00
7FFE01FF003E00
7FFE01FE007E00
7FFE01FE00FE00
7FFE01FE01FE00
FFFE01FE01FE00
FFFE01FE01FE00
FFFFC1FE01FE00
FFFFFFFE03FE00
FFFFFFFF03FE00
FFFFFFFFFFFE00
FFFFFFFFFFFE00
7FFFFFFFFFFE00
7FFFFFFFFFFE00
3FFFFFFFFFFE00
0FFFFFFFFFFE00
07FFFFFFFFFC00
03FFFFFFFE0000
01FFFFFF000000
00FFFFC0000000
007FE000000000
00300000000000
ENDCHAR
STARTCHAR e
ENCODING 101
SWIDTH 510 0
DWIDTH 69 0
BBX 45 135 12 -1
BITMAP
000000038000
0000000FF000
0000003FFE00
0000007FFF80
000001FFFFF0
000007FFFFF8
00000FFFFFF8
00003FFFFFF0
00007FFFFFE0
0000FFFFFF00
0003FFFFC000
000FFFFE0000
003FFFFC0000
01FFFFFC0000
0FFFFFFC0000
3FFFFFFC0000
FFFFFFFC0000
FFFFFFFC0000
FFFFFFFC0000
7FFFFFFC0000
1FFFFFFC0000
07FFFFFC0000
0000FFFC0000
0000FFFC0000
0000FFFC0000
0000FFFC0000
0000FFFC0000
0000FFFC0000
0000FFFC0000
0000FFFC0000
0000FFFC0000
0000FFFC0000
0000FFFC0000
0000FFFC0000
0000FFFC0000
0000FFF80000
0000FFF80000
0000FFF80000
0000FFF80000
0000FFF80000
0000FFF80000
0000FFF80000
0000FFF80000
0000FFF80000
0000FFF80000
0000FFF80000
0000FFF80000
0000FFF80000
0000FFF80000
0000FFF80000
0000FFF80000
0000FFF80000
0000FFF80000
0000FFF80000
0000FFF80000
0000FFF80000
00007FF80000
00007FF80000
00007FF80000
00007FF00000
00007FF00000
00007FF00000
00007FF00000
00007FF00000
00007FF00000
00007FF00000
00007FF00000
00007FF00000
00007FF00000
00007FF00000
00007FF00000
00007FF00000
00007FF00000
00007FF00000
00007FF00000
00007FF00000
00007FF00000
00007FF00000
00007FF00000
00007FF00000
00007FF00000
00007FF00000
00007FE00000
00007FE00000
00007FE00000
00007FE00000
00007FE00000
00007FE00000
00007FE00000
00007FE00000
00007FE00000
00007FE00000
00007FE00000
00007FE00000
00007FE00000
00007FE00000
00007FE00000
00007FE00000
00007FE00000
00007FE00000
00007FE00000
00007FE00000
00007FE00000
00007FE00000
00007FE00000
00007FE00000
00007FC00000
00007FC00000
00007FC00000
00007FC00000
00007FC00000
00007FC00000
00007FC00000
00007FC00000
00007FC00000
00007FC00000
00007FC00000
00007FC00000
00007FC00000
00007FC00000
00007FC00000
00007FC00000
00003FC00000
00003FC00000
00003FC00000
00003FC00000
00003FC00000
00003FC00000
00003FC00000
00003F800000
00003F000000
00003E000000
00003C000000
000030000000
000020000000
ENDCHAR
STARTCHAR f
ENCODING 102
SWIDTH 510 0
DWIDTH 69 0
BBX 60 134 4 1
BITMAP
000003C000000000
000007FF80000000
00000FFFFE000000
00001FFFFFFC0000
00003FFFFFFFF000
0000FFFFFFFFFFC0
0001FFFFFFFFFFF0
0003FFFFFFFFFFF0
0007FFFFFFFFFFF0
000FFFFFFFFFFFF0
000FFFFFFFFFFFF0
000FFFFFFFFFFFF0
000FFFFFFFFC3FF0
000FFFFFFE001FF0
000FFFFF80001FF0
000FFFE000001FF0
000FFFE000000FF0
000FFFE000000FF0
000FFFE000000FF0
000FFFE0000007F0
000FFFC0000003F0
000FFFC0000000E0
000FFFC000000020
000FFFC000000000
000FFFC000000000
000FFFC000000000
000FFFC000000000
000FFFC000000000
000FFFC000000000
000FFFC000000000
000FFFC000000000
800FFFC000000000
600FFFC000000000
700FFFC000000000
780FFFC000000000
7E0FFFC000000000
7F0FFFC000000000
3F8FFFC000000000
3FC7FFC000000000
3FF7FFC000000000
3FFFFFC000000000
1FFFFFC000000000
1FFFFFC000000000
1FFFFFC000000000
1FFFFFC000000000
1FFFFFC000000000
0FFFFFC000000000
0FFFFFC000000000
0FFFFFC000000000
0FFFFFC000000000
07FFFFC000000000
07FFFF8000000000
07FFFF8000000000
07FFFF8000000000
03FFFF8000000000
03FFFF8000000000
03FFFF8000000000
03FFFF8000000000
01FFFF8000000000
01FFFF8000000000
01FFFF8000000000
01FFFF8000000000
00FFFF8000000000
00FFFF8000000000
00FFFF8000000000
00FFFF8000000000
007FFF8000000000
007FFF8000000000
007FFF8000000000
007FFF8000000000
003FFF8000000000
003FFF8000000000
003FFF8000000000
003FFF8000000000
001FFF8000000000
001FFF8000000000
001FFF8000000000
001FFF8000000000
000FFF8000000000
000FFF8000000000
000FFF8000000000
000FFF8000000000
0007FF8000000000
0007FF8000000000
0007FF0000000000
0007FF0000000000
0003FF0000000000
0003FF0000000000
0003FF0000000000
0003FF0000000000
0003FF0000000000
0003FF0000000000
0003FF0000000000
0003FF0000000000
0003FF0000000000
0003FF0000000000
0003FF0000000000
0003FF0000000000
0003FF0000000000
0003FF0000000000
0003FF0000000000
0003FF0000000000
0003FF0000000000
0003FF0000000000
0003FF0000000000
0001FF0000000000
0001FF0000000000
0001FF0000000000
0001FF0000000000
0001FF0000000000
0001FF0000000000
0001FF0000000000
0001FF0000000000
0001FF0000000000
0001FF0000000000
0001FF0000000000
0001FF0000000000
0001FF0000000000
0001FF0000000000
0001FE0000000000
0001FE0000000000
0001FE0000000000
0001FE0000000000
0001FE0000000000
0001FE0000000000
0001FE0000000000
0001FE0000000000
0001FE0000000000
0001FE0000000000
0001FE0000000000
0001FC0000000000
0001F00000000000
0001E00000000000
0001C00000000000
ENDCHAR
STARTCHAR g
ENCODING 103
SWIDTH 510 0
DWIDTH 69 0
BBX 51 134 9 1
BITMAP
00000080000000
000000C0000000
000000E0000000
000001F0000000
000001F8000000
000001FC000000
000001FE000000
000001FE000000
000001FE000000
000001FE000000
000001FE000000
000001FE000000
000001FE000000
000001FE000000
000001FE000000
000001FE000000
000001FE000000
000001FE000000
000001FF000000
000001FF000000
000001FF000000
000001FF000000
000001FF000000
000001FF000000
000001FF000000
000001FF000000
000001FF000000
000001FF000000
000001FF000000
000001FF000000
000001FF000000
000001FF000000
000001FF000000
000001FF000000
000001FF000000
000001FF000000
000001FF000000
000001FF000000
000001FF000000
000001FF000000
000001FF000000
000001FF000000
000001FF000000
000001FF000000
000001FF000000
000001FF000000
000001FF000000
000001FF000000
000001FF000000
000001FF000000
000001FF000000
000001FF000000
000001FF800000
000001FF800000
000001FF800000
000001FF800000
000001FF800000
000001FF800000
000001FF800000
000001FF800000
000001FF800000
000001FF800000
000001FF800000
000001FF800000
000001FF800000
000001FF800000
000001FFC00000
000001FFC00000
800001FFC00000
C00001FFE00000
E00000FFE00000
780000FFE00000
7C0000FFF00000
7E0000FFF00000
7F00007FF00000
3FC0007FF80000
3FE0007FF80000
3FF0003FF80000
1FFC003FFC0000
1FFE003FFC0000
1FFF001FFC0000
0FFF001FFE0000
0FFF001FFE0000
0FFF001FFE0000
07FF000FFF0000
07FF000FFF0000
07FE000FFF0000
03FE0007FF8000
03FE0007FF8000
03FE0007FF8000
01FE0007FFC000
01FE0003FFC000
01FE0003FFC000
01FC0003FFE000
00FC0001FFE000
00FC0001FFE000
00FC0001FFF000
007C0000FFF000
007C0000FFF000
007C0000FFF800
003C0000FFF800
003800007FF800
003800007FFC00
001800007FFC00
001800003FFC00
000800003FFE00
001000003FFE00
000000003FFE00
000000001FFF00
000000001FFF00
000000001FFF00
000000000FFF80
000000000FFF80
000000000FFF80
040000000FFFC0
0700000007FFC0
0780000007FFC0
0FC0000007FFE0
0FE0000007FFE0
0FE0000003FFE0
0FE0000007FFC0
0FF000003FFF80
0FF0001FFFFF00
0FF007FFFFFE00
0FFBFFFFFFFC00
0FFFFFFFFFF800
1FFFFFFFFFF000
1FFFFFFFFFE000
1FFFFFFFFFC000
1FFFFFFFFF8000
1FFFFFFFFF0000
003FFFFFFE0000
00001FFFFE0000
00000007FC0000
ENDCHAR
STARTCHAR h
ENCODING 104
SWIDTH 510 0
DWIDTH 69 0
BBX 49 135 10 -1
BITMAP
00038000000000
000FF000000000
003FFE00000000
007FFF80000000
01FFFFF0000000
03FFFFFC000000
0FFFFFF8000000
3FFFFFF0000000
7FFFFFE0000000
FFFFFF80000000
FFFFC000000000
FFFE0000000000
FFFE0000000000
FFFE0000000000
FFFE0000000000
FFFE0000000000
FFFE0000000000
FFFE0000000000
FFFE0000000000
FFFE0000000000
FFFC0000000000
FFFC0000000000
FFFC0000000000
FFFC0000000000
FFFC0000000000
FFFC0000000000
FFFC0000000000
FFFC0000000000
7FFC0000000000
7FFC0000000000
7FFC0000000000
7FFC0000000000
7FFC0000000000
7FFC0000000000
7FFC0000000000
7FFC0000000000
7FFC0000000000
7FFC0000000000
7FFC6000000000
7FFC3800010000
7FFC3C00018000
7FFC3E0001C000
7FFC1F8001E000
7FF81FC001F000
7FF81FE001F800
7FF80FF001F800
7FF80FFC01F800
7FF80FFE01F800
7FF807FF01F800
7FF807FF81F800
7FF807FFC1F800
7FF807FFC1F800
7FF803FFC1F800
7FF803FF81FC00
7FF803FF81FC00
7FF801FF81FC00
7FF801FF81FC00
7FF801FF81FC00
7FF800FF81FC00
7FF800FF81FC00
7FF800FF81FC00
7FF8007F01FC00
7FF8007F01FC00
7FF8007F01FC00
7FF8003F01FC00
7FF8003F01FC00
7FF8003F01FC00
7FF0001F03FC00
7FF0001E03FC00
7FF0001E03FC00
7FF0000E03FC00
7FF0000E03FC00
7FF0000E03FC00
7FF0000603FC00
7FF0000603FC00
7FF0000403FC00
7FF0000003FC00
7FF0000003FE00
7FF0000003FE00
7FF0000003FE00
7FF0000003FE00
7FF0000003FE00
7FF0000003FE00
7FF0000003FE00
7FF0000003FE00
7FF0000003FE00
7FF0000003FE00
7FF0000003FE00
7FF0000003FE00
7FF0000003FE00
7FF0000003FE00
7FE0000003FE00
7FE0000003FE00
7FE0000003FE00
7FE0000003FE00
7FE0000003FE00
7FE0000003FE00
7FE0000003FE00
7FE0000003FE00
7FE0000003FE00
3FE0000003FE00
3FE0000003FE00
3FE0000003FF00
3FE0000003FF00
3FE0000003FF00
3FE0000003FF00
3FE0000003FF00
3FE0000003FF00
3FE0000003FF00
3FE0000003FF00
3FE0000003FF00
3FE0000003FF00
3FE0000003FF00
3FE0000003FF00
3FE0000003FF00
3FC0000003FF00
3FC0000003FF00
3FC0000003FF00
3FC0000003FF00
3FC0000003FF00
3FC0000003FF00
3FC0000003FF00
3FC0000003FF00
3FC0000003FF00
3FC0000003FF00
3FC0000001FF00
3FC0000000FF00
3FC00000007F00
3FC00000003F80
3FC00000000F80
3F800000000780
3F000000000380
3C000000000080
38000000000000
20000000000000
ENDCHAR
STARTCHAR i
ENCODING 105
SWIDTH 510 0
DWIDTH 69 0
BBX 48 134 10 0
BITMAP
000000001800
000000007800
00000000F800
00000003F800
00000007F800
0000001FF800
0000007FF800
000000FFF800
000003FFF800
000003FFF800
000003FFF800
000003FFF800
000003FFF800
000003FFF000
000003FFF000
000003FFF000
000003FFF000
000003FFF000
000003FFF000
000003FFF000
000003FFF000
000003FFF000
000003FFF000
000003FFF000
000003FFF000
000003FFF000
000003FFF000
000003FFF000
000003FFF000
000003FFF000
000003FFF000
000003FFF000
000003FFF000
000003FFF000
000003FFF000
000003FFF000
000003FFF000
000003FFE000
000003FFE000
000003FFE000
000003FFE000
000003FFE000
000003FFE000
000003FFE000
000003FFE000
000003FFE000
000003FFE000
000003FFE000
000001FFE000
000001FFE000
000001FFE000
000001FFE000
000001FFE000
000001FFE000
000001FFE000
000001FFE000
000001FFE000
000001FFE000
000001FFE000
000001FFE000
000001FFE000
000001FFC000
000001FFC000
000001FFC000
000001FFC000
000001FFC000
000001FFC000
000001FFC000
000001FFC000
000001FFC000
000001FFC000
000001FFC000
000001FFC000
000001FFC000
000001FFC000
000001FFC000
000001FFC000
000001FFC000
000001FFC000
000001FFC000
000001FFC000
000001FFC000
000001FFC000
000001FF8000
000001FF8000
000001FF8000
000001FF8000
000001FF8000
000001FF8000
000001FF8000
000001FF8000
000001FF8000
000001FF8000
000001FFC000
000001FFFC00
000001FFFF80
000001FFFFF0
000001FFFFFC
000003FFFFFE
000007FFFFFF
00000FFFFFFF
00001FFFFFFF
00003FFFFFFC
00007FFFFFE0
00007FFFFF80
0000FFFFFC00
0001FFFFE000
0003FFFF8000
0007FFFF8000
000FFFFF8000
001FFFFF8000
003FFFFF8000
003FFFFF0000
007FFFFF0000
00FFFFFF0000
01FFFFFF0000
03FFFDFF0000
07FFF9FF0000
0FFFF1FF0000
1FFFC1FF0000
1FFF81FF0000
1FFE01FF0000
1FFC01FF0000
3FF801FF0000
3FE000FF0000
3FC000FF0000
7F8000FF0000
7E0000FF0000
7C0000FF0000
700000FE0000
E00000FC0000
800000F00000
000000E00000
000000C00000
ENDCHAR
STARTCHAR j
ENCODING 106
SWIDTH 510 0
DWIDTH 69 0
BBX 30 135 19 0
BITMAP
00018000
0007F000
001FFE00
003FFFC0
00FFFFF0
03FFFFFC
07FFFFFC
1FFFFFF8
3FFFFFF0
FFFFFF80
FFFFE000
FFFE0000
FFFE0000
7FFE0000
7FFE0000
7FFE0000
7FFE0000
7FFE0000
7FFE0000
7FFE0000
7FFE0000
7FFE0000
7FFE0000
7FFE0000
7FFE0000
7FFE0000
7FFE0000
7FFE0000
7FFE0000
7FFE0000
7FFE0000
7FFC0000
7FFC0000
7FFC0000
7FFC0000
7FFC0000
7FFC0000
7FFC0000
7FFC0000
7FFC0000
7FFC0000
7FFC0000
7FFC0000
7FFC0000
7FFC0000
7FFC0000
7FFC0000
7FFC0000
7FFC0000
7FFC0000
7FFC0000
7FFC0000
7FFC0000
7FFC0000
7FF80000
7FF80000
7FF80000
7FF80000
7FF80000
7FF80000
7FF80000
7FF80000
7FF80000
7FF80000
7FF80000
7FF80000
3FF80000
3FF80000
3FF80000
3FF80000
3FF80000
3FF80000
3FF80000
3FF80000
3FF80000
3FF80000
3FF80000
3FF00000
3FF00000
3FF00000
3FF00000
3FF00000
3FF00000
3FF00000
3FF00000
3FF00000
3FF00000
3FF00000
3FF00000
3FF00000
3FF00000
3FF00000
3FF00000
3FF00000
3FF00000
3FF00000
3FF00000
3FF00000
3FF00000
3FF00000
3FF00000
3FF00000
3FE00000
3FE00000
3FE00000
3FE00000
3FE00000
3FE00000
3FE00000
3FE00000
3FE00000
3FE00000
3FE00000
3FE00000
3FE00000
3FE00000
3FE00000
3FE00000
3FE00000
3FE00000
3FE00000
3FE00000
3FE00000
3FE00000
3FE00000
3FE00000
3FE00000
3FE00000
3FC00000
3FC00000
3F800000
3F000000
3E000000
18000000
10000000
ENDCHAR
STARTCHAR k
ENCODING 107
SWIDTH 510 0
DWIDTH 69 0
BBX 48 135 11 0
BITMAP
00000000E000
00000003FC00
0000000FFF00
0000001FFFE0
0000007FFFF8
000001FFFFFF
000003FFFFFE
00000FFFFFFC
00003FFFFFF8
00003FFFFFE0
00003FFFF000
00003FFF8000
00003FFF8000
00003FFF8000
00003FFF0000
00003FFF0000
00003FFF0000
00003FFF0000
00003FFF0000
00003FFF0000
00003FFF0000
00003FFF0000
00003FFF0000
00003FFF0000
00003FFF0000
00003FFF0000
00003FFF0000
00003FFF0000
80003FFF0000
C0003FFF0000
F0003FFF0000
78003FFF0000
7C003FFF0000
7F003FFF0000
7F803FFF0000
3FE03FFF0000
3FF03FFF0000
3FF83FFF0000
1FFE3FFE0000
1FFF3FFE0000
1FFFBFFE0000
0FFFFFFE0000
07FFFFFE0000
07FFFFFE0000
03FFFFFE0000
01FFFFFE0000
00FFFFFE0000
007FFFFE0000
003FFFFE0000
001FFFFE0000
000FFFFE0000
000FFFFE0000
0007FFFE0000
0003FFFE0000
0001FFFE0000
0000FFFE0000
00007FFE0000
00003FFE0000
00001FFE0000
00001FFE0000
00001FFE0000
00001FFE0000
00001FFE0000
00001FFC0000
00001FFC0000
00001FFC0000
00001FFC0000
00001FFC0000
00001FFC0000
00001FFC0000
00001FFC0000
00001FFC0000
00001FFC0000
0000FFFC0000
0007FFFC0000
003FFFFC0030
01FFFFFC0060
07FFFFFC00E0
3FFFFFFC03E0
FFFFFFFC07E0
FFFFFFFC0FC0
7FFFFFFC1FC0
7FFFFFFC7FC0
3FFFFFFCFF80
07FFFFFDFF80
0027FFFFFF80
00001FFFFF80
00001FFFFF00
00001FFFFF00
00001FFFFF00
00001FFFFE00
00001FFFFE00
00001FFFFE00
00001FFFFC00
00001FFFFC00
00007FFFFC00
0003FFFFFC00
001FFFFFF800
00FFFFFFF800
03FFFFFFF800
1FFFFFFFF000
FFFFFFFFF000
FFFFFFFFF000
FFFFFFFFF000
7FFFFFFFE000
3FFFFFFFE000
0FFFFFFFE000
0000FFFFC000
00001FFFC000
00001FFFC000
00001FFF8000
00001FFF8000
00001FFF8000
00001FFF8000
00001FFF0000
00001FFF0000
00001FFF0000
00001FFE0000
00001FFE0000
00001FFE0000
00001FFC0000
00000FFC0000
00000FFC0000
00000FFC0000
00000FF80000
00000FF80000
00000FF80000
00000FF00000
00000FF00000
00000FF00000
00000FC00000
00000F800000
00000F000000
00000E000000
000008000000
ENDCHAR
STARTCHAR l
ENCODING 108
SWIDTH 510 0
DWIDTH 69 0
BBX 55 134 7 0
BITMAP
0000000C000000
0000001C000000
0000003C000000
000000FC000000
000001FC000006
000001FC00000E
000001FC00003C
000003FC0000FC
000003FC0001FC
000003FC0007F8
000003FC001FF8
000003FC003FF8
000003FC00FFF0
000003FC03FFF0
000003FC07FFF0
000003FC1FFFE0
000003FE3FFFE0
000003FEFFFFC0
000003FFFFFF80
000003FFFFFF00
000003FFFFFE00
000003FFFFF800
000007FFFFF000
000007FFFFE000
000007FFFFC000
000007FFFF8000
00001FFFFF0000
0001FFFFFE0000
000FFFFFFC0000
007FFFFFF80000
07FFFFFFF00000
07FFFFFFE00000
07FFFFFFC00000
03FFFFFF800000
01FFFFFF000000
00FFFFFE000000
001FFFFE000000
0007FFFE000000
0000FFFE000000
00003FFE000000
00000FFE000000
000007FE000000
000007FE000000
000007FE000000
000007FE000000
00000FFE000000
00000FFE000000
00000FFE000000
00000FFE000000
00000FFE000000
00000FFE000000
00000FFE000000
00000FFE000000
00000FFE000000
00000FFE000000
00000FFE000000
00000FFE000000
00000FFE000000
00000FFE000000
00000FFE000000
00000FFE000000
00000FFE000000
00000FFE000000
00000FFE000000
00000FFE000000
00000FFE000000
00000FFE000000
00000FFE000000
00000FFE000000
00000FFE000000
00000FFE000000
00000FFE000000
00001FFE000000
00001FFE000000
00007FFE000000
0003FFFE000000
001FFFFE000000
00FFFFFE000000
07FFFFFE000000
1FFFFFFE000000
FFFFFFFE000000
FFFFFFFE000000
7FFFFFFE000000
7FFFFFFE000000
1FFFFFFE000000
0FFFFFFE000000
00001FFE000000
00001FFE000000
00001FFE000000
00001FFE000000
00001FFE000000
00001FFE000000
00001FFF000000
00003FFF000000
00007FFF000000
0001FFFF000000
000FFFFF000000
007FFFFF000000
03FFFFFF000000
0FFFFFFF000000
7FFFFFFF000000
FFFFFFFF000000
7FFFFFFF000000
7FFFFFFF000000
3FFFFFFF000000
0FFFFFFF000000
01FFFFFF000000
00003FFF000000
00003FFF000000
00003FFF000000
00003FFF000000
00003FFF000000
00003FFF000000
00003FFF000000
00003FFF000000
00003FFF000000
00003FFF000000
00003FFF000000
00007FFF000000
00007FFF000000
00007FFF000000
00007FFF000000
00007FFF000000
00007FFF000000
00007FFF000000
00007FFF000000
00007FFC000000
00007FF8000000
00007FE0000000
00007F80000000
00007F00000000
00007C00000000
00007000000000
00004000000000
ENDCHAR
STARTCHAR m
ENCODING 109
SWIDTH 510 0
DWIDTH 69 0
BBX 51 135 9 0
BITMAP
000000001E0000
000000007F8000
00000000FFF000
00000003FFFE00
00000007FFFF80
0000001FFFFFE0
0000007FFFFFC0
000000FFFFFF80
000003FFFFFF00
000003FFFFFC00
000003FFFF0000
000003FFF00000
000003FFF00000
000003FFF00000
000003FFF00000
000003FFF00000
000003FFF00000
000003FFF00000
000003FFF00000
000003FFF00000
000003FFF00000
000003FFF00000
000003FFF00000
000003FFF00000
000003FFF00000
000003FFF00000
000003FFF00000
000003FFF00000
000003FFE00000
000003FFE00000
000003FFE00000
000003FFE00000
000003FFE00000
000003FFE00000
000003FFE00000
000003FFE00000
000003FFE00000
000003FFE00000
C00003FFE00000
E00003FFE00000
F00003FFE00000
7C0003FFE00000
7E0003FFE00000
7F0003FFE00000
3F8003FFE00000
3FE003FFE00000
3FF003FFE00000
1FF803FFE00000
1FFC03FFE00000
1FFF03FFE00000
0FFF03FFC00000
0FFF03FFC00000
0FFF03FFC00000
07FF03FFC00000
07FF03FFC00000
07FF03FFC00000
07FE03FFC00000
03FE03FFC00000
03FE03FFC00000
03FE03FFC00000
01FE03FFC00000
01FE03FFC00000
01FE03FFC00000
00FC03FFC00000
00FC03FFC00000
00FC03FFC00000
007C03FFC00000
007C03FFC00000
007C03FFC00000
003C03FFC00000
003803FFC00000
003803FFC00000
001801FFC00000
001801FF800000
001801FF800000
000801FF800000
000001FF800000
000001FF800000
000001FF800000
000001FF800000
000001FF800000
000001FF800000
000001FF800000
000001FF800000
000001FF800000
000001FF800000
000001FF800000
000001FF800000
000001FF800000
000001FF800000
000001FF800000
000001FF800000
000001FF800000
000001FF800000
000001FF800000
000001FF800000
000001FF000000
000001FF000000
000001FF000000
000001FF000000
000001FF000000
000001FF000000
000001FF000000
000001FF000000
000001FF000000
000001FF000000
000001FF000000
000001FF000000
000001FF000000
000001FF000000
000001FF000000
000001FF000000
000001FF000000
000001FF000000
000001FF000000
000001FF000000
000001FF000000
000001FF000000
000001FF000000
000001FF000000
000001FE000000
000000FE000000
000000FE000000
000000FE000000
000000FFFF0000
000000FFFFFC00
000000FFFFFF00
0000007FFFFFC0
0000001FFFFFC0
0000000FFFFFE0
00000003FFFF80
00000001FFFC00
000000007FF000
000000003F8000
000000001C0000
ENDCHAR
STARTCHAR n
ENCODING 110
SWIDTH 510 0
DWIDTH 69 0
BBX 51 135 9 0
BITMAP
000000001C0000
000000003F8000
00000000FFF000
00000003FFFE00
00000007FFFF80
0000001FFFFFE0
0000007FFFFFE0
000000FFFFFFC0
000003FFFFFF80
000007FFFFFC00
000007FFFF0000
000007FFF00000
000007FFF00000
000007FFF00000
000007FFF00000
000003FFF00000
000003FFF00000
000003FFF00000
000003FFF00000
000003FFF00000
000003FFF00000
000003FFF00000
000003FFF00000
000003FFF00000
000003FFF00000
000003FFF00000
000003FFF00000
000003FFF00000
000003FFE00000
000003FFE00000
000003FFE00000
000003FFE00000
000003FFE00000
000003FFE00000
000003FFE00000
000003FFE00000
000003FFE00000
000003FFE00000
800003FFE00000
E00003FFE00000
F00003FFE00000
780003FFE00000
7E0003FFE00000
7F0003FFE00000
3F8003FFE00000
3FE003FFE00000
3FF003FFE00000
1FF803FFE00000
1FFC03FFE00000
1FFF03FFE00000
0FFF03FFE00000
0FFF03FFC00000
0FFF03FFC00000
0FFF03FFC00000
07FF03FFC00000
07FF03FFC00000
07FE03FFC00000
03FE03FFC00000
03FE03FFC00000
03FE03FFC00000
01FE03FFC00000
01FE03FFC00000
01FE03FFC00000
00FE03FFC00000
00FC03FFC00000
00FC03FFC00000
007C03FFC00000
007C03FFC00000
007C03FFC00000
003C03FFC00000
003C03FFC00000
003803FFC00000
001803FFC00000
001803FFC00000
001803FFC00000
000801FF800000
000001FF800000
000001FF800000
000001FF800000
000001FF800000
000001FF800000
000001FF800000
000001FF800000
000001FF800000
000001FF800000
000001FF800000
000001FF800000
000001FF800000
000001FF800000
000001FF800000
000001FF800000
000001FF800000
000001FF800000
000001FF800000
000001FF800000
000001FF800000
000001FF800000
000001FF800000
000001FF000000
000001FF000000
000001FF000000
000001FF000000
000001FF000000
000001FF000000
000001FF000000
000001FF000000
000001FF000000
000001FF000000
000001FF000000
000001FF000000
000001FF000000
000001FF000000
000001FF000000
000001FF000000
000001FF000000
000001FF000000
000001FF000000
000001FF000000
000001FF000000
000001FF000000
000001FF000000
000001FF000000
000001FF000000
000001FE000000
000001FE000000
000001FE000000
000001FE000000
000001FE000000
000001FE000000
000001FE000000
000001FC000000
000001F8000000
000001F0000000
000001C0000000
00000180000000
ENDCHAR
STARTCHAR o
ENCODING 111
SWIDTH 510 0
DWIDTH 69 0
BBX 58 134 5 0
BITMAP
00000000C0000000
00000000E0000000
0000E000F0000000
0007E000F8000000
0007E000FE000000
0007E000FF000000
0007E000FF000000
0007E000FF000000
0007E000FF000000
0007E000FF000000
0007E000FF000000
0007E000FF000000
0007E000FF000000
000FE000FF000000
000FE000FF000000
000FE000FF000000
000FE000FF000000
000FE000FF000000
000FE000FF000000
000FE000FF000000
000FE000FF000000
000FE000FF000000
000FE000FF000000
000FE000FF000000
000FE001FF000000
000FE001FF000000
C00FE001FF000000
701FE001FF800000
7C1FE001FF800000
7E1FE001FF800000
7F9FE001FF800000
7FFFE001FF800000
3FFFE001FF800000
3FFFE001FF800000
3FFFE001FF800000
3FFFE001FF800000
3FFFE001FF800000
1FFFE001FF800000
1FFFE001FF800000
1FFFE001FF800000
1FFFE001FF800000
1FFFE001FF800000
0FFFE001FF800000
0FFFE001FF800000
0FFFE001FF800000
0FFFE001FF800000
0FFFE001FF800000
07FFE001FF800000
07FFE001FF800000
07FFE001FF800000
07FFE001FF800000
07FFE001FF800000
07FFE001FF800000
03FFE001FF800000
03FFE001FF800000
03FFE001FF800000
03FFE001FF800000
03FFE001FF800000
01FFE001FFC00000
01FFE001FFC00000
01FFE001FFC00000
01FFE001FFC00000
01FFE001FFC00000
00FFE001FFC00000
00FFE003FFC00000
00FFE003FFC00000
00FFE003FFC00000
00FFE003FFC00000
007FE003FFC00000
007FE003FFC00000
007FE003FFC00000
007FE003FFC00000
007FE003FFC00000
003FE003FFC00000
003FE003FFC00000
003FF803FFC00000
003FFE03FFC00000
003FFFC3FFC00000
001FFFF3FFC00000
001FFFFFFFC00000
001FFFFFFFC00000
001FFFFFFFC00000
001FFFFFFFC00000
000FFFFFFFC00000
000FFFFFFFC00000
000FFFF3FFC00000
000FE003FFC00000
000FE003FFC00000
000FE003FFC00000
0007E003FFE00000
0007E003FFE00000
0007E003FFE00000
0003E003FFE00000
0003E003FFE00000
0001E003FFE00000
0001E003FFE00000
0000E003FFE00000
0000E003FFE00000
00006003FFE00000
00006003FFE00000
00002003FFE00000
00000003FFE00000
00000003FFE00000
00000003FFE00000
00000003FFE00000
00000003FFE00000
00000003FFE00000
00000007FFE00000
00000007FFE00000
00000007FFE00000
00000007FFE00000
00000007FFE00000
00000007FFE00000
00000007FFE00000
00000007FFE00000
00000007FFE00000
00000007FFE00000
00000007FFE00000
00000007FFF00000
00000007FFF00000
00000007FFF00000
00000007FFF00000
00000007FFF00000
00000007FFFF0000
00000007FFFFFC00
00000003FFFFFF00
00000000FFFFFF80
000000003FFFFFC0
000000001FFFFFC0
0000000007FFFF00
0000000003FFF800
0000000000FFE000
00000000007F0000
0000000000180000
ENDCHAR
STARTCHAR p
ENCODING 112
SWIDTH 510 0
DWIDTH 69 0
BBX 55 134 7 0
BITMAP
00000008000000
0000000E000000
0000000F000000
0000000F800000
0000000FC00000
0000000FF00000
0000400FF00000
0000400FF00000
0000C00FF00000
0000C00FF00000
0001C00FF00000
0001C00FF00000
0003C00FF00000
0003C00FF00000
0007C00FF00000
0007C00FF00000
000FC00FF00000
000FC00FF00000
000FC00FF00000
000FC00FF00000
001FC00FF00000
001FC00FF00000
001FC00FF00000
001FC00FF00000
001FC00FF00000
003FC00FF00000
003FC00FF80000
003FC01FF80000
003FC01FF80000
003FC01FF80000
007FC01FF80000
007FC01FF80000
007FC01FF80000
007FC01FF80000
007FC01FF80000
007FC01FF80000
00FFC01FF80000
00FFC01FF80000
00FFC01FF80000
00FFC01FF80000
00FFC01FF80000
01FFC01FF80000
01FFC01FF80000
01FFC01FF80000
01FFC01FF80000
01FFC01FF80000
03FFC01FF80000
03FFC01FF80000
03FFC01FF80000
03FFC01FF80000
03FFC01FF80000
07FFC01FF80000
07FFC01FFC0000
07FFC01FFC0000
07FFC01FFC0000
07FFC01FFC0000
0FFFC01FFC0000
0FFFC01FFC0000
0FFFC01FFC0000
0FFFC01FFC0000
0FFFC01FFC0000
0FFFC01FFC0000
1FFFC01FFC0000
1FFFC01FFC0000
1FFFC01FFC0000
1FFFC01FFC0000
1FFFC01FFC0000
3FFFC01FFC0000
3FFFC01FFC0000
3FFFC01FFC0000
3FFFC01FFC0000
3FFFC01FFC0000
7FFFC01FFC0000
7FFFC01FFC0000
7FFFC01FFC0000
7FFFC01FFC0000
7FFFC01FFC0000
7FBFC01FFE0000
FE3FC01FFE0000
F83FC01FFE0000
F03FC03FFE0000
C01FC03FFE0000
001FC03FFE0000
001FC03FFE0000
001FC03FFE0000
001FC03FFE0000
001FC03FFE0000
001FC03FFE0000
001FC03FFE0000
001FC03FFE0000
001FC03FFE0000
001FC03FFE0000
001FC03FFE0000
001FC03FFE0000
001FC03FFE0000
000FC03FFE0000
000FC03FFE0000
000FC03FFE0000
000FC03FFE0000
000FC03FFE0000
000FC03FFE0000
000FC03FFE0000
000FC03FFF0000
000FC03FFF0000
0007C03FFF0000
0003C03FFF0000
0000003FFF0000
0000003FFF0000
0000003FFF0000
0000003FFF0000
0000003FFF0000
0000003FFF0000
0000003FFF0000
0000003FFF0000
0000003FFF0000
0000003FFF0000
0000003FFF0000
0000003FFF0000
0000003FFF0000
0000003FFF0000
0000003FFF0000
0000003FFF0000
0000003FFF8000
0000003FFFE000
0000003FFFFFC0
0000003FFFFFF0
0000000FFFFFF8
00000003FFFFFC
00000001FFFFFE
000000007FFFF8
000000003FFFE0
000000000FFF00
0000000003F800
0000000001C000
ENDCHAR
STARTCHAR q
ENCODING 113
SWIDTH 510 0
DWIDTH 69 0
BBX 47 135 11 -1
BITMAP
00000001E000
00000003FC00
0000000FFF00
0000003FFFE0
0000007FFFF8
000001FFFFFE
000007FFFFFE
00000FFFFFFC
00003FFFFFF8
00003FFFFFC0
00003FFFF000
00003FFF0000
00003FFF0000
00003FFF0000
00003FFF0000
00003FFF0000
00003FFF0000
00003FFF0000
00003FFF0000
00003FFF0000
00003FFF0000
00003FFF0000
00003FFF0000
00003FFF0000
00003FFF0000
00003FFF0000
00003FFF0000
00003FFF0000
00003FFF0000
C0003FFE0000
E0003FFE0000
F8003FFE0000
FC003FFE0000
7E003FFE0000
7F803FFE0000
7FC03FFE0000
3FE03FFE0000
3FF83FFE0000
3FFC3FFE0000
3FFF3FFE0000
1FFFBFFE0000
1FFFFFFE0000
0FFFFFFE0000
07FFFFFE0000
03FFFFFE0000
01FFFFFE0000
00FFFFFE0000
007FFFFE0000
003FFFFE0000
003FFFFE0000
001FFFFE0000
000FFFFE0000
0007FFFC0000
0003FFFC0000
0001FFFC0000
0000FFFC0000
0000FFFC0000
00007FFC0000
00003FFC0000
00003FFC0000
00003FFC0000
00003FFC0000
00003FFC0000
00003FFC0000
00003FFC0000
00003FFC0000
00003FFC0000
00003FFC0000
00003FFC0000
00003FFC0000
00003FFC0000
00003FFC0000
00003FFC0000
00003FFC0000
00003FFC0000
00001FFC0020
00001FFC00E0
00001FFC01E0
00001FF803C0
00001FF807C0
00001FF80FC0
00001FF83FC0
00001FF87F80
00001FF8FF80
00001FFBFF80
00001FFFFF00
00001FFFFF00
00001FFFFF00
00001FFFFF00
00001FFFFE00
00001FFFFE00
00001FFFFE00
00001FFFFC00
00001FFFFC00
00001FFFFC00
00001FFFF800
00001FFFF800
00001FFFF800
00001FFFF800
00001FFFF000
00001FFFF000
00001FFFF000
00001FFFE000
00001FFFE000
00001FFFE000
00001FFFC000
00001FFFC000
00001FFFC000
00001FFFC000
00001FFF8000
00001FFF8000
00001FFF8000
00001FFF0000
00001FFF0000
00001FFF0000
00001FFE0000
00001FFE0000
00001FFE0000
00001FFE0000
00001FFC0000
00001FFC0000
00001FFC0000
00001FF80000
00001FF80000
00001FF80000
00001FF00000
00001FF00000
00001FF00000
00001FF00000
00001FE00000
00001FC00000
00001F800000
00001F000000
00001C000000
000008000000
ENDCHAR
STARTCHAR r
ENCODING 114
SWIDTH 510 0
DWIDTH 69 0
BBX 43 134 13 1
BITMAP
0000000C0000
0000003F0000
000000FFE000
000001FFFC00
000007FFFF00
00000FFFFFE0
00003FFFFFE0
0000FFFFFFC0
0001FFFFFF00
0003FFFFFE00
0003FFFF8000
0003FFF00000
0003FFF00000
0003FFF00000
0003FFF00000
0003FFF00000
0003FFF00000
0003FFF00000
0003FFF00000
0003FFF00000
0003FFF00000
0003FFF00000
0003FFF00000
0003FFF00000
0003FFF00000
0003FFF00000
0003FFF00000
0003FFE00000
0003FFE00000
0003FFE00000
0003FFE00000
0003FFE00000
0003FFE00000
0003FFE00000
0003FFE00000
0003FFE00000
0003FFE00000
0003FFE00000
0003FFE00000
0003FFE00000
0003FFF00000
0003FFFE0000
0003FFFF8000
0003FFFFF000
0003FFFFFE00
0003FFFFFF80
0003FFFFFFE0
0003FFFFFFE0
0003FFFFFFC0
0003FFFFFF80
0003FFFFFF00
0003FFFFE000
0003FFC00000
0003FFC00000
0003FFC00000
0003FFC00000
0003FFC00000
0003FFC00000
0003FFC00000
0003FFC00000
0003FFC00000
0003FFC00000
0003FFC00000
0003FFC00000
0003FFC00000
0003FFC00000
0003FFC00000
0003FFC00000
0003FFC00000
0003FFC00000
0003FFC00000
0003FFC00000
0003FFC00000
0003FFE00000
0003FFFC0000
8003FFFF8000
C003FFFFF000
F003FFFFFC00
F803FFFFFF80
7C03FFFFFFE0
7E03FFFFFFE0
7F03FFFFFFC0
3FC3FFFFFF80
3FE3FFFFFF00
3FF3FFFFF800
3FFBFF800000
1FFFFF800000
1FFFFF800000
1FFFFF800000
0FFFFF800000
0FFFFF800000
0FFFFF800000
0FFFFF800000
07FFFF000000
07FFFF800000
07FFFFE00000
03FFFFFC0000
03FFFFFF8000
03FFFFFFF000
01FFFFFFFC00
01FFFFFFFF80
01FFFFFFFFE0
01FFFFFFFFE0
00FFFFFFFFC0
00FFFFFFFF80
00FFFFFFFF00
007FFFFFF800
007FFF000000
007FFF000000
003FFF000000
003FFF000000
003FFF000000
003FFF000000
001FFF000000
001FFF000000
001FFF000000
000FFF000000
000FFF000000
000FFF000000
000FFF000000
0007FE000000
0007FE000000
0007FE000000
0003FE000000
0003FE000000
0003FE000000
0003FE000000
0001FE000000
0001FE000000
0001FE000000
0001F8000000
0001F0000000
0000E0000000
000080000000
ENDCHAR
STARTCHAR s
ENCODING 115
SWIDTH 509 0
DWIDTH 69 0
BBX 49 135 10 -1
BITMAP
0000000C000000
0000001C000000
0000007C000000
000001FC000000
000003FC000080
00000FFC000380
00001FFC000700
00007FFC001F00
0000FFFC003F00
0001FFFC00FE00
0001FFFC01FE00
0001FFFC03FE00
0001FFF80FFE00
0001FFF81FFC00
0001FFF87FFC00
0001FFF8FFFC00
0001FFFDFFF800
0001FFFFFFF800
0001FFFFFFF000
0001FFFFFFE000
0001FFFFFFC000
0001FFFFFF8000
0001FFFFFF0000
0001FFFFFE0000
0001FFFFFE0000
0001FFFFFC0000
0001FFFFF80000
0001FFFFF00000
0001FFFFE00000
0003FFFFC00000
001FFFFF800000
007FFFFF800000
03FFFFFF000000
1FFFFFFE000000
7FFFFFFC000000
FFFFFFF8000000
7FFFFFF8000000
3FFFFFF8000000
1FFFFFF8000000
07FFFFF8000000
00FFFFF8000000
001FFFF0000000
0003FFF0000000
0001FFF0000000
0001FFF0000000
0001FFF0000000
0001FFF0000000
0001FFF0000000
0001FFF0000000
0001FFF0000000
0001FFF0000000
0001FFF0000000
0001FFF0000000
0001FFF0000000
0000FFF0000000
0000FFF0000000
0000FFF0000000
0000FFF0000000
0000FFF0000000
0000FFF0000000
0000FFE0000000
0000FFE0000000
0000FFE0000000
0000FFE0000000
0000FFE0000000
0000FFE0000000
0000FFE0000000
0000FFE0000000
0000FFE0000000
0000FFE0000000
0000FFE0000000
0000FFE0000000
0000FFE0000000
0000FFE0000000
0000FFE0000000
0000FFE0000000
0000FFE0000000
0000FFE0000000
0000FFE0000000
0000FFE0000000
0000FFE0000000
0000FFE0000000
0000FFE0000000
0000FFC0000000
0000FFC0000000
0000FFC0000000
0000FFC0000000
0000FFC0000000
0000FFC0000000
0000FFC0000000
0000FFC0000000
0000FFC0000000
0000FFC0000000
0000FFC0000000
0000FFC0000000
0000FFC0000000
0000FFC0000000
0000FFC0000000
0000FFC0000000
0000FFC0000000
0000FFC0000000
0000FFC0000000
0000FFC0000000
0000FFC0000000
0000FFC0000000
0000FFC0000000
0000FF80000000
0000FF80000000
0000FF80000000
0000FF80000000
0000FF80000000
0000FF80000000
0000FF80000000
0000FF80000000
0000FF80000000
0000FF80000000
0000FF80000000
0000FF80000000
0000FF80000000
0000FF80000000
00007F80000000
00007F80000000
00007F80000000
00007F80000000
00007F80000000
00007F80000000
00007F80000000
00007F80000000
00007F80000000
00007F00000000
00007E00000000
00007C00000000
00007000000000
00006000000000
00004000000000
ENDCHAR
STARTCHAR t
ENCODING 116
SWIDTH 510 0
DWIDTH 69 0
BBX 47 134 11 1
BITMAP
000000200000
000000600000
000000E00000
000001E00000
000003E00000
000007E00000
00000FF00000
00000FF00000
00000FF00000
00000FF00000
00000FF00000
00000FF00000
00000FF00000
00001FF00000
00001FF00000
00001FF00000
00001FF00000
00001FF00000
00001FF00000
00001FF00000
00001FF00000
00001FF00000
00001FF00000
00001FF00000
00001FF00000
00001FF00000
00001FF00000
00001FF00000
00001FF00000
00001FF00000
00001FF00000
00001FF00000
00001FF00000
00001FF00000
00001FF00000
00001FF00000
00001FF00000
00001FF00000
00001FF00000
00001FF00000
00001FF00000
00001FF00000
00001FF00000
00003FF00000
00003FF00000
00003FF00000
00003FF00000
00003FF00000
00003FF00000
00003FF00000
00003FF00000
00003FF00000
00003FF00000
00003FF00000
00003FF00000
00003FF00000
00003FF00000
00003FF00000
00003FF00000
00003FF00000
00003FF00000
00003FF00000
00003FF00000
00003FF00000
00003FF00000
00007FF00000
00007FF00000
00007FF00000
0000FFF00000
0000FFE00000
0000FFE00000
0001FFE00000
0001FFE00000
0001FFC00000
0003FFC00000
0003FFC00000
0003FF800000
0007FF800000
0007FF800000
0007FF000000
000FFF000000
000FFF000000
000FFF000000
001FFE000000
001FFE000000
001FFE000000
003FFC000000
003FFC000000
003FFC000000
007FFC000000
007FF8000000
007FF8000000
00FFF8000000
00FFF0000000
00FFF0000000
01FFF0000000
01FFE0000000
01FFE0000000
03FFE0000000
03FFE0000000
03FFC0000000
07FFC0000000
07FFC0000000
07FF80000000
0FFF80000000
0FFF80000000
0FFF00000000
1FFF00000000
1FFF00000000
1FFF00000000
3FFE00000000
3FFE00000000
3FFE00000000
7FFC00000000
7FFC0000000C
7FFC0000001C
FFF80000007C
FFF8000000FC
FFF8000000FC
FFF8000001FC
7FFC000001FE
3FFFC00001FE
1FFFFF0001FE
0FFFFFFE03FE
07FFFFFFFFFE
03FFFFFFFFFE
01FFFFFFFFFE
00FFFFFFFFFE
007FFFFFFFFE
003FFFFFFFFE
001FFFFFFFFE
000FFFFFFE00
0007FFFC0000
0003F8000000
ENDCHAR
STARTCHAR u
ENCODING 117
SWIDTH 510 0
DWIDTH 69 0
BBX 59 134 5 0
BITMAP
00000003C0000000
0000000FF8000000
0000001FFF000000
0000007FFFC00000
000000FFFFF80000
000003FFFFFC0000
00000FFFFFFC0000
00001FFFFFF80000
00007FFFFFE00000
0000FFFFFF000000
0003FFFF80000000
000FFFFE00000000
007FFFFE00000000
01FFFFFE00000000
0FFFFFFE00000000
3FFFFFFE00000000
FFFFFFFE00000000
FFFFFFFE00000000
7FFFFFFE00000000
3FFFFFFE00000000
1FFFFFFE00000000
01FFFFFE00000000
00007FFE00000000
00007FFE00000000
00007FFE00000000
00007FFE00000000
00007FFE00000000
00007FFE00000000
00007FFE00000000
00007FFE00000000
00007FFE00000000
00007FFE00000000
00007FFE00000000
00007FFC00000000
00007FFC00000000
00007FFC00000000
00007FFC00000000
00007FFC00000000
00007FFC00000000
00007FFC00000000
00007FFC00000000
00007FFC00000000
00007FFC00000000
00007FFC00000000
00007FFC00000000
00007FFC00000000
00007FFC00000000
00007FFC00000000
00007FFC00000000
00007FFC00000000
00007FFC00000000
00007FFC00000000
00007FFC00000000
00007FFC00000000
00007FFC00000000
00007FFC00000000
00003FFC00000000
00003FFC00000000
00003FFC00000000
00003FF800000000
00003FF800000000
00003FF800000000
00003FF800000000
00003FF800000000
00003FF800000000
00003FF800000000
00003FF800000000
00003FF800000000
00003FF800000000
00003FF800000000
00003FF800000000
00003FF800000000
00003FFF00000000
00003FFFE0000000
00003FFFFC000000
00003FFFFF000000
00003FFFFFE00000
00003FFFFFF80000
00003FFFFFFF0000
00003FFFFFFF8000
00003FFFFFFF0000
00003FFFFFFE0000
00003FFFFFFC0000
00003FFFFFF80000
00003FFFFF000000
00003FF000000000
00003FF000000000
00003FF000000000
00003FF000000000
00003FF000000000
00003FF000000000
00003FF000000000
00003FF000000000
00003FF000000000
00003FF000000000
00003FF000000000
00003FF000000000
00003FF000000000
00003FF000000000
00003FF000000000
00003FF000000000
00003FF000000000
00003FF000000000
00003FF000000000
00003FE000000000
00003FE000000000
00003FE000000000
00003FE000000000
00003FE000000000
00003FE000000000
00003FE000000000
00003FE000000000
00003FE000000000
00003FE000000000
00003FE0000000C0
00001FE0000001C0
00001FE0000007C0
00001FE000000FC0
00001FE000000FC0
00001FE000001FC0
00001FE000001FC0
00001FF000001FE0
00001FFFE0001FE0
00001FFFFF803FE0
00001FFFFFFF3FE0
00001FFFFFFFFFE0
00000FFFFFFFFFE0
000007FFFFFFFFE0
000007FFFFFFFFE0
000003FFFFFFFFE0
000001FFFFFFFFE0
000000FFFFFFF800
0000007FFFE00000
0000007FC0000000
ENDCHAR
STARTCHAR v
ENCODING 118
SWIDTH 510 0
DWIDTH 69 0
BBX 55 135 7 0
BITMAP
00000000040000
000000001C0000
000000007C0000
00000000FC0000
00000003FC0000
00000007FC0000
0000001FFC0000
0000007FFC0000
000000FFFC0000
000001FFFC0000
000001FFFC0000
000001FFFC0000
000001FFF80000
000001FFF80000
000001FFF80000
000001FFF80000
000001FFF80000
000001FFF80000
000001FFF80000
000001FFF80000
000001FFF80000
000001FFF80000
000001FFF80000
000001FFF80000
000001FFF80000
000001FFF80000
000001FFF80000
000001FFFFC000
000001FFFFFFC0
000001FFFFFFF0
000001FFFFFFF8
000001FFFFFFFC
000001FFFFFFFE
000001FFFFFFFE
000001FFFFFFF0
000001FFFFFFC0
000001FFFFFE00
000001FFFFF000
000001FFFF8000
000001FFFE0000
000001FFF80000
000001FFF00000
000001FFF00000
000001FFF00000
000001FFF00000
000001FFF00000
000001FFF00000
000001FFF00000
000000FFFFFF80
000000FFFFFFF0
000000FFFFFFF8
000000FFFFFFFC
000000FFFFFFFE
000000FFFFFFFE
000000FFFFFFF8
000000FFFFFFE0
000000FFFFFF00
000000FFFFF800
000000FFFFC000
000000FFFE0000
000000FFF00000
000000FFE00000
000000FFE00000
000000FFE00000
000000FFE00000
000000FFE00000
000000FFE00000
000000FFE00000
000000FFE00000
000000FFE00000
000000FFE00000
000000FFE00000
000000FFE00000
000000FFE00000
000000FFE00000
000000FFE00000
000000FFE00000
000000FFE00000
000000FFE00000
000000FFE00000
000000FFE00000
000000FFE00000
000000FFE00000
000000FFE00000
000000FFE00000
000000FFE00000
000000FFC00000
000000FFC00000
000000FFC00000
000000FFC00000
000000FFC00000
000000FFC00000
000000FFC00000
000000FFC00000
000000FFF00000
000000FFFC0000
000000FFFF8000
000000FFFFF000
000000FFFFFC00
000001FFFFFF00
000003FFFFFF80
000007FFFFFFC0
00000FFFFFFFC0
00001FFFFFFFC0
00003FFFFFFF00
00007FFFFFF000
0000FFFFFF8000
0001FFFFF80000
0003FFFFE00000
0007FFFFC00000
000FFFFFC00000
001FFFFF800000
003FFFFF800000
007FFFFF800000
00FFFFFF800000
01FFFFFF800000
03FFFFFF800000
07FFFCFF800000
0FFFF0FF800000
1FFFE0FF800000
1FFF80FF800000
1FFE007F800000
3FFC007F800000
3FF0007F800000
3FE0007F800000
7F80007F800000
7E00007F800000
7C00007F000000
F000007F000000
C000007F000000
8000007E000000
0000007C000000
00000070000000
00000060000000
00000040000000
ENDCHAR
STARTCHAR w
ENCODING 119
SWIDTH 510 0
DWIDTH 69 0
BBX 51 134 9 0
BITMAP
00000600000000
00000700000000
00000F80000000
00000FE0000000
00000FF0000000
00000FF0000000
00000FF8000000
00000FF8000000
00000FF8000000
00000FF8000000
00000FF8000000
00000FF8000000
00000FF8000000
00000FF8000000
00000FF8000000
00000FF8000000
00000FF8000000
00000FF8000000
00000FF8000000
00000FF8000000
00000FF8000000
00000FF8000000
00000FF8000000
00000FF8000000
00000FF8000000
00000FF8000000
00000FF8000000
00000FF8000000
00000FF8000000
00000FF8000000
00001FF8000000
00001FF8000000
00001FF8000000
00001FFC000000
00001FFC000000
00001FFC000000
00001FFC000000
00001FFC000000
00001FFC000000
00001FFC000000
00001FFC000000
00001FFC000000
00001FFC000000
00001FFC000000
00001FFC000000
00001FFC000000
00001FFC000000
00001FFC000000
00001FFC000000
00001FFC000000
00001FFC000000
00001FFC000000
00001FFE000000
00001FFE000000
00000FFE000000
00000FFF000000
000007FF000000
000007FF800000
000003FF800000
000003FF800000
000003FFC00000
000001FFC00000
000001FFE00000
000000FFE00000
000000FFF00000
000000FFF00000
0000007FF00000
0000007FF80000
0000003FF80000
0000003FFC0000
0000001FFC0000
0000001FFC0000
0000001FFE0000
0000000FFE0000
0000000FFF0000
00000007FF0000
00000007FF8000
00000007FF8000
00000003FF8000
00000003FFC000
00000001FFC000
00000001FFE000
00000000FFE000
00000000FFE000
00000000FFF000
000000007FF000
000000007FF800
000000003FF800
000000003FFC00
000000003FFC00
000000001FFC00
000000001FFE00
000000000FFE00
000000000FFF00
0000000007FF00
0000000007FF00
0000000007FF80
0000000007FF80
0000000007FF80
0000000007FF80
0000000007FF80
0000000007FF80
0000000007FF80
0000000007FFC0
0000000007FFC0
0000000007FFC0
0000000007FFC0
0000000007FFC0
0000000007FFC0
000000000FFFC0
000000000FFFC0
000000000FFFC0
000000000FFFC0
000000000FFFC0
200000000FFFC0
380000000FFFC0
7E0000000FFFE0
7F0000000FFFE0
7F0000000FFFE0
7F0000000FFFE0
7F8000001FFFE0
7F800000FFFFC0
7F80007FFFFF80
7F803FFFFFFF00
7FFFFFFFFFFE00
FFFFFFFFFFF800
FFFFFFFFFFF000
FFFFFFFFFFE000
FFFFFFFFFFC000
FFFFFFFFFF0000
FFFFFFFFFE0000
01FFFFFFFC0000
0000FFFFF00000
0000001FE00000
ENDCHAR
STARTCHAR x
ENCODING 120
SWIDTH 510 0
DWIDTH 69 0
BBX 56 135 6 0
BITMAP
00000000002000
0000000000F800
0000000001FF00
0000000007FFE0
000000001FFFF8
000000003FFFFF
00000000FFFFFF
00000001FFFFFF
00000007FFFFFE
0000000FFFFFF8
0000000FFFFF80
0000000FFFE000
0000000FFFE000
0000000FFFE000
0000000FFFE000
0000000FFFE000
0000000FFFC000
0000000FFFC000
0000000FFFC000
0000000FFFC000
0000000FFFC000
0000000FFFC000
0000000FFFC000
0000000FFFC000
0000000FFFC000
0000000FFFC000
0000000FFFC000
00000007FFC000
00000007FFC000
00000007FFC000
00000007FFC000
00000007FFC000
00000007FFC000
00000007FFC000
00000007FFC000
00000007FFC000
00000007FFC000
00000007FFC000
00000007FFC000
00000007FFC000
00000007FFC000
00000007FFC000
00000007FFC000
00000007FFC000
00000007FFC000
00000007FFC000
00000007FFC000
00000003FFC000
00000003FFC000
00000003FFC000
00000003FFC000
00000003FFC000
00000003FFC000
00000003FFC000
00000003FFC000
00000003FFC000
00000003FFC000
00000003FFC000
00000003FFC000
00000003FFC000
00000003FFC000
00000003FFC000
00000003FFC000
00000003FFC000
00000003FFC000
00000003FFC000
00000003FFC000
00000003FFC000
00000003FFC000
00000003FFC000
00000001FFC000
00000001FFC000
00000001FFC000
00000001FFC000
00000001FFC000
00000001FFC000
00000001FFC000
00000001FFC000
00000001FFC000
00000001FFC000
00000001FFC000
00000001FFC000
00000001FFC000
00000001FFC000
00000001FFC000
00000001FFC000
00000001FFC000
00000001FFC000
00000001FFC000
00000001FF8000
00000001FF8000
00000001FF8000
00000001FF8000
00000001FF8000
00000001FF8000
00000001FF8000
00000000FF8000
00000000FF8000
00000000FF8000
00000000FF8000
00000000FF8000
00000000FF8000
00000000FF8000
00000000FF8000
00000000FF8000
00000000FF8000
00000000FF8000
00000000FF8000
00000000FF8000
00000000FF8000
00000000FF8000
00000000FF8000
00000000FF8000
00000000FF8000
00000000FF8000
30000000FF8000
38000000FF8000
3E000000FF8000
7F000000FF8000
7F000000FF8000
7F000000FF8000
7F800000FF8000
7F80000FFF8000
7F8007FFFF8000
7F83FFFFFF8000
7FFFFFFFFF0000
7FFFFFFFFF0000
7FFFFFFFFE0000
7FFFFFFFFC0000
FFFFFFFFFC0000
FFFFFFFFF80000
1FFFFFFFF00000
000FFFFFE00000
000003FFC00000
00000001C00000
ENDCHAR
STARTCHAR y
ENCODING 121
SWIDTH 510 0
DWIDTH 69 0
BBX 29 134 20 0
BITMAP
00030000
000FE000
003FFC00
007FFF00
01FFFFE0
03FFFFF8
0FFFFFF0
3FFFFFF0
7FFFFFE0
FFFFFF00
FFFFC000
FFF80000
FFF80000
FFF80000
FFF80000
FFF80000
FFF80000
FFF80000
FFF80000
FFF80000
FFF80000
FFF00000
FFF00000
FFF00000
FFF00000
FFF00000
FFF00000
FFF00000
FFF00000
FFF00000
FFF00000
FFF00000
FFF00000
FFF00000
FFF00000
FFF00000
FFF00000
FFF00000
FFF00000
FFF00000
FFF00000
FFF00000
FFF00000
FFE00000
FFE00000
FFE00000
FFE00000
FFE00000
7FE00000
7FE00000
7FE00000
7FE00000
7FE00000
7FE00000
7FE00000
7FE00000
7FE00000
7FE00000
7FE00000
7FE00000
7FE00000
7FE00000
7FE00000
7FE00000
7FE00000
7FE00000
7FE00000
7FE00000
7FE00000
7FE00000
7FE00000
7FE00000
7FF80000
7FFF0000
7FFFE000
7FFFF800
7FFFFF00
7FFFFFC0
7FFFFFF0
7FFFFFE0
7FFFFFE0
7FFFFFC0
7FFFFF00
7FFFF800
7FE00000
7FC00000
7FC00000
7FC00000
7FC00000
7FC00000
7FC00000
7FC00000
7FC00000
7FC00000
7FC00000
7FC00000
7FC00000
7FC00000
7FC00000
7FC00000
7FC00000
7FC00000
7FC00000
7FC00000
7FC00000
7FC00000
7F800000
7F800000
7F800000
7F800000
7F800000
7F800000
7F800000
7F800000
7F800000
7F800000
7F800000
3F800000
3F800000
3F800000
3F800000
3F800000
3F800000
3F800000
3F800000
3F800000
3F800000
3F800000
3F000000
3F000000
3F000000
1F000000
0F000000
03000000
ENDCHAR
STARTCHAR z
ENCODING 122
SWIDTH 510 0
DWIDTH 69 0
BBX 49 135 10 0
BITMAP
00020000000000
001F8000000000
00FFC000000000
07FFF000000000
1FFFFC00000000
7FFFFE00000000
7FFFFF80000000
7FFFFFE0000000
1FFFFFF0000000
07FFFFF8000000
001FFFF8000000
0000FFF8000000
0000FFF8000000
00007FF8000000
00007FF8000000
00007FF8000000
00007FF8000000
00007FF8000000
00007FF8000000
00007FF8000000
00007FF8000000
00007FF8000000
00007FF8000000
00007FF8000000
00007FF8000000
00007FF8000000
00007FF8000000
00007FF8000000
00007FF8000000
00007FF8000000
00007FF8000000
00007FF8000000
00007FF8000000
00007FF8000000
00007FF8000000
00007FF8000000
00007FF8000000
00007FF8000000
00003FF8000000
00003FF8000000
00003FF8000000
00003FF8000000
00003FF8000000
00003FF8000000
00003FF8000000
00003FF8000000
00003FF8000000
00003FF8000000
00003FF8000000
00003FF8000000
00003FF8000000
00003FF8000000
00003FF0000000
00003FF0000000
00003FF0000000
00003FF0000000
00003FF0000000
00003FF0000000
00003FF0000000
00003FF0000000
00003FF0000000
00003FF0000000
00003FF0000000
00003FF0000000
00003FF0000000
00001FF0000000
00001FF0000000
00001FF0000000
00001FF0000000
00001FF0000000
00001FF0000000
00001FF0000000
00001FF0000000
00001FF0000000
00001FF0000000
00001FF0000000
00001FF0000000
00001FF0000000
00001FF0000000
00001FF0000000
00001FF0000000
00001FF0000000
00001FF0000000
00001FF0000000
00001FF0000000
00001FF0000000
00001FF0000000
00001FF0000000
00001FF0000000
00001FF0000000
00001FF0000000
00001FF0000000
00001FF0000000
00007FF0000080
0003FFF0000180
001FFFF0000700
00FFFFF0000F00
03FFFFF0001F00
1FFFFFF0003F00
FFFFFFF0007E00
FFFFFFF000FE00
7FFFFFF003FE00
3FFFFFF007FC00
1FFFFFF00FFC00
07FFFFF01FFC00
00001FF03FFC00
00001FF07FF800
00001FF07FF800
00001FF07FF800
00001FF03FF800
00000FE03FF000
00000FE03FF000
00000FE03FF000
00000FE03FF000
00000FE03FE000
00000FE01FE000
00000FE01FE000
00000FE01FC000
00000FE01FC000
00000FE01FC000
00000FE00FC000
00000FE00F8000
00000FE00F8000
00000FE00F8000
00000FE00F8000
00000FE00F0000
00000FE0070000
00000FE0070000
00000FE0060000
00000FE0060000
00000FE0060000
000007E0020000
00000780000000
00000600000000
00000400000000
ENDCHAR
ENDFONT
